<?xml version="1.0" encoding="UTF-8"?>
<svg xmlns="http://www.w3.org/2000/svg" xmlns:ns1="http://www.inkscape.org/namespaces/inkscape" xmlns:ns2="http://sodipodi.sourceforge.net/DTD/sodipodi-0.dtd" width="210mm" height="210mm" viewBox="0 0 744.09449 744.09448" id="svg2" version="1.1" ns1:version="0.91 r13725" ns2:docname="catnicorn.svg">
  <defs id="defs4" />
  <ns2:namedview id="base" pagecolor="#ffffff" bordercolor="#666666" borderopacity="1.0" ns1:pageopacity="0.0" ns1:pageshadow="2" ns1:zoom="0.35" ns1:cx="-18.721064" ns1:cy="520" ns1:document-units="px" ns1:current-layer="layer1" showgrid="false" ns1:window-width="1366" ns1:window-height="706" ns1:window-x="-8" ns1:window-y="-8" ns1:window-maximized="1" />
  <g ns1:label="Layer 1" ns1:groupmode="layer" id="layer1" transform="translate(0,-308.26772)">
    <path style="fill:#000000" d="m 462.79416,1008.4343 c -0.75737,-0.283 -2.06616,-1.2806 -2.90841,-2.2169 -1.39877,-1.5549 -1.43147,-1.8803 -0.37759,-3.7579 1.3656,-2.433 3.39581,-3.10549 9.6949,-3.21158 2.56935,-0.0433 7.64968,-0.64012 11.2896,-1.32635 3.63994,-0.68623 9.42099,-1.53024 12.8468,-1.87558 23.35028,-2.35385 26.07451,-3.17781 32.21699,-9.74412 2.62143,-2.80232 4.76755,-5.69545 4.76916,-6.42918 10e-4,-0.73372 1.06426,-3.43626 2.36145,-6.00561 2.93162,-5.80677 3.84627,-14.81169 2.32393,-22.87981 -1.09947,-5.82692 -0.38899,-9.70619 2.2081,-12.05651 1.12522,-1.01832 1.62113,-1.07294 2.62251,-0.2888 0.9486,0.74278 1.44578,3.70444 2.14442,12.77411 1.17183,15.21272 0.53208,20.28691 -3.66503,29.06905 -4.41908,9.2466 -5.15633,10.56464 -6.75048,12.06821 -2.71143,2.55742 -8.52723,7.09256 -10.29232,8.02597 -2.20634,1.1667 -11.86373,3.0193 -18.5956,3.5672 -2.99758,0.244 -9.3042,0.9971 -14.01469,1.6737 -15.55937,2.2346 -24.47796,3.1357 -25.87374,2.6141 z m -25.08135,-5.1031 c -1.40982,-1.7923 -1.49004,-2.2867 -0.59999,-3.69828 1.61474,-2.5609 12.31225,-7.67485 14.76617,-7.05896 3.09691,0.77728 3.29439,2.57574 0.45109,4.10816 -1.34844,0.72674 -4.32639,2.98561 -6.61765,5.01968 -2.29127,2.0341 -4.66237,3.6983 -5.26909,3.6983 -0.60672,0 -1.83546,-0.931 -2.73053,-2.0689 z m -170.74955,-4.46507 c -1.49871,-1.13768 -1.82827,-3.98657 -0.55239,-4.7751 0.44558,-0.27538 1.64042,-1.81596 2.65522,-3.42349 l 1.84507,-2.92278 7.27186,0.33296 c 8.80132,0.40298 13.79677,-1.21806 19.37728,-6.28802 1.96815,-1.78808 4.25399,-3.81414 5.07963,-4.50237 0.82567,-0.68821 2.08215,-1.91449 2.7922,-2.72507 0.71005,-0.81058 2.14902,-2.0655 3.19771,-2.7887 2.54956,-1.75826 4.23021,-5.50833 5.5673,-12.42241 0.60918,-3.15013 2.20297,-8.97999 3.54175,-12.95525 3.85156,-11.43656 5.92452,-21.82525 7.80168,-39.09861 0.48865,-4.49638 1.40213,-10.4867 2.02995,-13.31183 0.62784,-2.82513 1.35485,-7.02953 1.61559,-9.34312 0.26075,-2.31359 0.78846,-4.81968 1.17269,-5.56908 1.0971,-2.13975 3.57395,-1.6415 4.93631,0.99299 1.10428,2.13546 1.10476,3.09928 0.005,10.31637 -0.66708,4.37846 -1.5611,12.66523 -1.98673,18.41504 -0.42561,5.74981 -1.09893,11.70605 -1.49625,13.23611 -0.39732,1.53003 -1.30861,6.11037 -2.02509,10.17853 -0.71647,4.06815 -2.29888,10.02439 -3.51648,13.23609 -1.21759,3.2117 -2.60008,7.59129 -3.07219,9.73243 -0.47212,2.14113 -1.92818,7.11984 -3.2357,11.0638 -2.04206,6.15955 -2.99868,7.83403 -6.78338,11.87356 -2.59384,2.76849 -5.05802,4.70273 -5.99118,4.70273 -0.87181,0 -3.75354,2.03791 -6.40383,4.52871 -5.30977,4.99019 -14.65169,9.50369 -19.64688,9.49228 -1.51531,-0.003 -4.12955,0.69443 -5.80943,1.55088 -3.51361,1.79132 -6.41733,1.95552 -8.36989,0.47335 z m -27.25079,-1.0637 c -2.90936,-1.80381 -2.98879,-5.35466 -0.14396,-6.43626 3.11448,-1.18412 4.74666,-0.91538 7.1079,1.1703 l 2.18455,1.92963 -2.63594,2.35264 c -3.03384,2.70778 -3.59505,2.79255 -6.51255,0.98369 z m 178.93246,-3.24682 c -1.81026,-2.00031 -0.99339,-4.30913 1.95697,-5.53121 5.00941,-2.07496 8.65879,2.88556 4.24869,5.77517 -2.54317,1.66634 -4.54819,1.58753 -6.20566,-0.24396 z M 214.7235,990.74019 c -1.68192,-1.85851 -1.6452,-4.5661 0.0739,-5.45322 0.74941,-0.3867 3.25876,-1.14833 5.57635,-1.6925 3.8488,-0.90371 4.30401,-0.86602 5.25551,0.43522 1.51145,2.06704 1.28299,3.40905 -0.71013,4.1713 -0.96351,0.36848 -2.41928,1.41091 -3.23505,2.3165 -1.82335,2.02414 -5.23168,2.13319 -6.96064,0.2227 z m 188.49424,-0.66995 c -0.7491,-0.19578 -1.59406,-1.29383 -1.87768,-2.44011 -0.28362,-1.14628 -1.15707,-2.54007 -1.94099,-3.09731 -2.57961,-1.8337 -3.06391,-3.65536 -1.87078,-7.03701 4.13889,-11.73088 16.01318,-21.76458 32.42638,-27.40009 4.56816,-1.5685 7.95532,-2.30248 9.34385,-2.02477 1.84123,0.36826 2.54606,-0.0289 4.55706,-2.56804 1.30842,-1.65202 2.3906,-3.30362 2.40485,-3.67022 0.0142,-0.36661 0.72529,-1.50643 1.5801,-2.53293 1.34446,-1.61454 1.81375,-1.74812 3.47777,-0.98995 2.1628,0.98546 2.39645,2.71118 0.75568,5.5814 -0.61198,1.07057 -1.12415,2.64722 -1.13814,3.50367 -0.0337,2.06757 -3.23646,8.04407 -4.58877,8.563 -0.58859,0.22587 -2.58434,-0.34556 -4.435,-1.26981 l -3.36483,-1.68048 -4.52624,1.7187 c -2.48943,0.9453 -5.92771,2.56386 -7.64062,3.5968 -1.71291,1.03295 -4.05075,2.40771 -5.1952,3.05504 -1.14445,0.64733 -3.23715,2.23309 -4.65044,3.52392 -1.41327,1.29083 -2.84261,2.34698 -3.17628,2.34698 -0.90228,0 -7.61081,9.34042 -7.61081,10.59667 0,0.72158 0.92518,1.08224 2.77626,1.08224 3.30415,0 5.78827,1.17707 5.78827,2.7427 0,0.62191 -1.33767,1.97516 -2.97258,3.00723 -1.63492,1.03208 -3.57002,2.78831 -4.30021,3.90275 -0.73021,1.11443 -1.58234,1.98558 -1.89364,1.93591 -0.3113,-0.0496 -1.1789,-0.2505 -1.92801,-0.44629 z m -26.90095,-10.51943 c -1.7598,-1.7598 -0.93195,-3.93426 2.77978,-7.30138 4.85175,-4.40132 11.87469,-8.11478 15.34675,-8.11478 2.37451,0 2.73978,0.24965 2.73978,1.87251 0,1.41306 -0.90742,2.4 -3.69831,4.02238 -4.35541,2.53186 -8.24569,5.34714 -11.48426,8.31085 -2.53049,2.3157 -4.21888,2.67528 -5.68374,1.21042 z m -171.71502,-1.26812 c -3.04613,-3.36593 -1.14894,-7.30128 7.30698,-15.15699 5.66347,-5.26148 6.73382,-5.92894 10.34502,-6.45113 2.21538,-0.32034 5.97455,-0.51815 8.35372,-0.43958 4.17091,0.13775 4.36965,0.0518 5.55149,-2.40214 2.46591,-5.12001 10.23537,-12.49139 17.30514,-16.4185 7.5392,-4.18786 10.89059,-7.91713 11.76474,-13.09119 0.48374,-2.86315 0.29265,-3.40806 -2.03839,-5.81308 -2.44454,-2.52214 -2.52448,-2.78556 -1.6115,-5.31037 0.75209,-2.07988 0.76248,-4.20178 0.0479,-9.77449 -1.01056,-7.87988 -0.56167,-7.26768 -9.03416,-12.32098 -4.67383,-2.78765 -14.63638,-11.31297 -20.61008,-17.63682 -3.21425,-3.40266 -2.98367,-3.58487 -4.87772,3.85401 -1.43984,5.655 -4.03557,12.0174 -6.82946,16.73977 -1.14007,1.92701 -2.44625,4.49369 -2.90259,5.70371 -0.45634,1.21001 -1.87941,3.72572 -3.16237,5.59044 -1.28296,1.86472 -2.33605,3.67763 -2.34021,4.02871 -0.0192,1.61777 -10.99758,10.42479 -14.46075,11.60057 -5.21311,1.7699 -9.18187,4.44538 -11.70277,7.88924 -1.18731,1.62202 -2.55986,3.2995 -3.05011,3.72772 -0.49025,0.42823 -1.41519,2.35526 -2.05543,4.28227 -1.23022,3.70277 -2.96547,4.74313 -5.03981,3.02159 -0.86622,-0.7189 -1.07708,-1.79922 -0.75016,-3.84355 0.49999,-3.1268 4.03975,-11.34224 5.19449,-12.0559 0.40058,-0.24757 0.72833,-0.96169 0.72833,-1.58692 0,-1.44156 -3.03706,-0.80811 -7.30519,1.52367 -3.44736,1.88338 -11.18878,11.31659 -11.81164,14.39294 -1.05444,5.20788 -2.55757,6.53411 -11.50313,10.14939 -3.96312,1.60167 -4.7805,1.70335 -6.46135,0.80379 -1.57653,-0.84374 -1.88225,-1.52555 -1.69168,-3.77282 0.24918,-2.93857 0.39978,-3.01452 8.60247,-4.3385 2.77966,-0.44868 2.91973,-0.61337 2.91973,-3.4332 0,-3.20729 1.80754,-6.35656 7.79344,-13.57851 6.45189,-7.78418 9.08608,-8.87579 23.18491,-9.60777 5.26184,-0.27318 9.74971,-0.79234 9.97301,-1.15366 0.22332,-0.36133 1.01046,-0.65696 1.74921,-0.65696 1.62322,0 8.83323,-7.24509 10.47965,-10.53062 0.64917,-1.29546 2.43834,-4.26559 3.97592,-6.60029 1.53758,-2.33471 2.80197,-4.60327 2.80977,-5.04127 0.008,-0.43798 1.01851,-2.27801 2.24606,-4.08893 2.67971,-3.95326 5.23296,-13.2274 5.84565,-21.23313 0.38598,-5.04329 0.20886,-6.31715 -1.29906,-9.34313 -1.19729,-2.40262 -2.23531,-3.50367 -3.30315,-3.50367 -1.36471,0 -1.6145,-0.67364 -2.02092,-5.45015 -0.26627,-3.12915 -1.48826,-8.20528 -2.86947,-11.91967 -1.32315,-3.55823 -2.64652,-8.46337 -2.94081,-10.90032 -0.29431,-2.43694 -0.99519,-5.30672 -1.55752,-6.37729 -2.72154,-5.18121 -4.74743,-15.79778 -5.76055,-30.18782 -0.51967,-7.38125 -1.05982,-10.29776 -2.37422,-12.81948 -1.16573,-2.23651 -1.57128,-4.06682 -1.28796,-5.81274 0.34882,-2.14951 -0.10263,-3.18956 -2.8842,-6.64537 -1.81376,-2.25336 -5.27906,-6.89996 -7.70065,-10.32578 -2.4216,-3.42582 -4.85654,-6.74209 -5.41097,-7.3695 -1.96599,-2.22479 -5.04066,-7.49097 -5.54363,-9.49496 -1.11134,-4.42796 5.44839,-5.0291 7.25608,-0.66496 0.509,1.22885 1.53732,2.78798 2.28512,3.46475 1.24572,1.12735 1.47826,1.09944 2.77461,-0.33301 0.77823,-0.85992 1.8499,-1.56349 2.38151,-1.56349 1.03268,0 5.79944,5.06296 5.79944,6.15981 0,1.07939 8.08865,8.62845 9.24799,8.63106 1.53358,0.003 0.49171,-5.86585 -1.48802,-8.38268 -1.57088,-1.99704 -2.01166,-6.00232 -0.86034,-7.81775 0.83144,-1.31105 4.82993,-1.41888 10.14105,-0.27349 2.30665,0.49745 5.81032,0.90993 7.78595,0.91661 1.97562,0.007 5.56853,0.47738 7.98424,1.04598 3.62204,0.85254 4.71422,0.85525 6.22875,0.0154 1.01011,-0.56012 2.24669,-1.03082 2.74794,-1.04598 1.28548,-0.0389 2.18028,4.58883 1.09679,5.67232 -0.56437,0.56437 -4.88168,0.8822 -12.17531,0.89629 -12.76272,0.0247 -13.17828,0.20961 -12.29541,5.47201 0.28739,1.71291 0.72906,5.38685 0.98151,8.16434 l 0.459,5.04995 2.72509,0.45565 c 4.42779,0.74037 7.47282,2.78954 10.02566,6.74682 1.31975,2.04581 2.91525,4.42039 3.54556,5.27684 0.6303,0.85645 1.65462,3.51466 2.27624,5.90713 0.62164,2.39247 2.90529,7.47279 5.07482,11.28961 2.16951,3.81681 4.62615,8.92199 5.45919,11.34481 0.83306,2.42284 3.64684,8.58731 6.25285,13.69881 2.606,5.11152 4.73818,9.52699 4.73818,9.81218 0,0.28519 1.22629,2.26317 2.72509,4.39551 1.49879,2.13236 2.72507,4.18165 2.72507,4.55396 0,0.37234 1.43125,2.30296 3.18055,4.29026 2.17674,2.47292 3.79014,3.61329 5.11205,3.61329 2.92645,0 4.9435,1.40186 4.9435,3.43573 0,1.00307 0.52555,2.25993 1.16789,2.79302 1.61157,1.33749 1.46103,3.664 -0.38929,6.0163 -0.85646,1.08881 -1.5572,2.69584 -1.5572,3.5712 0,0.87536 -0.33257,2.66754 -0.73905,3.98262 -1.46044,4.72481 -5.51345,26.59274 -5.49387,29.64185 0.0186,2.89892 0.2394,3.20654 3.1911,4.4467 3.6549,1.53559 3.41145,2.94994 -0.5078,2.94994 -1.47352,0 -2.67626,0.26278 -2.67274,0.58395 0.004,0.32117 0.36472,3.71185 0.80267,7.53484 0.62509,5.45648 1.12591,7.18179 2.3294,8.02475 1.10957,0.77717 1.53391,1.97578 1.53602,4.33871 0.003,3.59846 2.11086,7.73543 4.62699,9.08203 0.87936,0.47062 1.59885,1.40974 1.59885,2.08694 0,1.23351 -0.89417,1.21206 -5.17085,-0.12398 -1.36272,-0.42571 -2.10986,0.12258 -4.09115,3.0023 -2.88368,4.19126 -7.06005,7.63598 -14.552,12.00263 -5.21141,3.03746 -11.22274,8.57259 -11.22274,10.33371 0,0.44143 1.22629,1.52613 2.72508,2.41044 1.85875,1.0967 2.72509,2.17728 2.72509,3.39901 0,1.74952 -0.23099,1.80276 -9.92708,2.28876 -15.98194,0.80106 -16.90135,0.99309 -21.2632,4.44093 -2.13673,1.68899 -4.92123,4.54496 -6.18776,6.3466 -1.26654,1.80162 -2.67314,3.71365 -3.12581,4.24893 -1.18613,1.40261 -3.43212,1.19705 -4.92323,-0.4506 z m 57.54811,-96.48435 c 0.28199,-1.60585 1.00516,-5.19712 1.60705,-7.98059 0.6019,-2.78347 1.85879,-8.69708 2.79312,-13.14134 l 1.69876,-8.0805 -2.86313,-2.29687 c -5.07311,-4.0698 -10.83299,-12.71613 -19.0881,-28.65374 -1.66544,-3.21536 -3.4222,-6.54384 -3.90392,-7.39664 -1.32688,-2.34901 -5.60091,-13.59739 -5.60091,-14.74046 0,-0.55224 -0.64293,-1.83964 -1.42874,-2.8609 -2.45593,-3.19177 -5.4033,-9.42389 -7.13796,-15.09294 -2.73189,-8.928 -8.48192,-16.12645 -10.40112,-13.02111 -0.2054,0.33234 -0.75641,7.95284 -1.22447,16.93442 -0.6972,13.37845 -0.64694,18.23001 0.27799,26.84115 2.02942,18.89389 4.72615,25.8017 15.39278,39.4294 2.05861,2.63008 3.74293,4.98327 3.74293,5.2293 0,0.24604 1.13869,1.72878 2.53042,3.29499 5.8744,6.6108 10.54869,11.73603 14.08477,15.44357 2.07263,2.17311 4.65438,5.08982 5.73722,6.48155 1.08285,1.39174 2.26173,2.53044 2.61973,2.53044 0.35799,0 0.8816,-1.31388 1.16358,-2.91973 z m -12.98524,-5.44322 c -3.66772,-4.10513 -6.89914,-6.71248 -7.53323,-6.07838 -0.29387,0.29388 1.66306,2.65814 4.34875,5.25391 5.26273,5.08657 7.51293,5.66914 3.18448,0.82447 z m -41.9198,-113.50701 c 1.26342,-0.65333 2.29712,-1.5156 2.29712,-1.91614 0,-1.07953 -2.98581,-3.66464 -5.74995,-4.9783 -1.33391,-0.63393 -3.45435,-2.22805 -4.71209,-3.54249 -1.25774,-1.31442 -2.57162,-2.38987 -2.91973,-2.38987 -1.16847,0 -0.64734,2.08138 0.86347,3.44865 0.82301,0.74481 2.79591,3.42686 4.38422,5.96012 1.58832,2.53325 3.03454,4.60591 3.21385,4.60591 0.1793,0 1.3597,-0.53454 2.62311,-1.18788 z m 156.26408,203.55996 c -2.24296,-1.3064 -1.69371,-4.4307 1.0749,-6.11438 1.3406,-0.81527 2.86112,-1.31973 3.37894,-1.12102 1.64832,0.63252 2.97368,-1.72634 1.99619,-3.55278 -1.60349,-2.99616 2.04253,-7.6388 17.40915,-22.16785 3.18971,-3.01584 9.57269,-7.46849 10.70629,-7.46849 0.53812,0 0.36069,-0.60395 -0.43608,-1.48436 -0.85685,-0.94683 -1.25301,-2.42709 -1.09391,-4.08762 0.23076,-2.40859 0.4532,-2.60326 2.97449,-2.60326 2.69953,0 2.72731,0.0347 2.96275,3.707 0.2284,3.56261 0.38003,3.77751 3.89297,5.51702 3.39918,1.68319 4.19904,1.76789 11.41546,1.20876 9.69477,-0.75115 9.96255,-1.02281 9.26406,-9.39826 -0.50171,-6.0159 -0.4929,-6.05466 1.55197,-6.83213 2.07237,-0.78791 2.64314,-1.92319 1.36427,-2.71358 -0.38076,-0.23532 -2.39537,-0.0579 -4.47693,0.39427 -5.85047,1.27088 -11.57963,2.10437 -20.91369,3.04255 -4.71049,0.47346 -11.71783,1.23246 -15.57187,1.68668 -8.12718,0.95784 -19.92881,-0.21548 -36.20463,-3.59947 -10.8454,-2.25491 -14.2912,-3.70254 -16.16535,-6.79131 -1.10133,-1.81508 -1.12931,-2.36496 -0.20798,-4.08648 1.19669,-2.23603 4.16995,-2.67768 6.1903,-0.91951 0.67607,0.58833 4.38251,1.61818 8.23655,2.28855 3.85403,0.67036 10.51102,1.98794 14.79329,2.92794 12.22102,2.68263 25.87516,2.3334 52.81129,-1.35076 5.09024,-0.69622 10.33545,-0.94967 13.23611,-0.63956 l 4.80465,0.51363 1.34612,-6.10307 c 0.74037,-3.35668 1.47935,-7.15416 1.64218,-8.43884 0.67968,-5.36234 3.83948,-19.37044 4.88643,-21.66265 2.67095,-5.84783 17.95572,-22.33408 20.68963,-22.31599 5.23504,0.0346 4.38297,4.52628 -1.89981,10.01465 -8.80399,7.69079 -12.13145,12.21167 -14.67572,19.93933 -1.12973,3.43129 -2.28697,7.465 -2.57166,8.9638 -0.2847,1.4988 -1.19259,5.35283 -2.01754,8.56453 -2.77656,10.80969 -4.00189,18.5907 -3.17183,20.14168 1.36435,2.54929 11.30513,10.31178 15.71097,12.26823 2.0586,0.91415 7.43803,7.45033 10.81274,13.13783 1.01635,1.71291 2.695,4.14745 3.73032,5.41009 1.62426,1.98092 1.81422,2.80963 1.38522,6.04359 -0.67056,5.05482 -1.1374,6.06469 -2.8036,6.06469 -1.50188,0 -4.64477,-3.43546 -4.64477,-5.07713 0,-0.5358 -1.40148,-3.07289 -3.11438,-5.63798 -1.71291,-2.5651 -3.11437,-4.93392 -3.11437,-5.26405 0,-1.6011 -5.9921,-7.59556 -10.69366,-10.69785 -2.89714,-1.91165 -7.07084,-5.10019 -9.27489,-7.08562 -2.20406,-1.98543 -4.24388,-3.60987 -4.53295,-3.60987 -0.28906,0 -0.31532,1.83942 -0.0584,4.08762 0.58038,5.07767 -0.98336,10.54047 -3.54795,12.39443 -1.02744,0.74275 -3.44473,1.57039 -5.37174,1.83921 -1.92703,0.26881 -5.21574,0.81128 -7.30827,1.20547 -2.09253,0.39419 -5.52029,0.71671 -7.61724,0.71671 -3.32153,0 -4.16482,0.35216 -6.54653,2.73387 -2.27371,2.2737 -2.99015,2.59673 -4.25632,1.91909 -1.16182,-0.62181 -1.5224,-1.63808 -1.5224,-4.29106 0,-1.91196 -0.35712,-3.47628 -0.7936,-3.47628 -1.1717,0 -13.03618,10.41187 -17.30871,15.18954 -4.43853,4.96329 -5.07119,7.1893 -1.38986,4.89028 1.06676,-0.66621 2.14485,-0.71852 3.68019,-0.17856 2.99907,1.05472 3.2383,3.19952 0.49019,4.39487 -1.20811,0.5255 -3.28745,1.76075 -4.62075,2.74502 -2.26208,1.66991 -11.21016,5.68897 -12.54829,5.63612 -0.32967,-0.013 -1.21256,-0.3808 -1.96195,-0.81728 z M 182.29117,959.6646 c -3.06191,-1.19063 -4.04379,-5.09947 -1.60837,-6.40287 2.14633,-1.14869 3.99793,-0.99866 5.60308,0.45398 0.76575,0.69299 2.97752,1.43865 4.91506,1.65704 3.77365,0.42535 5.55707,1.78904 4.82717,3.69113 -0.35285,0.91951 -1.78059,1.16433 -6.51052,1.11633 -3.33218,-0.0337 -6.58408,-0.26583 -7.22642,-0.51561 z m -25.63386,-2.21721 c -2.72853,-2.29591 -3.03093,-4.17527 -0.97168,-6.03887 2.50407,-2.26615 9.72795,-1.2324 10.79358,1.54459 0.55452,1.44506 -4.35231,6.50997 -6.3068,6.50997 -0.61577,0 -2.19757,-0.90705 -3.5151,-2.01569 z m 55.07479,-13.75083 c -0.53844,-0.96351 -1.39336,-3.1533 -1.89979,-4.86621 -0.50644,-1.71291 -1.18039,-3.94176 -1.49768,-4.953 -0.54872,-1.74892 -0.44786,-1.81091 2.06707,-1.27043 4.25443,0.91431 5.10191,1.67253 6.43913,5.76084 1.53767,4.70118 1.53524,4.36405 0.0422,5.85713 -1.74449,1.7445 -4.01061,1.51206 -5.15087,-0.52833 z m 323.71995,-9.03763 c -1.35041,-2.18501 4.00412,-12.47646 11.19776,-21.52218 17.39939,-21.87907 24.28695,-36.50215 24.39999,-51.80399 0.041,-5.54857 -0.18089,-6.32375 -4.08845,-14.28532 -4.07535,-8.30341 -4.11136,-8.43883 -2.6359,-9.91428 1.29828,-1.29828 1.83733,-1.37688 4.08048,-0.5949 1.98056,0.69042 3.02881,1.8311 4.48537,4.8809 1.04543,2.18895 2.65008,5.38138 3.56589,7.09428 3.20069,5.98655 2.64679,20.24351 -1.20999,31.14377 -0.90911,2.56935 -3.6421,8.05039 -6.07333,12.18008 -6.81298,11.57254 -12.00925,18.8665 -23.89793,33.54527 -1.41079,1.7419 -3.4587,4.69193 -4.55089,6.55561 -1.86471,3.18187 -4.23284,4.40378 -5.273,2.72076 z m 42.46779,-86.74329 c -0.48484,-0.48484 -0.88152,-1.64345 -0.88152,-2.5747 0,-3.15798 -3.21199,-20.93504 -4.77255,-26.41407 -2.15116,-7.55269 -6.95875,-17.09632 -11.17813,-22.18993 -1.95102,-2.35524 -5.09059,-6.55965 -6.97683,-9.34312 -4.18054,-6.16908 -11.03459,-12.9079 -16.78079,-16.49865 -3.76689,-2.35391 -22.08913,-11.53074 -23.02198,-11.53074 -0.19405,0 -1.83805,-0.64272 -3.65334,-1.42826 -1.8153,-0.78555 -4.52683,-1.8739 -6.02562,-2.41857 -1.49879,-0.54467 -4.12655,-1.51878 -5.83945,-2.1647 -1.71291,-0.64592 -6.61806,-2.14199 -10.90033,-3.32459 -4.28226,-1.1826 -10.41369,-3.0521 -13.62539,-4.15443 -3.2117,-1.10235 -9.69349,-2.74498 -14.40398,-3.65031 -4.71049,-0.90534 -9.79083,-1.9556 -11.28962,-2.33394 -1.49879,-0.37834 -5.35283,-0.68809 -8.56453,-0.68833 -3.2117,-2.3e-4 -7.06343,-0.36877 -8.55939,-0.81896 -3.35197,-1.00874 -18.46719,-0.99368 -23.75227,0.0237 -2.14113,0.41215 -6.6959,1.07389 -10.12171,1.47052 -3.42582,0.39663 -10.43316,1.439 -15.57188,2.31636 -5.13872,0.87736 -11.55814,1.59621 -14.26537,1.59744 l -4.92223,0.002 0.61959,4.47691 c 0.34078,2.46231 0.56824,5.52802 0.50549,6.81271 -0.50834,10.40719 -1.21374,12.75534 -3.56118,11.85453 -0.82056,-0.31487 -1.00689,-1.49048 -0.74217,-4.68259 1.1074,-13.35398 -4.87714,-29.36198 -10.97685,-29.36198 -2.09911,0 -10.4952,-2.52996 -14.26918,-4.29968 -1.3494,-0.63276 -2.79612,-1.15049 -3.21494,-1.15049 -1.89555,0 -10.24819,-4.38413 -13.54686,-7.11048 -4.22106,-3.48871 -4.71721,-3.63334 -4.38616,-1.27858 0.38469,2.73637 -2.1049,2.6488 -3.74745,-0.13182 -0.77307,-1.30868 -1.60706,-2.37943 -1.85332,-2.37943 -1.20879,0 -10.67514,-8.90625 -15.53503,-14.61584 -5.45429,-6.40794 -6.33003,-8.36121 -4.54779,-10.14345 1.45829,-1.45828 3.07485,-1.11432 5.44784,1.15914 1.96987,1.88726 2.28081,1.96909 3.15698,0.83087 0.53453,-0.69443 2.13885,-1.3737 3.56514,-1.50951 2.35138,-0.22389 2.77511,0.0747 4.54308,3.2008 3.21407,5.68318 5.37231,8.09099 11.60505,12.94701 3.26656,2.54502 6.66969,5.24999 7.56252,6.01105 0.89284,0.76106 2.34705,1.52983 3.23159,1.70838 13.4917,2.7234 17.92444,4.14963 21.29339,6.85114 1.00336,0.80457 6.12222,2.69699 17.68739,6.53898 3.4258,1.13808 7.03857,2.5919 8.02837,3.23072 1.88672,1.2177 8.67141,0.80423 27.00835,-1.64597 15.35924,-2.05232 44.46794,-0.59448 59.95173,3.00255 15.49731,3.60017 18.66388,4.44084 20.63275,5.47773 1.07057,0.5638 4.83186,1.74214 8.35842,2.61851 7.55286,1.87696 13.97043,4.22976 22.00675,8.06811 3.2117,1.53399 9.69349,4.48499 14.40398,6.55777 11.32418,4.98306 18.42295,9.23592 24.25887,14.53343 2.96493,2.69138 5.48997,4.34984 6.61805,4.34676 2.63946,-0.007 10.88947,-4.50086 15.63866,-8.51815 4.42169,-3.74027 15.96747,-16.80463 19.52017,-22.08759 1.20508,-1.79197 2.8413,-3.95887 3.63606,-4.81532 2.68862,-2.89733 5.33915,-11.20221 9.78714,-30.66594 2.13022,-9.32154 2.84359,-14.43181 3.21499,-23.03085 0.47116,-10.9089 -0.70319,-27.37547 -2.14645,-30.09703 -0.36834,-0.69459 -1.20693,-3.58511 -1.86354,-6.4234 -0.65661,-2.8383 -1.72967,-7.47598 -2.38457,-10.30595 -1.8028,-7.79027 -8.97826,-25.75188 -18.40134,-46.06221 -1.64294,-3.54117 -2.98717,-6.63575 -2.98717,-6.87685 0,-0.24111 -1.07168,-2.94967 -2.38154,-6.01904 -1.30985,-3.06936 -2.67922,-6.28139 -3.04305,-7.13784 -1.13534,-2.67259 -3.15218,-9.14434 -4.3675,-14.01469 -0.64114,-2.56937 -1.84228,-7.14286 -2.66922,-10.16333 -4.76729,-17.41329 -4.06193,-49.96982 1.51883,-70.10181 0.87965,-3.17322 2.32211,-8.48485 3.20548,-11.80361 1.56775,-5.88999 3.29538,-10.89181 4.70256,-13.61482 0.38427,-0.74358 0.69866,-2.05728 0.69866,-2.91933 0,-0.86204 0.84063,-3.23176 1.86803,-5.26607 1.02742,-2.0343 2.86685,-5.75302 4.08762,-8.2638 1.22078,-2.5108 3.09551,-5.48892 4.16608,-6.61804 1.07057,-1.12915 2.99758,-3.6111 4.28227,-5.51545 3.01142,-4.46403 13.02369,-14.37284 21.9345,-21.70788 3.90803,-3.21695 10.47308,-7.14131 11.94668,-7.14131 0.78848,0 1.97464,-0.54102 2.6359,-1.20228 0.66125,-0.66126 2.7009,-1.9128 4.53253,-2.78121 4.69194,-2.22453 10.85722,-5.52056 13.14851,-7.02935 1.06947,-0.70423 4.83795,-2.19446 8.37439,-3.31162 3.53645,-1.11717 7.96554,-2.73077 9.84243,-3.58579 1.87689,-0.85503 4.54807,-1.55459 5.93593,-1.55459 1.38787,0 4.82318,-0.52932 7.63401,-1.17628 2.81083,-0.64695 6.75714,-1.5507 8.76957,-2.00835 2.90216,-0.65997 4.91519,-0.56383 9.73242,0.46479 8.52943,1.82128 10.16167,2.7228 15.95892,8.81436 4.33965,4.55999 5.39363,6.2355 6.87497,10.92917 l 1.74957,5.54352 -1.77431,4.87221 c -0.97587,2.67973 -2.90848,6.27369 -4.29467,7.9866 -1.38621,1.71291 -3.6321,5.10212 -4.99088,7.53158 -1.35879,2.42946 -4.20957,6.2835 -6.33511,8.56453 -3.99905,4.29165 -11.01735,15.13811 -12.00378,18.55132 -0.30941,1.07057 -1.48277,3.52314 -2.60746,5.45016 -1.1247,1.92703 -2.45294,4.55478 -2.95166,5.83946 -0.49872,1.28467 -1.65872,4.2628 -2.57778,6.61805 -2.33986,5.99622 -4.69848,17.79843 -5.21255,26.0829 -0.41325,6.65961 0.95354,21.24939 2.80817,29.97586 0.40956,1.92703 1.29158,6.83217 1.96005,10.90031 0.66849,4.06816 1.59921,8.9733 2.06825,10.90033 3.62513,14.89319 7.86505,38.76713 9.73986,54.84287 0.65232,5.59334 1.3462,11.04564 1.54197,12.11621 0.83307,4.55561 1.86436,14.38141 2.61502,24.91501 1.04708,14.69303 -0.61702,45.05656 -3.05102,55.66946 -0.39283,1.71291 -1.11793,5.21659 -1.6113,7.78595 -1.91132,9.95343 -6.61371,25.38863 -9.39663,30.84358 -0.83145,1.62977 -1.51172,3.31213 -1.51172,3.73856 0,0.42644 -1.05109,2.55802 -2.33578,4.73685 -1.28467,2.17882 -2.33578,4.3652 -2.33578,4.85863 0,0.49341 -0.82437,2.14224 -1.83195,3.66406 -1.00757,1.5218 -3.4618,5.39467 -5.45383,8.60637 -1.99203,3.2117 -3.98041,6.36501 -4.41859,7.00735 -0.43819,0.64235 -2.27633,3.4743 -4.08478,6.29322 -3.31856,5.17288 -15.38371,19.78142 -19.1542,23.19203 -1.12192,1.01483 -3.96688,3.66382 -6.32213,5.88663 -2.35525,2.22281 -6.2141,5.31326 -8.57524,6.86765 -5.42185,3.56932 -13.14485,10.39017 -18.67327,16.49199 -10.07528,11.12026 -15.06841,14.47027 -21.55264,14.46017 -1.36115,-0.002 -3.00037,0.52169 -3.64271,1.16404 -0.64235,0.64234 -1.54329,1.16789 -2.0021,1.16789 -0.48853,0 -0.83421,1.71387 -0.83421,4.13584 0,3.6502 -0.26219,4.3297 -2.23285,5.78667 -1.66238,1.22904 -2.45807,1.4256 -3.11438,0.7693 z m 12.95815,-19.02877 c 2.80372,-1.35862 7.12805,-5.00144 13.6254,-11.47805 10.65172,-10.61776 16.48088,-15.64478 23.92213,-20.63026 2.78347,-1.86488 6.75802,-5.00212 8.83231,-6.97166 8.64391,-8.20734 21.69699,-24.42136 27.37231,-34.00081 0.85645,-1.44561 2.13484,-3.30113 2.84084,-4.12336 0.70601,-0.82223 1.51121,-2.21191 1.78933,-3.08819 0.27811,-0.87627 2.06545,-3.91927 3.97185,-6.76221 1.9064,-2.84295 3.46618,-5.35139 3.46618,-5.57433 0,-0.38227 0.86723,-2.46684 3.66766,-8.81592 1.18132,-2.67828 4.57379,-12.9751 6.79782,-20.63274 3.87857,-13.35449 6.83979,-38.36517 6.77502,-57.22231 -0.0526,-15.29291 -0.53035,-21.25021 -3.2476,-40.49123 -2.25983,-16.00184 -3.7368,-27.14629 -4.28226,-32.31166 -0.27133,-2.56935 -1.31883,-7.82486 -2.3278,-11.6789 -1.00896,-3.85405 -2.2084,-9.7585 -2.6654,-13.12103 -0.45701,-3.36253 -1.01442,-6.41057 -1.23866,-6.77342 -0.64074,-1.03672 -4.31496,-20.40507 -3.94171,-20.77833 0.18375,-0.18376 -0.37972,-2.31931 -1.25216,-4.74567 -2.32826,-6.47515 -2.8982,-28.1069 -1.04577,-39.69139 0.73186,-4.5768 1.65246,-8.92983 2.04576,-9.67342 0.3933,-0.74359 0.7151,-2.11373 0.7151,-3.04477 0,-0.93103 2.80294,-7.38255 6.22876,-14.33669 3.42581,-6.95413 6.22875,-12.87857 6.22875,-13.16542 0,-0.67199 4.61902,-7.56702 5.75317,-8.58803 4.1273,-3.71554 11.21206,-13.39637 15.16493,-20.72181 1.01341,-1.87804 2.35816,-4.00186 2.98835,-4.71962 0.63018,-0.71776 1.32603,-3.34552 1.54632,-5.83946 0.38181,-4.32271 0.26194,-4.71621 -2.56749,-8.4274 -4.85625,-6.36967 -7.97846,-8.73234 -13.31288,-10.07422 -2.65736,-0.66847 -6.08988,-1.21539 -7.62783,-1.21539 -3.30356,0 -20.48404,2.99244 -22.18071,3.86335 -0.64636,0.33179 -2.57617,0.85676 -4.28848,1.16662 -4.92861,0.89187 -10.25842,3.28639 -31.53415,14.16733 -9.69083,4.95614 -12.91556,6.87486 -14.91087,8.87204 -0.707,0.70767 -2.98439,2.65243 -5.06085,4.32167 -2.07647,1.66925 -3.9738,3.30189 -4.21628,3.6281 -0.2425,0.3262 -2.90614,3.12914 -5.9192,6.22875 -9.95447,10.24042 -17.7139,23.72164 -23.63404,41.06169 -3.6854,10.79455 -8.26978,34.37114 -8.93227,45.93704 -0.60374,10.54015 1.21879,30.56762 3.56798,39.20775 0.83166,3.05877 2.02585,7.8388 2.65377,10.62228 1.67736,7.43544 5.19408,16.87953 10.72172,28.79289 1.68502,3.63164 3.60952,8.01123 4.27666,9.73242 0.66715,1.7212 1.49561,3.50092 1.84103,3.95493 1.06007,1.3933 5.19932,11.55021 11.56237,28.37181 1.51671,4.00961 3.13655,9.96304 6.94514,25.52561 0.86819,3.54754 1.9844,11.60598 2.48048,17.90767 0.76864,9.76396 0.71512,12.90511 -0.36204,21.25022 -1.16653,9.03736 -3.29784,19.48266 -5.16221,25.29938 -0.42152,1.31508 -0.76639,2.89598 -0.76639,3.5131 0,1.68676 -3.55649,12.5542 -5.23402,15.99345 -4.25384,8.72113 -11.67225,18.76505 -21.2944,28.83088 -5.64791,5.90832 -9.69814,9.08451 -15.71031,12.32004 -2.03407,1.09466 -3.69831,2.42862 -3.69831,2.96433 0,1.14244 3.34552,6.33329 5.8788,9.12146 4.2159,4.64007 11.21633,21.06099 12.77906,29.97586 0.52546,2.9976 1.10503,6.24319 1.28793,7.21245 0.27678,1.46674 0.68871,1.68536 2.45624,1.30358 1.16802,-0.25229 3.97193,-1.35433 6.23092,-2.449 z m -460.67251,-84.00143 -1.59011,-2.0215 2.24625,-2.84472 c 1.23544,-1.56459 3.00511,-4.59655 3.9326,-6.73769 0.9275,-2.14113 2.18346,-5.04355 2.79103,-6.44981 0.60756,-1.40627 1.10466,-3.47518 1.10466,-4.59758 0,-2.02455 -0.013,-2.02899 -1.63691,-0.55938 -0.90029,0.81477 -2.13556,2.44571 -2.74506,3.62435 -1.58494,3.06493 -3.74343,2.7073 -8.57554,-1.4209 -6.52002,-5.57024 -5.51711,-8.12126 3.18616,-8.10441 6.53105,0.0127 8.99275,0.56744 8.99275,2.02666 0,0.76202 1.05492,1.07709 3.60643,1.07709 4.18548,0 8.14059,2.10359 9.4793,5.04174 0.61716,1.35455 1.51348,1.9656 2.88319,1.9656 1.21351,0 2.1516,0.53066 2.40866,1.36255 0.8549,2.76659 1.64833,3.7229 3.95193,4.7632 1.29691,0.58568 2.94427,2.05732 3.6608,3.27031 1.23956,2.0984 1.2298,2.24448 -0.20102,3.01023 -1.03317,0.55294 -3.4983,0.55471 -7.87697,0.005 -6.09,-0.76361 -6.51708,-0.7145 -9.61231,1.10545 -1.78153,1.04751 -4.8158,3.16117 -6.74282,4.69704 -4.24068,3.37987 -7.03615,3.6171 -9.26302,0.78609 z m 16.70268,-15.15511 c 1.24288,-1.37335 1.28833,-1.7084 0.31532,-2.32386 -1.75609,-1.11077 -2.17368,-0.91925 -3.47272,1.5928 -1.13423,2.19336 -1.11907,2.33579 0.24863,2.33579 0.80109,0 2.11004,-0.72213 2.90877,-1.60473 z m 101.74906,3.03602 c -1.15562,-1.1556 -1.28163,-5.03615 -0.18556,-5.71357 0.42823,-0.26465 0.77621,-1.7744 0.77327,-3.35498 -0.004,-2.4541 -0.43093,-3.15588 -2.91973,-4.80563 -1.60291,-1.06253 -4.8686,-3.60269 -7.25707,-5.6448 -2.38847,-2.04213 -4.57826,-3.71295 -4.86622,-3.71295 -0.28794,0 -0.52353,0.71306 -0.52353,1.58458 0,1.30442 -0.25643,1.44734 -1.45041,0.80836 -0.79773,-0.42693 -1.85581,-1.75498 -2.35132,-2.95123 -0.4955,-1.19624 -1.944,-2.87388 -3.21892,-3.72807 -1.2749,-0.85421 -2.31901,-1.79956 -2.32025,-2.10079 -0.003,-0.79812 -6.34764,-6.91651 -9.524,-9.18473 -1.49919,-1.07057 -4.43727,-3.42588 -6.52909,-5.23404 -16.31201,-14.10006 -16.95805,-14.31508 -20.69069,-6.88626 -0.87504,1.74157 -2.13258,3.78245 -2.79455,4.53532 -1.11134,1.26396 -1.31029,1.27223 -2.59681,0.108 -1.28994,-1.16737 -1.59821,-1.13425 -4.1559,0.44649 -1.51943,0.93906 -2.76262,2.16638 -2.76262,2.72738 0,4.01552 -27.38193,0.81386 -39.23451,-4.58752 -5.06286,-2.30723 -7.96389,-4.75411 -10.23989,-8.63691 -0.68108,-1.1619 -1.09168,-1.23621 -2.54198,-0.46002 -2.28163,1.22109 -2.64456,0.22557 -2.26867,-6.223 0.16545,-2.8386 -0.17435,-6.60467 -0.78885,-8.74282 -1.37441,-4.78214 -0.42123,-6.33596 3.44212,-5.61119 2.34348,0.43964 2.58036,0.31124 2.58036,-1.39863 0,-1.68817 -0.39884,-1.92102 -3.86014,-2.25361 -4.47472,-0.42996 -8.29662,-2.96492 -10.4599,-6.93774 -1.33906,-2.45916 -7.83711,-8.22768 -10.54434,-9.36054 -2.617425,-1.0953 -17.958284,-14.05467 -17.958284,-15.17047 0,-1.9835 4.66865,-0.43629 8.251911,2.73472 9.262343,8.19674 21.392843,17.21293 23.173143,17.22381 0.36884,0.002 0.44306,-1.20881 0.16495,-2.69126 -0.61284,-3.26671 1.49887,-5.86917 4.76239,-5.86917 1.15186,0 4.04238,-0.3979 6.4234,-0.88421 2.91752,-0.59589 6.23325,-0.65878 10.16859,-0.19288 l 5.83946,0.69132 -0.21148,2.33402 c -0.34866,3.84825 -2.58974,9.06883 -5.95615,13.87481 -1.74652,2.49339 -3.59986,5.29633 -4.11855,6.22874 -0.51869,0.93242 -1.92015,1.87285 -3.11438,2.08985 -2.14997,0.39066 -2.17641,0.46722 -2.68942,7.78595 -0.65176,9.29824 -0.43605,10.11647 2.66682,10.11647 1.91603,0 3.26989,0.86865 6.37093,4.08762 3.18335,3.30442 5.05671,4.48274 9.77731,6.14979 8.11962,2.86741 12.24528,3.29286 13.27492,1.36894 0.66742,-1.24707 1.69341,-1.48736 6.41197,-1.50173 6.35247,-0.0193 10.02793,-1.36348 16.42171,-6.00561 5.98079,-4.34224 6.29038,-4.91719 3.82589,-7.10489 -1.72209,-1.52868 -2.6244,-1.76207 -5.36176,-1.38687 -1.81016,0.24811 -6.00176,-0.0675 -9.31465,-0.70137 -5.78477,-1.1068 -6.06556,-1.0923 -7.08711,0.36616 -0.68156,0.97307 -1.82896,1.4598 -3.19393,1.35488 -1.70085,-0.13073 -2.13024,-0.5506 -2.13024,-2.08298 0,-1.30496 0.49841,-2.0107 1.55719,-2.20495 0.85646,-0.15713 2.16133,-0.82122 2.89972,-1.47577 1.07102,-0.9494 2.44886,-1.08107 6.8127,-0.65107 4.5851,0.4518 5.47016,0.34986 5.47016,-0.63007 0,-0.643 -0.35037,-1.38562 -0.77859,-1.65029 -0.42823,-0.26466 -0.7786,-0.81089 -0.7786,-1.21384 0,-1.44272 3.15778,-0.69154 6.9803,1.66047 2.8805,1.77239 4.3477,2.2396 5.65651,1.80127 0.97195,-0.32552 2.52761,-0.50508 3.45705,-0.39903 1.51292,0.17263 1.74373,-0.28093 2.20435,-4.33169 0.60036,-5.27947 0.60062,-5.28434 0.4803,-8.70185 l -0.0922,-2.62015 -4.44962,0.55595 c -2.44729,0.30577 -5.13545,0.68802 -5.97368,0.84945 -2.63097,0.50668 -5.14858,-0.51481 -5.14858,-2.08897 0,-1.26206 0.59905,-1.47278 4.18694,-1.47278 2.901,0 4.50681,-0.38545 5.22847,-1.25498 0.57285,-0.69025 1.71171,-1.5029 2.53078,-1.80589 1.37797,-0.50975 1.30107,-0.76519 -1.0295,-3.41958 -5.18897,-5.90989 -10.94197,-6.61275 -17.66687,-2.15836 -3.69736,2.44904 -6.02176,3.01237 -6.85651,1.66174 -0.51516,-0.83356 2.28289,-3.52057 6.96538,-6.68892 2.7374,-1.85225 3.63094,-2.04824 7.80883,-1.71288 6.26633,0.503 10.62765,2.85191 14.20441,7.65016 l 2.92503,3.92395 3.72616,-0.5103 c 16.80298,-2.30113 62.56539,-2.17189 68.29378,0.19289 0.64235,0.26517 2.86347,0.57334 4.93584,0.68483 2.07237,0.11147 3.98925,0.42398 4.25972,0.69445 0.73277,0.73277 -1.61895,1.98292 -2.9668,1.57713 -6.47061,-1.94811 -53.01184,-3.00594 -58.44316,-1.32834 -1.47206,0.45468 -5.97107,1.18549 -9.99781,1.62402 -4.02674,0.43853 -7.58049,1.07647 -7.89723,1.41765 -0.31675,0.34117 -0.35064,3.74137 -0.0752,7.556 0.38222,5.29571 0.77674,6.97956 1.66848,7.12123 0.64234,0.10208 5.3723,1.43809 10.51102,2.96898 5.13872,1.53089 11.97089,3.45785 15.18259,4.28212 3.21169,0.82428 10.56941,2.77683 16.35046,4.33901 5.78107,1.56218 12.61323,3.36334 15.18259,4.00258 9.45698,2.35284 23.25937,6.67044 24.82136,7.7645 0.88442,0.61947 2.36716,1.12631 3.295,1.12631 0.92785,0 2.51414,0.68907 3.52509,1.53128 2.58407,2.15275 0.57532,1.99468 -5.16925,-0.40675 -2.56937,-1.07408 -6.59859,-2.44146 -8.95384,-3.03861 -2.35524,-0.59715 -9.88814,-2.5129 -16.73977,-4.25723 -6.85162,-1.74434 -13.17575,-3.17158 -14.05362,-3.17167 -0.87787,-9e-5 -1.92896,-0.31464 -2.33578,-0.699 -0.40682,-0.38436 -2.14113,-0.87121 -3.85404,-1.08186 -2.82254,-0.34714 -23.31217,-5.48279 -29.97074,-7.51208 -2.48407,-0.75706 -8.56967,-1.17002 -8.56967,-0.58152 0,0.13607 4.64236,5.01792 10.31636,10.84854 5.67401,5.83062 14.27261,14.77124 19.10802,19.86806 4.83539,5.09682 11.20218,11.09953 14.14841,13.33938 5.19885,3.95237 5.4217,4.0391 7.55883,2.94201 1.45746,-0.74818 3.54585,-0.99906 6.17615,-0.74194 2.29843,0.22467 4.6861,0.008 5.6627,-0.51525 1.54825,-0.82859 1.64709,-1.30909 1.18896,-5.78059 -0.48866,-4.76961 -0.44571,-4.92227 1.95277,-6.94046 3.85766,-3.246 7.3802,-3.90776 10.62144,-1.99538 1.47561,0.87064 2.68294,1.7382 2.68294,1.92792 0,0.80655 -2.9142,3.29247 -5.25551,4.48314 -2.26646,1.1526 -2.53044,1.63814 -2.53044,4.65434 0,3.33446 -1.19753,8.02592 -2.38495,9.34329 -0.33838,0.37542 -2.48035,1.10259 -4.75995,1.61592 -2.40966,0.54264 -4.22881,1.39766 -4.34561,2.04251 -0.11889,0.65642 1.70852,2.1545 4.47692,3.67011 4.59025,2.51301 5.89775,4.0571 3.43547,4.0571 -0.68329,0 -2.17236,-0.65477 -3.30902,-1.45505 -4.21543,-2.96786 -5.0056,-2.78378 -7.12754,1.66051 -2.00614,4.20174 -4.14344,5.46138 -6.0432,3.56162 z M 214.5582,688.96533 c -1.6308,-1.19247 -2.36983,-1.06145 -1.54459,0.27385 0.28228,0.45671 1.08506,0.83039 1.78398,0.83039 1.06275,0 1.02357,-0.18075 -0.23939,-1.10424 z m -4.13916,-4.16189 c -1.16713,-2.1808 -12.51599,-12.64154 -13.71481,-12.64154 -2.78374,0 -1.3891,1.89985 5.63046,7.67005 7.78515,6.39951 9.3703,7.37431 8.08435,4.97149 z m -79.27293,-39.90477 c 1.20375,-1.70147 2.25485,-4.05896 2.33578,-5.23889 0.12724,-1.85493 -0.11629,-2.11813 -1.79933,-1.94448 -2.52849,0.26085 -7.00734,2.63879 -7.00734,3.72038 0,0.46312 0.51441,1.52215 1.14313,2.35339 0.62872,0.83123 1.15427,2.12449 1.16789,2.87388 0.0413,2.27113 1.84663,1.50544 4.15987,-1.76428 z m -7.68906,58.80215 c -0.28056,-1.49556 -0.30955,-3.24186 -0.0645,-3.88066 0.24512,-0.6388 -0.15201,-2.2029 -0.88253,-3.47577 -1.60511,-2.79672 -0.76583,-4.00413 2.85485,-4.10707 3.02648,-0.0861 6.31762,2.76129 6.31762,5.46571 0,1.7604 -5.71022,8.71701 -7.15522,8.71701 -0.30809,0 -0.78972,-1.22364 -1.07029,-2.71922 z m -52.42363,-25.2435 c -1.584809,-1.0035 -0.431267,-3.18104 1.685142,-3.18104 0.998366,0 2.21852,-0.40331 2.711454,-0.89625 0.492945,-0.49294 2.402444,-1.15605 4.243342,-1.4736 6.907989,-1.1916 12.740905,-2.46081 14.247397,-3.10016 5.706142,-2.42167 6.918515,-1.12407 1.751837,1.87498 -3.720079,2.15936 -10.672045,4.61159 -17.915031,6.31935 -5.728656,1.35072 -5.352583,1.32519 -6.724141,0.45672 z m 225.9686,-1.29717 c -0.45243,-1.17902 0.38955,-4.75889 2.45745,-10.4484 4.58179,-12.60611 4.55015,-36.42894 -0.0594,-44.67622 -3.57824,-6.40218 -6.24872,-7.84517 -8.10383,-4.37887 -1.05709,1.97517 -4.42534,2.40073 -6.39269,0.80767 -2.01965,-1.63542 -1.44863,-2.68367 2.58195,-4.73993 1.70111,-0.86783 3.41412,-2.42269 3.8067,-3.45525 0.39257,-1.03256 1.77817,-2.42779 3.07911,-3.10053 2.69254,-1.39237 7.94419,-7.72286 10.30574,-12.42287 0.87557,-1.74258 2.04993,-3.69387 2.60969,-4.33621 1.48391,-1.70283 4.43652,-9.97019 3.88149,-10.86825 -0.2606,-0.42167 0.0725,-1.60047 0.74024,-2.61956 1.01529,-1.54954 1.23773,-5.34541 1.35869,-23.18517 0.1304,-19.23279 -7.8e-4,-21.73456 -1.33551,-25.41989 -0.81408,-2.24818 -1.84888,-4.12474 -2.29957,-4.17012 -2.62369,-0.26416 -6.51171,0.50739 -14.83414,2.94371 -13.53181,3.96131 -13.69103,4.01329 -14.67409,4.79056 -0.49378,0.39041 -2.29926,1.1606 -4.01216,1.71153 -3.13762,1.00917 -8.02019,3.82502 -10.90032,6.28637 -0.85645,0.73193 -3.30902,2.29791 -5.45015,3.47996 -2.14114,1.18206 -5.31483,3.21818 -7.05266,4.52473 -3.83061,2.87993 -9.68259,11.1989 -9.69903,13.78778 -0.007,1.03228 -0.33554,2.38848 -0.73107,3.01379 -0.61569,0.97338 -0.94897,0.92892 -2.3169,-0.30902 -2.18846,-1.98054 -5.51653,-7.79997 -5.45073,-9.53109 0.0653,-1.71591 6.91154,-7.50225 16.56671,-14.00178 3.91957,-2.63851 8.11201,-5.70423 9.31656,-6.8127 1.20454,-1.10846 2.58717,-2.0154 3.07252,-2.0154 0.48536,0 2.30276,-0.93073 4.03868,-2.06828 1.73593,-1.13756 4.03215,-2.64203 5.10271,-3.34328 2.72824,-1.78706 13.01514,-6.26734 14.39001,-6.26734 0.62713,0 2.81383,-0.75422 4.85936,-1.67602 17.26483,-7.7803 20.424,-8.24711 22.48183,-3.32204 0.58786,1.40697 1.86227,3.11392 2.832,3.79321 l 1.76314,1.23507 -0.25066,24.20615 c -0.24783,23.93346 -0.23162,24.22641 1.43841,26.00406 2.05557,2.18808 1.63999,5.08691 -1.36063,9.49079 -1.9607,2.87766 -8.00236,14.49055 -8.00236,15.38165 0,1.17995 -6.56617,10.65826 -7.86523,11.3535 -2.11225,1.13044 -1.82947,3.76987 0.85789,8.0074 1.28468,2.02572 2.33794,3.93376 2.34058,4.24006 0.002,0.30628 0.51966,1.54403 1.14895,2.75053 2.87588,5.51377 2.08391,26.72513 -1.48789,39.85043 -3.25626,11.96578 -4.47669,14.99609 -6.39071,15.86818 -1.53886,0.70115 -1.97968,0.63412 -2.36074,-0.35891 z M 94.310049,657.3311 c -2.783468,-0.31827 -9.090084,-0.82502 -14.014693,-1.12611 -6.724305,-0.41111 -9.192886,-0.85163 -9.91388,-1.76914 -0.738574,-0.9399 -0.748531,-1.47659 -0.04316,-2.32649 1.043866,-1.25777 8.729087,-0.84383 19.689501,1.06052 3.425806,0.59523 7.554949,1.08272 9.175871,1.0833 1.620912,5.8e-4 3.853162,0.59473 4.960562,1.32032 1.8524,1.21374 1.89691,1.36505 0.55655,1.89177 -1.71163,0.67261 -3.56365,0.64873 -10.410723,-0.13417 z m 66.557921,-2.33562 c -0.71187,-2.2429 0.92646,-3.8556 3.91687,-3.8556 3.34204,0 4.27418,2.11738 1.77779,4.0383 -2.44422,1.88077 -5.06644,1.79664 -5.69466,-0.1827 z m 40.6934,-0.0679 c -2.39815,-0.89949 -2.74163,-1.83348 -0.92996,-2.52868 0.66615,-0.25563 11.89236,-0.23627 24.94713,0.043 20.69167,0.44266 25.62815,0.89401 24.30036,2.2218 -0.76441,0.76442 -46.31971,1.01318 -48.31753,0.26385 z m -8.57426,-21.89002 c -3.26535,-2.92211 -3.69716,-3.6792 -3.69314,-6.47504 0.0152,-10.62111 3.69138,-17.46671 9.37974,-17.46671 3.55741,0 5.4181,1.92489 5.4181,5.60504 0,3.72139 -3.52084,19.09131 -4.69832,20.51008 -1.44195,1.73744 -2.39904,1.41275 -6.40638,-2.17337 z m -53.50044,-7.42001 -1.68362,-1.36332 1.80596,-2.19889 c 4.98015,-6.06366 10.29543,-10.62375 12.38314,-10.62375 2.32688,0 1.78252,2.22312 -1.42868,5.83469 -1.60585,1.80606 -3.75968,4.4007 -4.78627,5.76586 -2.70042,3.59102 -4.25806,4.23121 -6.29053,2.58541 z m 10.88215,-17.56266 c 0,-1.84317 1.46989,-3.56635 14.53354,-17.03794 4.6169,-4.76107 7.41983,-7.02011 9.38274,-7.5621 1.53949,-0.42507 3.09473,-0.59014 3.45609,-0.3668 1.42539,0.88094 0.56524,3.27804 -1.48413,4.13592 -2.24825,0.94117 -7.3311,5.72332 -9.45593,8.89654 -0.68735,1.02649 -3.27813,4.54105 -5.75729,7.81012 -4.28233,5.64676 -4.66166,5.94376 -7.59129,5.94376 -2.71286,0 -3.08373,-0.21882 -3.08373,-1.8195 z M 137.9387,597.46808 c -1.4569,-2.72226 -0.89298,-6.26222 1.56721,-9.83798 2.15318,-3.12954 2.66795,-3.44931 5.5529,-3.44931 4.94839,0 9.98157,3.70393 9.98157,7.34547 0,1.36932 -3.48656,1.72796 -4.28227,0.44048 -0.26465,-0.42823 -1.6869,-0.7786 -3.16055,-0.7786 -2.40885,0 -2.8955,0.3919 -4.82026,3.88175 -2.29747,4.16562 -3.55826,4.79052 -4.8386,2.39819 z m 134.9326,-4.15028 c -0.92579,-0.52897 -3.20318,-2.04252 -5.06087,-3.36343 -9.50622,-6.75945 -14.00497,-9.66655 -14.95907,-9.66655 -0.58043,0 -1.9785,-0.72616 -3.10681,-1.61369 -3.61253,-2.84162 -2.24829,-6.17224 2.52817,-6.17224 4.09635,0 16.96225,8.89504 21.59257,14.92836 1.78544,2.32643 2.74226,4.69307 2.33084,5.76521 -0.5172,1.34783 -1.13989,1.37075 -3.32483,0.12234 z m -89.81715,-4.87357 c -0.54169,-0.65269 -0.7628,-1.40876 -0.49139,-1.68019 0.27142,-0.27142 0.14111,-0.91809 -0.28959,-1.43703 -0.57602,-0.69409 0.30067,-1.46645 3.31579,-2.92123 11.37311,-5.48748 11.30367,-5.468 17.8802,-5.01722 6.19241,0.42443 9.18718,1.77457 9.18718,4.14187 0,1.59372 -0.99721,1.85658 -8.29855,2.1874 -6.67775,0.30256 -7.71231,0.6005 -15.3275,4.4141 -3.61325,1.80949 -4.68703,1.86559 -5.97614,0.3123 z m 113.25423,-4.56208 c -0.25619,-1.02071 0.11779,-3.56087 0.83107,-5.64482 1.12198,-3.278 1.21626,-5.73145 0.69914,-18.19296 -0.32875,-7.92219 -0.65605,-14.75435 -0.72732,-15.18258 -0.0712,-0.42822 -0.18297,-2.61802 -0.24819,-4.86621 -0.11635,-4.01044 -0.16337,-4.08762 -2.49004,-4.08762 -6.41019,0 -18.93371,9.88944 -31.88098,25.17546 -2.78034,3.28257 -5.45278,5.9683 -5.93876,5.9683 -1.43189,0 -3.04251,-2.44624 -2.74947,-4.17595 0.3365,-1.98623 13.21213,-16.72391 19.09219,-21.85324 5.29364,-4.6178 10.52638,-7.68065 15.79525,-9.24534 2.17835,-0.6469 4.96906,-1.68712 6.20158,-2.31162 1.23252,-0.62448 3.50629,-1.36421 5.05283,-1.64384 4.30969,-0.77922 4.95431,0.52205 4.11122,8.29907 -0.3819,3.52286 -0.57901,13.31088 -0.43802,21.75116 0.16281,9.74687 -0.0789,16.99079 -0.66228,19.85415 -1.34546,6.60301 -5.55723,10.50296 -6.64822,6.15604 z m -134.46196,-9.87952 c -3.46351,-1.82832 -7.85891,-8.15368 -9.15838,-13.17966 -0.9214,-3.56371 -6.45667,-12.73456 -8.92031,-14.7792 -2.28649,-1.89763 -6.87599,-9.34066 -11.05087,-17.92175 -2.45842,-5.0531 -5.71984,-10.21902 -8.53994,-13.52684 -2.50941,-2.94339 -5.89853,-7.14491 -7.53139,-9.33672 -1.63285,-2.19181 -4.08981,-5.21429 -5.4599,-6.7166 -2.28829,-2.50913 -8.82514,-10.88937 -13.889126,-17.80588 -1.140924,-1.55829 -4.038077,-5.98657 -6.438122,-9.84061 -2.400046,-3.85405 -6.620397,-10.16066 -9.378552,-14.01469 -2.758165,-3.85404 -5.466888,-7.79172 -6.019386,-8.75038 -0.552498,-0.95867 -2.931562,-4.74222 -5.286808,-8.4079 -2.355249,-3.66567 -4.983004,-7.80008 -5.839458,-9.18759 -0.856455,-1.38749 -3.95309,-6.18795 -6.881427,-10.66765 -6.857975,-10.49123 -21.118867,-36.33775 -24.899594,-45.12816 -4.052283,-9.42182 -6.803493,-14.66603 -8.655718,-16.49914 -2.626287,-2.59917 -2.469544,-5.41792 0.339149,-6.09887 2.501463,-0.60647 8.089111,1.9308 13.004289,5.90508 6.380694,5.15925 22.51725,21.65047 23.970059,24.49693 0.759912,1.48886 2.82462,4.29929 4.588232,6.24538 1.763611,1.94611 4.082495,4.57709 5.153066,5.84663 14.445427,17.13024 30.546836,33.19533 42.349266,42.25371 1.49361,1.14635 4.81229,3.74853 7.37484,5.7826 2.56256,2.03408 5.22003,3.69833 5.9055,3.69833 0.68546,0 1.5481,0.7938 1.91696,1.76399 0.36887,0.9702 4.84643,5.61257 9.95012,10.31637 5.1037,4.70381 11.36261,10.95519 13.9087,13.89197 2.54609,2.93678 6.89604,7.77454 9.66656,10.75059 4.44714,4.77702 5.33163,5.38562 7.54953,5.19453 3.25188,-0.28016 3.88594,0.44094 2.56235,2.91409 -0.92357,1.72569 -0.90921,2.29763 0.10263,4.08645 0.91704,1.62128 1.76538,2.07991 3.84723,2.07991 2.46989,0 2.70572,0.21397 3.1354,2.84484 0.35736,2.18799 2.03842,4.52503 7.28063,10.12172 3.7488,4.00229 7.3319,8.25935 7.96246,9.46015 1.75249,3.33733 3.83432,5.68213 12.92837,14.5613 4.60788,4.49901 8.37797,8.77608 8.37797,9.50458 0,0.72851 1.22628,2.303 2.72506,3.49888 3.62035,2.88869 3.6354,4.89941 0.0367,4.89941 -3.56468,0 -5.84467,-1.05053 -13.27274,-6.11554 -7.14675,-4.87317 -8.14752,-5.89047 -7.65345,-7.77979 0.58101,-2.2218 -17.84097,-25.9038 -22.10249,-28.4134 -0.70487,-0.41511 -1.61931,-0.19347 -2.50361,0.6068 -1.48516,1.34405 -4.87328,1.73853 -7.47666,0.87053 -1.28138,-0.42724 -1.83846,0.003 -2.90713,2.24377 -1.23119,2.58183 -1.56721,2.7723 -4.89076,2.7723 -3.99412,0 -3.90618,-0.48417 -1.29121,7.10975 1.15233,3.34636 1.14555,3.7529 -0.0941,5.6448 -0.83136,1.26883 -2.04678,2.03874 -3.21841,2.03874 -1.03543,0 -2.09913,0.35037 -2.36378,0.77859 -0.26467,0.42823 -1.65029,0.77859 -3.07917,0.77859 -2.26514,0 -2.91774,-0.49833 -5.09413,-3.88995 -2.80886,-4.37721 -4.41336,-4.54839 -2.63017,-0.28059 1.79336,4.2921 4.31741,7.93767 9.62594,13.90297 6.3437,7.12856 9.34482,11.53788 10.53443,15.47746 2.07705,6.87848 6.77718,12.16263 10.81838,12.16263 2.52507,0 6.02131,1.6054 5.68613,2.61095 -0.39862,1.19584 -5.239,2.71772 -8.73235,2.74556 -1.71291,0.0136 -4.43125,-0.67034 -6.04077,-1.51998 z m -26.31279,-67.38967 c -1.17831,-2.74889 -1.33349,-3.85474 -0.65558,-4.67156 1.06172,-1.2793 4.71309,-1.41468 5.90868,-0.21909 1.6189,1.61888 15.61369,-2.0857 18.73056,-4.95819 2.31263,-2.1313 2.21547,-2.95028 -0.67313,-5.67429 -1.33374,-1.25774 -5.14931,-5.6153 -8.47904,-9.68345 -3.32975,-4.06815 -7.3286,-8.61353 -8.88635,-10.10084 l -2.83226,-2.7042 -4.14814,4.21961 c -2.28148,2.32078 -5.33743,4.64971 -6.791,5.17539 -6.01201,2.17425 -12.23555,0.45287 -11.13392,-3.07954 0.71522,-2.29332 1.45017,-2.65157 6.68646,-3.25931 6.28244,-0.72915 11.69534,-4.59421 10.56377,-7.54302 -0.24336,-0.6342 -2.41886,-2.84157 -4.83444,-4.90526 -4.13414,-3.5319 -4.46966,-3.67444 -5.71553,-2.42797 -0.95257,0.95301 -1.28474,2.46203 -1.18505,5.38338 0.12521,3.66905 -0.0893,4.2405 -2.23219,5.94564 -1.30389,1.03756 -4.26195,2.51039 -6.57346,3.27296 -2.31152,0.76258 -4.97625,1.92828 -5.92165,2.59046 -0.94538,0.66217 -2.27158,1.20395 -2.94711,1.20395 -0.67553,0 -1.63691,0.40868 -2.13641,0.90819 -0.69185,0.69183 -0.4971,1.32478 0.81753,2.65714 0.94913,0.96193 2.42644,2.70287 3.28289,3.86874 0.85646,1.16586 2.79483,3.5614 4.30749,5.32343 1.51267,1.76202 3.76059,4.70786 4.99539,6.54631 1.23479,1.83844 2.63695,3.59027 3.11592,3.89296 0.47896,0.30269 2.14281,2.30846 3.69745,4.45725 4.19227,5.7945 5.49022,6.78741 7.74961,5.92838 1.32051,-0.50204 2.47291,-0.39926 3.80721,0.33959 2.97287,1.64616 3.13631,1.37197 1.4823,-2.48666 z m 32.59734,-4.76849 c -0.32648,-1.71293 -3.74746,-2.35468 -3.74746,-0.70297 0,0.63644 0.43796,1.33387 0.97324,1.54986 1.98533,0.8011 3.02766,0.4829 2.77422,-0.84689 z m -67.98147,-32.117 c -0.264651,-0.42823 -0.810884,-0.7786 -1.213837,-0.7786 -0.402952,0 -0.732637,0.35037 -0.732637,0.7786 0,0.42822 0.546222,0.77858 1.21384,0.77858 0.667624,0 0.997304,-0.35036 0.732634,-0.77858 z m -2.848187,-6.22876 1.726917,-2.33578 -1.994223,0 c -2.107054,0 -3.190484,1.5542 -2.442391,3.50367 0.603322,1.57224 0.721487,1.5213 2.709697,-1.16789 z m 20.131037,-8.47133 3.26817,-2.95732 -3.65746,-3.49188 c -2.0116,-1.92054 -7.15789,-6.44402 -11.43622,-10.0522 C 88.75411,424.31301 85.344844,421.27532 80.861425,416.47757 l -3.716212,-3.97676 -2.123243,2.35956 c -2.039739,2.26674 -5.626932,2.94433 -5.626932,1.06287 0,-0.41335 -1.051098,0.4456 -2.335785,1.90877 -1.284676,1.46316 -2.335782,2.82934 -2.335782,3.03597 0,0.2066 1.039868,1.56182 2.310819,3.01158 1.270952,1.44977 3.460751,4.67886 4.86622,7.17577 1.405459,2.4969 3.294425,5.47502 4.197693,6.61804 0.903258,1.14303 2.244541,3.25252 2.98064,4.68777 1.443543,2.8147 1.067974,2.77537 8.613163,0.90199 4.40875,-1.09464 7.760084,-2.51481 10.306795,-4.36767 1.614394,-1.17454 1.779143,-1.1715 2.244599,0.0414 0.67248,1.75245 -1.210284,5.11591 -3.310767,5.91451 -1.792353,0.68146 -3.203113,2.29682 -2.005899,2.29682 0.38972,0 2.405325,-0.90217 4.479135,-2.00483 4.220681,-2.24415 6.831741,-2.14066 11.060011,0.43846 2.08944,1.2745 2.53043,2.02495 2.53043,4.30626 0,2.33215 -0.42475,3.01339 -2.72508,4.37061 -2.83969,1.67546 -3.72657,3.42779 -1.36254,2.69217 0.74939,-0.2332 1.88809,-0.087 2.53043,0.3249 1.82191,1.16828 2.4975,0.91482 5.99323,-2.24844 z M 63.944884,397.65066 c 0,-0.24539 -3.065714,-4.34173 -6.812705,-9.10298 C 47.987383,376.9275 37.57582,366.5904 36.30086,367.86535 c -0.189537,0.18955 0.667498,2.4268 1.904548,4.97167 1.237029,2.54489 2.892114,6.0006 3.677952,7.67938 4.454053,9.51525 4.351244,9.40431 8.723727,9.41447 3.774933,0.009 4.21907,0.23366 8.073032,4.08762 3.744472,3.74446 5.264765,4.79332 5.264765,3.63217 z M 176.8451,552.34132 c -3.23088,-0.89898 -2.91547,-3.03071 0.53131,-3.59098 4.69819,-0.76367 11.12051,-3.34147 13.67038,-5.48706 2.67002,-2.24667 3.98009,-2.15002 4.34305,0.32041 0.50095,3.4095 -8.59247,9.5306 -13.92843,9.37572 -1.47065,-0.0427 -3.54799,-0.32082 -4.61631,-0.61809 z" id="path4147" ns1:connector-curvature="0" />
  </g>
</svg>