<?xml version="1.0" encoding="UTF-8"?>
<svg xmlns="http://www.w3.org/2000/svg" xmlns:xlink="http://www.w3.org/1999/xlink" id="Layer_1" xml:space="preserve" viewBox="0 0 324.025 436.023" version="1.0">
<path id="path3" d="m28.692 248.01c7.531 0 13.644 2.37 13.644 5.29s-6.113 5.3-13.644 5.3c-7.532 0-13.644-2.38-13.644-5.3s6.113-5.29 13.644-5.29" stroke="#010101" stroke-miterlimit="10" stroke-width="4" fill="#fff" />
<path id="path5" d="m58.453 72.092c11.367 0 20.592 10.596 20.592 23.652s-9.226 23.656-20.592 23.656-20.592-10.6-20.592-23.657c-0.001-13.055 9.224-23.651 20.592-23.651" stroke="#010101" stroke-miterlimit="10" stroke-width="4" fill="#fff" />
<path id="path7" d="m247.09 74.372c11.37 0 20.59 10.596 20.59 23.652s-9.22 23.656-20.59 23.656c-11.36 0-20.59-10.6-20.59-23.656s9.23-23.652 20.59-23.652" stroke="#010101" stroke-miterlimit="10" stroke-width="4" fill="#fff" />
<path id="path9" d="m276.85 250.41c7.53 0 13.65 2.37 13.65 5.29s-6.11 5.3-13.65 5.3c-7.53 0-13.64-2.38-13.64-5.3s6.11-5.29 13.64-5.29" stroke="#010101" stroke-miterlimit="10" stroke-width="4" fill="#fff" />
<path id="path11" d="m154.81 2c39.03 0 70.71 31.675 70.71 70.704 0 39.026-31.68 70.706-70.71 70.706s-70.701-31.68-70.701-70.706c-0.001-39.029 31.671-70.704 70.701-70.704" stroke="#010101" stroke-miterlimit="10" stroke-width="4" fill="#fff" />
<path id="path13" d="m62.316 100.02c-46.188 66.78 0 267.19 0 267.19h183.7s45.65-200.41 0-267.19c-46.18-66.821-138.06-66.821-183.7 0z" stroke="#010101" stroke-miterlimit="10" stroke-width="4" fill="#fff" />
<path id="path15" d="m40.068 392.26c0 22.29 13.896 41.76 116.89 41.76 105.77 0 116.89-19.47 116.89-41.76 0-22.24-5.58-41.76-116.89-41.76-119.66 0-116.89 19.52-116.89 41.76z" stroke="#010101" stroke-miterlimit="10" stroke-width="4" fill="#fff" />
<path id="path17" d="m69.013 358.82c15.977 0 28.944 14.34 28.944 32 0 17.67-12.967 32.01-28.944 32.01s-28.944-14.34-28.944-32.01c-0.001-17.66 12.967-32 28.944-32" stroke="#010101" stroke-miterlimit="10" stroke-width=".036" fill="#010101" />
<path id="path19" d="m66.78 363.9h3.888v15.55h-3.888v-15.55z" stroke="#010101" stroke-miterlimit="10" stroke-width=".036" fill="#fff" />
<path id="path21" d="m43.957 392.84h15.588v-3.89h-15.588v3.89z" stroke="#010101" stroke-miterlimit="10" stroke-width=".036" fill="#fff" />
<path id="path23" d="m66.78 401.19h3.888v15.55h-3.888v-15.55z" stroke="#010101" stroke-miterlimit="10" stroke-width=".036" fill="#fff" />
<path id="path25" d="m77.904 392.84h15.588v-3.89h-15.588v3.89z" stroke="#010101" stroke-miterlimit="10" stroke-width=".036" fill="#fff" />
<path id="path27" d="m68.652 385.1c2.603 0 4.716 2.24 4.716 5 0 2.77-2.113 5.01-4.716 5.01-2.604 0-4.716-2.24-4.716-5.01 0-2.76 2.112-5 4.716-5" stroke="#010101" stroke-miterlimit="10" stroke-width=".036" fill="#fff" />
<path id="path29" d="m225.25 409.9c12.49 12.5 31.79 13.47 43.09 2.16 11.31-11.3 10.34-30.6-2.16-43.12-12.49-12.5-31.78-13.47-43.12-2.13-11.27 11.27-10.34 30.57 2.19 43.09z" stroke="#010101" stroke-miterlimit="10" stroke-width=".036" fill="#010101" />
<path id="path31" d="m225.04 371.92l11.01 11.02 2.77-2.77-11.01-11.02-2.77 2.77z" stroke="#010101" stroke-miterlimit="10" stroke-width=".036" fill="#fff" />
<path id="path33" d="m229.39 408.54l11.02-11.06-2.77-2.73-11.02 11.01 2.77 2.78z" stroke="#010101" stroke-miterlimit="10" stroke-width=".036" fill="#fff" />
<path id="path35" d="m251.42 398.28l11.02 11.01 2.74-2.73-11.02-11.02-2.74 2.74z" stroke="#010101" stroke-miterlimit="10" stroke-width=".036" fill="#fff" />
<path id="path37" d="m253.4 384.49l11.02-11.02-2.77-2.73-11.02 11.01 2.77 2.74z" stroke="#010101" stroke-miterlimit="10" stroke-width=".036" fill="#fff" />
<path id="path39" d="m241.56 392.37c1.98 1.94 5.04 2.05 6.91 0.22 1.84-1.87 1.77-4.94-0.21-6.91-1.95-1.95-5.04-2.02-6.88-0.18-1.84 1.83-1.76 4.93 0.18 6.87z" stroke="#010101" stroke-miterlimit="10" stroke-width=".036" fill="#fff" />
<path id="path41" d="m204.49 397.87c8.45 0 15.3 7.59 15.3 16.95s-6.85 16.96-15.3 16.96c-8.44 0-15.3-7.6-15.3-16.96s6.86-16.95 15.3-16.95" stroke="#010101" stroke-miterlimit="10" stroke-width=".036" fill="#010101" />
<path id="path43" d="m203.36 400.51h2.09v8.24h-2.09v-8.24z" stroke="#010101" stroke-miterlimit="10" stroke-width=".036" fill="#fff" />
<path id="path45" d="m191.3 415.84h8.25v-2.05h-8.25v2.05z" stroke="#010101" stroke-miterlimit="10" stroke-width=".036" fill="#fff" />
<path id="path47" d="m203.36 420.27h2.09v8.28h-2.09v-8.28z" stroke="#010101" stroke-miterlimit="10" stroke-width=".036" fill="#fff" />
<path id="path49" d="m209.27 415.84h8.24v-2.05h-8.24v2.05z" stroke="#010101" stroke-miterlimit="10" stroke-width=".036" fill="#fff" />
<path id="path51" d="m204.37 411.68c1.37 0 2.49 1.19 2.49 2.66 0 1.48-1.12 2.67-2.49 2.67s-2.48-1.19-2.48-2.67c0-1.47 1.11-2.66 2.48-2.66" stroke="#010101" stroke-miterlimit="10" stroke-width=".036" fill="#fff" />
<path id="path53" d="m161.17 428.19c6.63 6.66 16.85 7.17 22.83 1.19 5.97-5.98 5.43-16.2-1.19-22.82-6.63-6.63-16.85-7.17-22.83-1.19-5.97 6.01-5.43 16.2 1.19 22.82z" stroke="#010101" stroke-miterlimit="10" stroke-width=".036" fill="#010101" />
<path id="path55" d="m160.99 408.32l5.87 5.9 1.58-1.54-5.9-5.91-1.55 1.55z" stroke="#010101" stroke-miterlimit="10" stroke-width=".036" fill="#fff" />
<path id="path57" d="m163.33 427.22l5.9-5.9-1.18-1.16-5.87 5.91 1.15 1.15z" stroke="#010101" stroke-miterlimit="10" stroke-width=".036" fill="#fff" />
<path id="path59" d="m174.74 422.11l5.91 5.9 1.58-1.58-5.9-5.87-1.59 1.55z" stroke="#010101" stroke-miterlimit="10" stroke-width=".036" fill="#fff" />
<path id="path61" d="m175.93 414.62l5.91-5.87-1.19-1.19-5.9 5.91 1.18 1.15z" stroke="#010101" stroke-miterlimit="10" stroke-width=".036" fill="#fff" />
<path id="path63" d="m169.85 418.76c0.97 0.97 2.55 0.97 3.53 0 0.97-0.97 0.97-2.56 0-3.53-0.98-0.97-2.56-0.97-3.53 0s-0.97 2.56 0 3.53z" stroke="#010101" stroke-miterlimit="10" stroke-width=".036" fill="#fff" />
<path id="path65" d="m139.45 399.43c8.45 0 15.3 7.59 15.3 16.95s-6.85 16.96-15.3 16.96c-8.44 0-15.3-7.6-15.3-16.96s6.86-16.95 15.3-16.95" stroke="#010101" stroke-miterlimit="10" stroke-width=".036" fill="#010101" />
<path id="path67" d="m138.24 402.16h2.05v8.28h-2.05v-8.28z" stroke="#010101" stroke-miterlimit="10" stroke-width=".036" fill="#fff" />
<path id="path69" d="m126.18 417.54h8.24v-2.09h-8.24v2.09z" stroke="#010101" stroke-miterlimit="10" stroke-width=".036" fill="#fff" />
<path id="path71" d="m138.24 421.96h2.05v8.25h-2.05v-8.25z" stroke="#010101" stroke-miterlimit="10" stroke-width=".036" fill="#fff" />
<path id="path73" d="m144.14 417.54h8.25v-2.09h-8.25v2.09z" stroke="#010101" stroke-miterlimit="10" stroke-width=".036" fill="#fff" />
<path id="path75" d="m139.21 413.4c1.37 0 2.49 1.17 2.49 2.62s-1.12 2.63-2.49 2.63-2.48-1.18-2.48-2.63 1.11-2.62 2.48-2.62" stroke="#010101" stroke-miterlimit="10" stroke-width=".036" fill="#fff" />
<path id="path77" d="m97.165 426c6.625 6.62 16.845 7.16 22.825 1.15 5.97-5.98 5.43-16.2-1.19-22.83-6.62-6.62-16.85-7.13-22.823-1.15-5.977 5.98-5.436 16.17 1.188 22.83z" stroke="#010101" stroke-miterlimit="10" stroke-width=".036" fill="#010101" />
<path id="path79" d="m96.949 406.12l5.901 5.87 1.59-1.55-5.907-5.9-1.584 1.58z" stroke="#010101" stroke-miterlimit="10" stroke-width=".036" fill="#fff" />
<path id="path81" d="m99.325 424.99l5.905-5.87-1.19-1.19-5.903 5.91 1.188 1.15z" stroke="#010101" stroke-miterlimit="10" stroke-width=".036" fill="#fff" />
<path id="path83" d="m110.74 419.88l5.9 5.9 1.55-1.55-5.87-5.9-1.58 1.55z" stroke="#010101" stroke-miterlimit="10" stroke-width=".036" fill="#fff" />
<path id="path85" d="m111.92 412.42l5.91-5.9-1.19-1.19-5.9 5.91 1.18 1.18z" stroke="#010101" stroke-miterlimit="10" stroke-width=".036" fill="#fff" />
<path id="path87" d="m105.8 416.53c0.98 0.97 2.6 0.97 3.57 0s0.97-2.56 0-3.53-2.59-0.97-3.57 0c-0.97 0.97-0.97 2.56 0 3.53z" stroke="#010101" stroke-miterlimit="10" stroke-width=".036" fill="#fff" />
<path id="path89" d="m107.42 372.79h97.96v16.7h-97.96v-16.7z" stroke="#010101" stroke-miterlimit="10" stroke-width=".036" fill="#010101" />
<path id="path91" d="m114.08 376.68h6.12v10h-6.12v-10z" stroke="#010101" stroke-miterlimit="10" stroke-width=".036" fill="#fff" />
<path id="path93" d="m128.02 376.68h6.12v10h-6.12v-10z" stroke="#010101" stroke-miterlimit="10" stroke-width=".036" fill="#fff" />
<path id="path95" d="m140.83 376.68h6.12v10h-6.12v-10z" stroke="#010101" stroke-miterlimit="10" stroke-width=".036" fill="#fff" />
<path id="path97" d="m153.07 376.68h6.12v10h-6.12v-10z" stroke="#010101" stroke-miterlimit="10" stroke-width=".036" fill="#fff" />
<path id="path99" d="m166.43 376.14h6.12v10h-6.12v-10z" stroke="#010101" stroke-miterlimit="10" stroke-width=".036" fill="#fff" />
<path id="path101" d="m179.24 376.14h6.12v10h-6.12v-10z" stroke="#010101" stroke-miterlimit="10" stroke-width=".036" fill="#fff" />
<path id="path103" d="m191.48 376.14h6.12v10h-6.12v-10z" stroke="#010101" stroke-miterlimit="10" stroke-width=".036" fill="#fff" />
<path id="path105" stroke="#010101" fill="#fff" d="m72.36 269.25h26.712v76.25h-26.712v-76.25z" />
<g id="g107">
	<g id="g109">
		<defs id="defs111">
			<rect id="XMLID_1_" y="269.25" width="26.712" x="72.36" height="76.248" />
		</defs>
		<clipPath id="XMLID_15_">
			<use id="use115" xlink:href="#XMLID_1_" height="436.02301" width="324.02499" y="0" x="0" />
		</clipPath>
		<path id="path117" d="m0.013 347.02l78-78m-72 78l78-78m-72 78l78-78m-72 78l78-78m-72 78l77.997-78m-71.997 78l77.997-78m-71.997 78l77.997-78m-71.997 78l77.997-78m-71.997 78l77.997-78m-71.997 78l77.997-78m-71.997 78l77.997-78m-71.997 78l77.997-78m-71.997 78l77.997-78m-71.997 78l77.997-78m-71.997 78l77.997-78m-71.997 78l77.997-78m-71.997 78l77.997-78" clip-path="url(#XMLID_15_)" stroke="#010101" stroke-miterlimit="10" stroke-width=".036" fill="none" />
	</g>
</g>
<path id="path119" d="m72.36 269.25h26.712v76.25h-26.712v-76.25z" stroke="#010101" stroke-miterlimit="10" stroke-width=".036" fill="none" />
<path id="path121" fill="#fff" d="m199.26 268.68h12.24v32.86h-12.24v-32.86z" />
<g id="g123">
	<g id="g125">
		<defs id="defs127">
			<rect id="XMLID_3_" y="268.68" width="12.24" x="199.26" height="32.867" />
		</defs>
		<clipPath id="XMLID_16_">
			<use id="use131" xlink:href="#XMLID_3_" height="436.02301" width="324.02499" y="0" x="0" />
		</clipPath>
		<path id="path133" d="m162.01 305.02l42-42m-36 42l42-42m-36 42l42-42m-36 42l42-42m-36 42l42-42m-36 42l42-42m-36 42l42-42m-36 42l42-42m-36 42l42-42" clip-path="url(#XMLID_16_)" stroke="#010101" stroke-miterlimit="10" stroke-width=".036" fill="none" />
	</g>
</g>
<path id="path135" d="m199.26 268.68h12.24v32.86h-12.24v-32.86z" stroke="#010101" stroke-miterlimit="10" fill="none" />
<path id="path137" stroke="#010101" fill="#fff" d="m105.19 269.25h26.71v76.25h-26.71v-76.25z" />
<g id="g139">
	<g id="g141">
		<defs id="defs143">
			<rect id="XMLID_5_" y="269.25" width="26.712" x="105.19" height="76.248" />
		</defs>
		<clipPath id="XMLID_17_">
			<use id="use147" xlink:href="#XMLID_5_" height="436.02301" width="324.02499" y="0" x="0" />
		</clipPath>
		<path id="path149" d="m108.01 347.02l-77.997-78m83.997 78l-77.997-78m83.997 78l-77.997-78m83.997 78l-77.997-78m83.997 78l-77.997-78m83.997 78l-77.997-78m83.997 78l-77.997-78m83.997 78l-77.997-78m83.997 78l-77.997-78m83.997 78l-77.997-78m83.997 78l-77.997-78m83.997 78l-77.997-78m83.997 78l-78-78m84 78l-78-78m84 78l-78-78m84 78l-78-78m84 78l-78-78" clip-path="url(#XMLID_17_)" stroke="#010101" stroke-miterlimit="10" stroke-width=".036" fill="none" />
	</g>
</g>
<path id="path151" d="m105.19 269.25h26.71v76.25h-26.71v-76.25z" stroke="#010101" stroke-miterlimit="10" stroke-width=".036" fill="none" />
<path id="path153" fill="#fff" d="m137.48 269.25h26.72v76.25h-26.72v-76.25z" />
<g id="g155">
	<g id="g157">
		<defs id="defs159">
			<rect id="XMLID_7_" y="269.25" width="26.712" x="137.48" height="76.248" />
		</defs>
		<clipPath id="XMLID_18_">
			<use id="use163" xlink:href="#XMLID_7_" height="436.02301" width="324.02499" y="0" x="0" />
		</clipPath>
		<path id="path165" d="m60.013 347.02l77.997-78m-71.997 78l77.997-78m-71.997 78l77.997-78m-71.997 78l77.997-78m-71.997 78l77.997-78m-71.997 78l77.997-78m-71.997 78l77.997-78m-72 78l78-78m-72 78l78-78m-72 78l78-78m-72 78l78-78m-72 78l78-78m-72 78l78-78m-72 78l78-78m-72 78l78-78m-72 78l78-78m-72 78l78-78m-72 78l78-78" clip-path="url(#XMLID_18_)" stroke="#010101" stroke-miterlimit="10" stroke-width=".036" fill="none" />
	</g>
</g>
<path id="path167" d="m137.48 269.25h26.72v76.25h-26.72v-76.25z" stroke="#010101" stroke-miterlimit="10" fill="none" />
<path id="path169" fill="#fff" d="m169.2 268.68h26.71v76.28h-26.71v-76.28z" />
<g id="g171">
	<g id="g173">
		<defs id="defs175">
			<rect id="XMLID_9_" y="268.68" width="26.713" x="169.2" height="76.283" />
		</defs>
		<clipPath id="XMLID_19_">
			<use id="use179" xlink:href="#XMLID_9_" height="436.02301" width="324.02499" y="0" x="0" />
		</clipPath>
		<path id="path181" d="m174.01 347.02l-83.997-84m89.997 84l-83.997-84m89.997 84l-84-84m90 84l-84-84m90 84l-84-84m90 84l-84-84m90 84l-84-84m90 84l-84-84m90 84l-84-84m90 84l-84-84m90 84l-84-84m90 84l-84-84m90 84l-84-84m90 84l-84-84m90 84l-84-84m90 84l-84-84m90 84l-84-84m90 84l-84-84" clip-path="url(#XMLID_19_)" stroke="#010101" stroke-miterlimit="10" stroke-width=".036" fill="none" />
	</g>
</g>
<path id="path183" d="m169.2 268.68h26.71v76.28h-26.71v-76.28z" stroke="#010101" stroke-miterlimit="10" fill="none" />
<path id="path185" fill="#fff" d="m214.85 268.14h26.71v76.24h-26.71v-76.24z" />
<g id="g187">
	<g id="g189">
		<defs id="defs191">
			<rect id="XMLID_11_" y="268.14" width="26.711" x="214.85" height="76.248" />
		</defs>
		<clipPath id="XMLID_20_">
			<use id="use195" xlink:href="#XMLID_11_" height="436.02301" width="324.02499" y="0" x="0" />
		</clipPath>
		<path id="path197" d="m216.01 347.02l-84-84m90 84l-84-84m90 84l-84-84m90 84l-84-84m90 84l-84-84m90 84l-84-84m90 84l-84-84m90 84l-84-84m90 84l-84-84m90 84l-84-84m90 84l-84-84m90 84l-84-84m90 84l-84-84m90 84l-84-84m90 84l-84-84m90 84l-84-84m90 84l-84-84m90 84l-84-84m90 84l-84-84" clip-path="url(#XMLID_20_)" stroke="#010101" stroke-miterlimit="10" stroke-width=".036" fill="none" />
	</g>
</g>
<path id="path199" d="m214.85 268.14h26.71v76.24h-26.71v-76.24z" stroke="#010101" stroke-miterlimit="10" fill="none" />
<path id="path201" stroke="#010101" fill="#fff" d="m199.26 310.44h12.24v32.83h-12.24v-32.83z" />
<g id="g203">
	<g id="g205">
		<defs id="defs207">
			<rect id="XMLID_13_" y="310.44" width="12.24" x="199.26" height="32.832" />
		</defs>
		<clipPath id="XMLID_21_">
			<use id="use211" xlink:href="#XMLID_13_" height="436.02301" width="324.02499" y="0" x="0" />
		</clipPath>
		<path id="path213" d="m162.01 347.02l42-42m-36 42l42-42m-36 42l42-42m-36 42l42-42m-36 42l42-42m-36 42l42-42m-36 42l42-42m-36 42l42-42m-36 42l42-42" clip-path="url(#XMLID_21_)" stroke="#010101" stroke-miterlimit="10" stroke-width=".036" fill="none" />
	</g>
</g>
<path id="path215" d="m199.26 310.44h12.24v32.83h-12.24v-32.83z" stroke="#010101" stroke-miterlimit="10" stroke-width=".036" fill="none" />
<path id="path217" d="m155.02 107.79h-49.84c-18.446 0-33.395 14.95-33.395 33.39v85.21c0 18.44 14.949 33.39 33.395 33.39h99.68c18.44 0 33.39-14.94 33.39-33.39v-85.21c0-18.44-14.95-33.39-33.39-33.39h-49.84z" stroke="#010101" stroke-miterlimit="10" stroke-width="4" fill="#fff" />
<path id="path219" d="m96.252 195.75c7.968 0 14.438 6.49 14.438 14.47 0 7.99-6.47 14.48-14.438 14.48-7.969 0-14.436-6.49-14.436-14.48 0-7.98 6.468-14.47 14.436-14.47" stroke="#010101" stroke-miterlimit="10" stroke-width=".036" fill="#010101" />
<path id="path221" d="m131.89 197.86c6.76 0 12.24 5.49 12.24 12.24 0 6.76-5.48 12.24-12.24 12.24-6.75 0-12.24-5.48-12.24-12.24 0-6.75 5.49-12.24 12.24-12.24" stroke="#010101" stroke-miterlimit="10" stroke-width=".036" fill="#010101" />
<path id="path223" d="m163.81 200.29c5.69 0 10.3 4.61 10.3 10.29 0 5.69-4.61 10.3-10.3 10.3-5.68 0-10.29-4.61-10.29-10.3 0-5.68 4.61-10.29 10.29-10.29" stroke="#010101" stroke-miterlimit="10" stroke-width=".036" fill="#010101" />
<path id="path225" d="m189.73 203.59c3.99 0 7.24 3.24 7.24 7.23 0 4-3.25 7.24-7.24 7.24s-7.23-3.24-7.23-7.24c0-3.99 3.24-7.23 7.23-7.23" stroke="#010101" stroke-miterlimit="10" stroke-width=".036" fill="#010101" />
<path id="path227" d="m208.93 205.29c2.92 0 5.29 2.37 5.29 5.29s-2.37 5.3-5.29 5.3-5.29-2.38-5.29-5.3 2.37-5.29 5.29-5.29" stroke="#010101" stroke-miterlimit="10" stroke-width=".036" fill="#010101" />
<path id="path229" d="m224.29 206.28c1.85 0 3.35 1.5 3.35 3.34 0 1.85-1.5 3.35-3.35 3.35s-3.35-1.5-3.35-3.35c0-1.84 1.5-3.34 3.35-3.34" stroke="#010101" stroke-miterlimit="10" stroke-width=".036" fill="#010101" />
<path id="path231" d="m215.41 166.83c7.99 0 14.47 6.49 14.47 14.47 0 7.99-6.48 14.48-14.47 14.48s-14.47-6.49-14.47-14.48c0-7.98 6.48-14.47 14.47-14.47" stroke="#010101" stroke-miterlimit="10" stroke-width=".036" fill="#010101" />
<path id="path233" d="m179.89 169.06c6.76 0 12.24 5.49 12.24 12.24 0 6.76-5.48 12.24-12.24 12.24-6.75 0-12.24-5.48-12.24-12.24 0-6.75 5.49-12.24 12.24-12.24" stroke="#010101" stroke-miterlimit="10" stroke-width=".036" fill="#010101" />
<path id="path235" d="m147.73 171.25c5.69 0 10.3 4.61 10.3 10.29 0 5.69-4.61 10.3-10.3 10.3-5.68 0-10.29-4.61-10.29-10.3 0-5.68 4.61-10.29 10.29-10.29" stroke="#010101" stroke-miterlimit="10" stroke-width=".036" fill="#010101" />
<path id="path237" d="m121.81 174.55c4 0 7.24 3.24 7.24 7.23 0 4-3.24 7.24-7.24 7.24-3.99 0-7.23-3.24-7.23-7.24 0-3.99 3.24-7.23 7.23-7.23" stroke="#010101" stroke-miterlimit="10" stroke-width=".036" fill="#010101" />
<path id="path239" d="m102.61 176.25c2.9 0 5.26 2.37 5.26 5.29s-2.36 5.3-5.26 5.3-5.254-2.38-5.254-5.3 2.354-5.29 5.254-5.29" stroke="#010101" stroke-miterlimit="10" stroke-width=".036" fill="#010101" />
<path id="path241" d="m87.373 177.48c1.848 0 3.348 1.5 3.348 3.34 0 1.85-1.5 3.35-3.348 3.35s-3.348-1.5-3.348-3.35c0-1.84 1.498-3.34 3.348-3.34" stroke="#010101" stroke-miterlimit="10" stroke-width=".036" fill="#010101" />
<path id="path247" fill="#010101" d="m97.597 164.13v-42.33h18.683c3.78 0 6.66 0.36 8.6 1.11 1.95 0.79 3.46 2.13 4.65 4.03 1.19 1.95 1.76 4.07 1.76 6.38 0 3.02-0.93 5.58-2.88 7.63-1.94 2.01-4.93 3.38-8.96 3.92 1.47 0.69 2.59 1.41 3.38 2.13 1.59 1.47 3.1 3.34 4.57 5.61 2.42 3.82 4.86 7.67 7.31 11.52h-6.95c-1.83-2.91-3.7-5.87-5.58-8.82-1.65-2.52-3.02-4.46-4.03-5.83-1.04-1.37-1.98-2.3-2.81-2.84-0.9-0.54-1.72-0.9-2.59-1.12-0.61-0.11-1.65-0.18-3.06-0.18h-6.48v18.79h-5.613zm5.613-23.65h11.95c2.6 0 4.54-0.25 6.02-0.76 1.4-0.54 2.48-1.44 3.24-2.55 0.75-1.19 1.11-2.49 1.11-3.85 0-1.98-0.72-3.6-2.19-4.9-1.41-1.3-3.71-1.94-6.84-1.94h-13.29v14z" />
<path id="path249" fill="#010101" d="m139.68 164.13v-42.33h15.84c3.17 0 5.76 0.43 7.74 1.29 1.91 0.83 3.46 2.2 4.57 3.96 1.12 1.8 1.66 3.64 1.66 5.58 0 1.84-0.47 3.53-1.48 5.15-0.94 1.58-2.41 2.81-4.43 3.82 2.56 0.79 4.54 2.01 5.9 3.85 1.37 1.83 2.06 3.96 2.06 6.37 0 2.02-0.4 3.85-1.23 5.58s-1.87 3.02-3.13 3.96c-1.22 0.86-2.77 1.58-4.61 2.05-1.87 0.51-4.1 0.72-6.8 0.72h-16.09zm5.58-24.55h9.14c2.49 0 4.25-0.18 5.3-0.47 1.4-0.47 2.48-1.11 3.24-2.12 0.72-1.01 1.08-2.23 1.08-3.71 0-1.44-0.36-2.66-1.01-3.74-0.65-1.05-1.66-1.77-2.88-2.16-1.26-0.44-3.35-0.62-6.45-0.62h-8.42v12.82zm0 19.58h10.51c1.8 0 3.1-0.03 3.82-0.18 1.29-0.25 2.34-0.64 3.24-1.18 0.82-0.51 1.55-1.3 2.12-2.34 0.54-1.01 0.83-2.27 0.83-3.64 0-1.51-0.43-2.95-1.23-4.07-0.79-1.19-1.9-2.01-3.38-2.48-1.4-0.47-3.46-0.72-6.12-0.72h-9.79v14.61z" />
<path id="path251" fill="#010101" d="m176.4 151.42v-5.22h16.02v5.22h-16.02z" />
<path id="path253" fill="#010101" d="m216.04 164.13h-5.19v-33.12c-1.22 1.19-2.88 2.38-4.89 3.57-2.06 1.18-3.89 2.12-5.48 2.7v-5.01c2.88-1.37 5.4-3.02 7.6-4.97 2.2-1.94 3.71-3.85 4.61-5.68h3.35v42.51z" />
<path id="path255" d="m128.53 23.732c10.44 0 18.9 3.983 18.9 8.892 0 4.908-8.46 8.892-18.9 8.892-10.43 0-18.9-3.984-18.9-8.892 0-4.909 8.47-8.892 18.9-8.892" stroke="#010101" stroke-miterlimit="10" stroke-width="3" fill="#fff" />
<path id="path257" d="m184.21 23.635c10.44 0 18.9 4.242 18.9 9.468s-8.47 9.468-18.9 9.468-18.9-4.242-18.9-9.468 8.47-9.468 18.9-9.468" stroke="#010101" stroke-miterlimit="10" stroke-width="3" fill="#fff" />
<path id="path259" d="m127.93 26.491c6.14 0 11.13 2.371 11.13 5.292s-4.99 5.292-11.13 5.292-11.12-2.371-11.12-5.292c0-2.92 4.98-5.292 11.12-5.292" stroke="#010101" stroke-miterlimit="10" stroke-width=".036" fill="#010101" />
<path id="path261" d="m184.81 26.491c6.14 0 11.13 2.371 11.13 5.292s-4.99 5.292-11.13 5.292-11.12-2.371-11.12-5.292c0-2.92 4.98-5.292 11.12-5.292" stroke="#010101" stroke-miterlimit="10" stroke-width=".036" fill="#010101" />
<path id="path263" d="m128.29 30.427c2.29 0 4.14 0.984 4.14 2.196s-1.85 2.196-4.14 2.196c-2.28 0-4.14-0.984-4.14-2.196s1.86-2.196 4.14-2.196" stroke="#010101" stroke-miterlimit="10" stroke-width=".036" fill="#fff" />
<path id="path265" d="m184.45 30.427c2.29 0 4.14 0.984 4.14 2.196s-1.85 2.196-4.14 2.196c-2.28 0-4.14-0.984-4.14-2.196s1.86-2.196 4.14-2.196" stroke="#010101" stroke-miterlimit="10" stroke-width=".036" fill="#fff" />
<path id="path267" d="m261.37 102.85c7.51 0 13.61 8.97 13.61 20.01 0 11.05-6.1 20.02-13.61 20.02s-13.6-8.97-13.6-20.02c0-11.04 6.09-20.01 13.6-20.01" stroke="#010101" stroke-miterlimit="10" stroke-width="4" fill="#fff" />
<path id="path269" d="m262.21 130.59c9.82 0 17.79 30.68 17.79 68.47 0 37.8-7.97 68.48-17.79 68.48-9.81 0-17.78-30.68-17.78-68.48 0-37.79 7.97-68.47 17.78-68.47" stroke="#010101" stroke-miterlimit="10" stroke-width="4" fill="#fff" />
<path id="path271" d="m255.73 255.3c2.92 0 5.29 8.35 5.29 18.64 0 10.3-2.37 18.65-5.29 18.65s-5.29-8.35-5.29-18.65c0-10.29 2.37-18.64 5.29-18.64" stroke="#010101" stroke-miterlimit="10" stroke-width="4" fill="#fff" />
<path id="path273" d="m262.93 255.3c2.92 0 5.29 8.35 5.29 18.64 0 10.3-2.37 18.65-5.29 18.65s-5.29-8.35-5.29-18.65c0-10.29 2.37-18.64 5.29-18.64" stroke="#010101" stroke-miterlimit="10" stroke-width="4" fill="#fff" />
<path id="path275" d="m270.25 255.3c2.92 0 5.29 8.35 5.29 18.64 0 10.3-2.37 18.65-5.29 18.65s-5.29-8.35-5.29-18.65c0-10.29 2.37-18.64 5.29-18.64" stroke="#010101" stroke-miterlimit="10" stroke-width="4" fill="#fff" />
<path id="path277" d="m44.292 100.57c7.532 0 13.644 8.97 13.644 20.01 0 11.05-6.112 20.02-13.644 20.02-7.531 0-13.644-8.97-13.644-20.02-0.001-11.04 6.113-20.01 13.644-20.01" stroke="#010101" stroke-miterlimit="10" stroke-width="4" fill="#fff" />
<path id="path279" d="m43.333 128.31c9.817 0 17.784 30.68 17.784 68.47 0 37.8-7.967 68.48-17.784 68.48-9.816 0-17.784-30.68-17.784-68.48-0.001-37.79 7.967-68.47 17.784-68.47" stroke="#010101" stroke-miterlimit="10" stroke-width="4" fill="#fff" />
<path id="path281" d="m49.813 253.02c2.901 0 5.256 8.35 5.256 18.64 0 10.3-2.355 18.65-5.256 18.65s-5.256-8.35-5.256-18.65c0-10.29 2.354-18.64 5.256-18.64" stroke="#010101" stroke-miterlimit="10" stroke-width="4" fill="#fff" />
<path id="path283" d="m42.612 253.02c2.901 0 5.256 8.35 5.256 18.64 0 10.3-2.354 18.65-5.256 18.65s-5.256-8.35-5.256-18.65c-0.001-10.29 2.354-18.64 5.256-18.64" stroke="#010101" stroke-miterlimit="10" stroke-width="4" fill="#fff" />
<path id="path285" d="m35.292 253.02c2.901 0 5.256 8.35 5.256 18.64 0 10.3-2.355 18.65-5.256 18.65s-5.256-8.35-5.256-18.65c0.001-10.29 2.356-18.64 5.256-18.64" stroke="#010101" stroke-miterlimit="10" stroke-width="4" fill="#fff" />
</svg>