<?xml version="1.0" encoding="UTF-8"?>
<svg xmlns="http://www.w3.org/2000/svg" xmlns:ns1="http://sodipodi.sourceforge.net/DTD/sodipodi-0.dtd" xmlns:ns2="http://www.inkscape.org/namespaces/inkscape" id="svg3703" ns1:docname="sun_line_art_happy_sun_gm.svg" viewBox="0 0 746.7 715.7" version="1.1" ns2:version="0.47 r22583">
  <ns1:namedview id="namedview3707" bordercolor="#666666" ns2:pageshadow="2" ns2:window-y="-8" pagecolor="#ffffff" ns2:window-height="838" ns2:window-maximized="1" ns2:zoom="0.25455844" ns2:window-x="-8" showgrid="false" borderopacity="1.0" ns2:current-layer="layer1" ns2:cx="694.23263" ns2:cy="5.1427083" ns2:window-width="1600" ns2:pageopacity="0.0" ns2:document-units="in" />
  <g id="layer1" ns2:label="Layer 1" ns2:groupmode="layer" transform="translate(-1.6485 -268.58)">
    <g id="g3804">
      <path id="path2511" ns1:nodetypes="cccccccccccsccccccccccccccccccccccc" style="fill-rule:evenodd;stroke:#000000;stroke-width:4.2535;fill:#ffffff" d="m525.21 951.86s-86.624 34.626-137.87 29.837l-7.202-154.89c-19.015 0-40.158-2.8351-57.491-8.0248l-62.501 140.64s-68.711 4.3714-117.56-27.239l110.48-152.75c-11.002-9.9674-20.762-21.052-29.296-33.269l-169.37 71.42c-17.243-28.25-37.693-74.81-50.625-115.52l188.12-36.36c-0.88531-8.2339-1.4473-17.263-1.4473-25.794 0-10.578 0.25817-20.927 1.9177-31.038l-176.01-72.82c10.058-41.19 33.615-94.26 74.804-130.66l148.91 106.26c15.306-16.803 33.617-30.802 54.017-41.29l-67.39-166.29c42.656-20.654 91.59-33.431 131.08-33.372 2.6328 0.005 5.2329 0.0925 7.7773 0.21222l13.363 178.38c24.497 0.19819 47.887 5.0238 69.36 13.646l54.441-176.26c38.315 7.663 97.671 39.052 138.86 82.157l-123.1 143.21c11.156 12.255 21.127 25.989 28.776 40.812l161.92-89.496c21.552 31.131 36.09 113.35 37.048 154.06l-178.29 22.14c0 20.909-3.2786 41.341-9.5203 60.17l153.16 57.83c-7.1841 18.2-35.375 78.486-78.48 116.8l-118.97-101.7c-11.33 11.69-24.19 21.9-38.21 30.45l49.29 148.74" />
      <path id="path3338" ns1:rx="99.348404" ns1:ry="99.348404" style="fill-rule:evenodd;stroke:#000000;stroke-width:2.2166;fill:#ffffff" ns1:type="arc" d="m13.944 64.107a99.348 99.348 0 1 1 -198.7 0 99.348 99.348 0 1 1 198.7 0z" transform="matrix(1.9189 0 0 1.9189 542.84 515.51)" ns1:cy="64.107018" ns1:cx="-85.40477" />
      <path id="path2525" ns1:nodetypes="cc" style="stroke:#000000;stroke-width:4.2535;fill:#ffffff" d="m316.35 700.16c8.6208-16.284 36.399-44.063 56.036-50.289" />
      <path id="path2527" ns1:nodetypes="cc" style="stroke:#000000;stroke-width:4.2535;fill:none" d="m310.12 689.14c-49.81-71.362 18.2-83.336 42.147-53.163" />
      <path id="path2529" ns1:nodetypes="cc" style="stroke:#000000;stroke-width:4.2535;fill:#ffffff" d="m393.46 661.46c7.2323-2.0442 12.231-9.4692 13.317-14.66" />
      <path id="path2531" ns1:nodetypes="cc" style="fill-rule:evenodd;stroke:#000000;stroke-width:4.2535;fill:#ffffff" d="m327.32 683.48c-27.453-38.471 18.061-37.026 27.092-25.105" />
      <path id="path2535" ns1:nodetypes="ccc" style="fill-rule:evenodd;stroke:#000000;stroke-width:4.2535;fill:#ffffff" d="m342.89 732.16c60.069 9.9246 161.4-27.162 138.94-137.38 8.0572 108.76-83.505 136.87-138.94 137.38z" />
      <path id="path2537" ns1:nodetypes="czzzz" style="fill-rule:evenodd;stroke:#000000;stroke-width:4.2535;fill:#ffffff" d="m341.04 726.92c0.73553 1.2005-3.1336 1.8256-4.4431 5.753-1.2907 3.8702 2.3442 8.3425-0.0572 8.4438-2.4012 0.10136-4.725-6.0304-3.3186-9.731 1.474-3.879 6.5492-6.5381 7.8189-4.4659z" />
      <path id="path2539" ns1:nodetypes="czzzz" style="fill-rule:evenodd;stroke:#000000;stroke-width:4.2535;fill:#ffffff" d="m487.22 588.36c-0.41087 1.3466-3.4442-1.1353-7.2524 0.48847-3.753 1.5998-4.6908 7.2863-6.3589 5.556-1.6679-1.7306 1.3815-7.5357 5.084-8.9366 3.8811-1.4686 9.2368 0.56766 8.5273 2.8921z" />
      <path id="path2541" ns1:nodetypes="cc" style="stroke:#000000;stroke-width:4.2535;fill:#ffffff" d="m316.35 700.16c8.6208-16.284 36.399-44.063 56.036-50.289" />
      <path id="path2543" ns1:nodetypes="cc" style="fill-rule:evenodd;stroke:#000000;stroke-width:4.2535;fill:#ffffff" d="m402.45 615.02c-28.718-41.902 12.824-45.514 27.273-26.911" />
      <path id="path2545" ns1:nodetypes="cc" style="stroke:#000000;stroke-width:4.2535;fill:none" d="m378.61 605.81c-54.12-97.71 39.28-67.05 54.12-39.28" />
      <path id="path2547" ns1:nodetypes="cc" style="stroke:#000000;stroke-width:4.2535;fill:#ffffff" d="m394.42 627.84c8.6208-16.284 36.399-44.062 56.036-50.289" />
      <path id="path2551" ns1:rx="4.6769719" ns1:ry="4.6769719" style="fill-rule:evenodd;stroke:#000000;stroke-width:4.23;fill:#ffffff" ns1:type="arc" d="m320.94 797.62a4.677 4.677 0 1 1 -9.3539 0 4.677 4.677 0 1 1 9.3539 0z" transform="matrix(1.0056 0 0 1.0056 84.118 -209.7)" ns1:cy="797.62311" ns1:cx="316.26721" />
      <path id="path2555" ns1:rx="4.6769719" ns1:ry="4.6769719" style="fill-rule:evenodd;stroke:#000000;stroke-width:4.23;fill:#ffffff" ns1:type="arc" d="m320.94 797.62a4.677 4.677 0 1 1 -9.3539 0 4.677 4.677 0 1 1 9.3539 0z" transform="matrix(1.0056 0 0 1.0056 9.3414 -137.16)" ns1:cy="797.62311" ns1:cx="316.26721" />
    </g>
  </g>
  </svg>