<?xml version="1.0" encoding="UTF-8"?>
<svg xmlns="http://www.w3.org/2000/svg" xmlns:ns1="http://sodipodi.sourceforge.net/DTD/sodipodi-0.dtd" xmlns:ns2="http://www.inkscape.org/namespaces/inkscape" version="1.1" id="svg2" xml:space="preserve" width="1706.6667" height="1706.6667" viewBox="0 0 1706.6667 1706.6667" ns1:docname="cute_toothwbrush.svg" ns2:version="1.2.2 (b0a8486, 2022-12-01)"><defs id="defs6"><clipPath clipPathUnits="userSpaceOnUse" id="clipPath20"><path d="M 0,1280 H 1280 V 0 H 0 Z" id="path18" ns2:connector-curvature="0" /></clipPath><clipPath clipPathUnits="userSpaceOnUse" id="clipPath28"><path d="m 430.68,288.176 h 419.4 v -48.965 h -419.4 z" id="path26" ns2:connector-curvature="0" /></clipPath></defs><ns1:namedview pagecolor="#ffffff" bordercolor="#666666" borderopacity="1" objecttolerance="10" gridtolerance="10" guidetolerance="10" ns2:pageopacity="0" ns2:pageshadow="2" ns2:window-width="1519" ns2:window-height="973" id="namedview4" showgrid="false" ns2:zoom="0.33589188" ns2:cx="1059.8649" ns2:cy="1156.6222" ns2:window-x="34" ns2:window-y="25" ns2:window-maximized="0" ns2:current-layer="g5922" ns2:showpageshadow="2" ns2:pagecheckerboard="0" ns2:deskcolor="#d1d1d1" /><g id="g10" ns2:groupmode="layer" ns2:label="teeth-1670434" transform="matrix(1.3333333,0,0,-1.3333333,0,1706.6667)"><g id="g14"><g id="g16" clip-path="url(#clipPath20)"><g id="layer1" ns2:label="Layer 1" transform="matrix(0.75000004,0,0,-0.75000004,129.58227,1520.617)"><g id="g5922" transform="matrix(1.5618809,-3.0352107,3.0403622,1.4460428,-1365.7951,1378.7041)"><g id="g8133" transform="matrix(1.2760085,0.08595202,0.07971239,1.4023735,-140.22264,-248.66104)"><g id="g5966" transform="matrix(0.16785145,0.35231634,0.35291431,-0.18129752,-21.536724,403.45737)"><g id="g38" transform="translate(870.9638,865.1865)"><path d="m 0,0 c -15.201,63.566 -84.397,82.203 -139.369,71.344 -26.731,-5.281 -51.356,-26.829 -80.309,-28.886 -35.543,-2.525 -61.862,16.389 -94.478,24.609 -173.826,43.811 -183.513,-175.341 -122.055,-286.903 35.661,-64.734 41.993,-109.281 48.008,-185.473 2.888,-36.586 -17.652,-183.241 38.85,-191.887 44.385,-6.792 52.219,90.947 58.718,124.198 11.537,59.025 13.687,106.459 49.035,154.136 5.487,7.402 16.5,7.364 21.951,-0.064 42.319,-57.669 39.738,-121.12 56.844,-190.85 15.416,-62.837 60.832,-140.343 86.376,-31.347 19.578,83.534 -12.485,183.261 17.821,266.761 C -20.028,-168.063 28.785,-120.375 0,0" style="fill:#ffffff;fill-opacity:1;fill-rule:nonzero;stroke:#000000;stroke-width:9;stroke-dasharray:none;stroke-opacity:1" id="path40" ns2:connector-curvature="0" /></g><g id="g42" transform="translate(570.5477,813.7479)"><path d="m 0,0 c 0,-18.593 -15.073,-33.666 -33.665,-33.666 -18.593,0 -33.666,15.073 -33.666,33.666 0,18.593 15.073,33.665 33.666,33.665 C -15.073,33.665 0,18.593 0,0" style="fill:#414142;fill-opacity:1;fill-rule:nonzero;stroke:none" id="path44" ns2:connector-curvature="0" /></g><g id="g46" transform="translate(549.8567,832.8682)"><path d="m 0,0 c 0,-5.154 -4.178,-9.333 -9.333,-9.333 -5.154,0 -9.332,4.179 -9.332,9.333 0,5.154 4.178,9.333 9.332,9.333 C -4.178,9.333 0,5.154 0,0" style="fill:#f1f1f2;fill-opacity:1;fill-rule:nonzero;stroke:none" id="path48" ns2:connector-curvature="0" /></g><g id="g50" transform="translate(536.8822,818.7556)"><path d="m 0,0 c 0,-1.634 -1.325,-2.959 -2.959,-2.959 -1.634,0 -2.959,1.325 -2.959,2.959 0,1.634 1.325,2.959 2.959,2.959 C -1.325,2.959 0,1.634 0,0" style="fill:#f1f1f2;fill-opacity:1;fill-rule:nonzero;stroke:none" id="path52" ns2:connector-curvature="0" /></g><g id="g54" transform="translate(550.7672,818.7556)"><path d="m 0,0 c 0,-2.766 -2.242,-5.008 -5.008,-5.008 -2.765,0 -5.007,2.242 -5.007,5.008 0,2.766 2.242,5.008 5.007,5.008 C -2.242,5.008 0,2.766 0,0" style="fill:#f1f1f2;fill-opacity:1;fill-rule:nonzero;stroke:none" id="path56" ns2:connector-curvature="0" /></g><g id="g58" transform="translate(794.9932,813.7479)"><path d="m 0,0 c 0,-18.593 -15.073,-33.666 -33.665,-33.666 -18.593,0 -33.666,15.073 -33.666,33.666 0,18.593 15.073,33.665 33.666,33.665 C -15.073,33.665 0,18.593 0,0" style="fill:#414142;fill-opacity:1;fill-rule:nonzero;stroke:none" id="path60" ns2:connector-curvature="0" /></g><g id="g62" transform="translate(774.3022,832.8682)"><path d="m 0,0 c 0,-5.154 -4.178,-9.333 -9.333,-9.333 -5.154,0 -9.332,4.179 -9.332,9.333 0,5.154 4.178,9.333 9.332,9.333 C -4.178,9.333 0,5.154 0,0" style="fill:#f1f1f2;fill-opacity:1;fill-rule:nonzero;stroke:none" id="path64" ns2:connector-curvature="0" /></g><g id="g66" transform="translate(761.3277,818.7556)"><path d="m 0,0 c 0,-1.634 -1.325,-2.959 -2.959,-2.959 -1.634,0 -2.959,1.325 -2.959,2.959 0,1.634 1.325,2.959 2.959,2.959 C -1.325,2.959 0,1.634 0,0" style="fill:#f1f1f2;fill-opacity:1;fill-rule:nonzero;stroke:none" id="path68" ns2:connector-curvature="0" /></g><g id="g70" transform="translate(775.2127,818.7556)"><path d="m 0,0 c 0,-2.766 -2.242,-5.008 -5.008,-5.008 -2.765,0 -5.008,2.242 -5.008,5.008 0,2.766 2.243,5.008 5.008,5.008 C -2.242,5.008 0,2.766 0,0" style="fill:#f1f1f2;fill-opacity:1;fill-rule:nonzero;stroke:none" id="path72" ns2:connector-curvature="0" /></g><g id="g74" transform="translate(701.0269,694.5659)"><path d="m 0,0 c -2.599,0 -4.766,-1.991 -4.976,-4.581 -2.339,-28.874 -26.585,-51.654 -56.051,-51.654 -29.466,0 -53.712,22.78 -56.05,51.654 -0.21,2.59 -2.378,4.581 -4.977,4.581 -2.905,0 -5.226,-2.47 -4.993,-5.365 2.74,-34.023 31.304,-60.87 66.02,-60.87 34.717,0 63.28,26.847 66.02,60.87 C 5.227,-2.47 2.905,0 0,0" style="fill:#414142;fill-opacity:1;fill-rule:nonzero;stroke:none" id="path76" ns2:connector-curvature="0" /></g><g id="g78" transform="translate(545.7595,734.546)"><path d="m 0,0 c 0,-12.703 -20.765,-23 -46.38,-23 -25.615,0 -46.379,10.297 -46.379,23 0,12.702 20.764,23 46.379,23 C -20.765,23 0,12.702 0,0" style="fill:#f9d0b9;fill-opacity:1;fill-rule:nonzero;stroke:none" id="path80" ns2:connector-curvature="0" /></g><g id="g82" transform="translate(827.7595,734.546)"><path d="m 0,0 c 0,-12.703 -20.765,-23 -46.38,-23 -25.615,0 -46.379,10.297 -46.379,23 0,12.702 20.764,23 46.379,23 C -20.765,23 0,12.702 0,0" style="fill:#f9d0b9;fill-opacity:1;fill-rule:nonzero;stroke:none" id="path84" ns2:connector-curvature="0" /></g><g id="g86" transform="translate(521.6667,929.8793)"><path d="m 0,0 c -3.824,0.172 -7.698,-0.126 -11.496,-0.542 -9.151,-1.001 -18.197,-3.157 -26.789,-6.467 -11.574,-4.46 -22.286,-11.108 -31.161,-19.799 -5.18,-5.072 -9.706,-10.796 -13.509,-16.967 -4.649,-7.544 -8.036,-15.726 -11.071,-24.03 -2.162,-5.917 -4.404,-12.138 -5.024,-18.454 -0.199,-2.022 -0.498,-5.723 1.828,-6.763 2.105,-0.94 4.825,0.813 6.496,1.924 3.304,2.194 6.208,5.007 8.931,7.871 3.253,3.423 6.271,7.075 9.068,10.878 2.985,4.058 5.367,8.46 8.203,12.607 4.424,6.469 9.868,12.235 15.657,17.494 6.367,5.784 13.272,11 20.579,15.54 6.742,4.188 13.889,7.873 21.436,10.381 3.278,1.089 6.646,1.953 10.074,2.4 4.005,0.522 8.03,0.529 11.994,1.408 2.618,0.581 9.744,2.531 7.47,6.656 -0.887,1.61 -2.69,2.655 -4.296,3.412 -2.512,1.184 -5.261,1.86 -7.999,2.257 C 6.955,0.305 3.453,0.343 0,0" style="fill:#e7e8e9;fill-opacity:1;fill-rule:nonzero;stroke:none" id="path88" ns2:connector-curvature="0" /></g><g id="g90" transform="translate(724.5236,893.3278)"><path d="m 0,0 c -21.405,-0.971 -51.357321,1.4241848 -69.181321,5.9291848 -7.697,1.732 -12.78686,3.76672 -12.78686,3.76672 -13.885,0.7240002 -28.786799,4.6909402 -28.786799,4.6909402 5.432,-4.463 11.383659,-7.3286602 19.171659,-10.5486602 C -59.124321,-9.1938152 -22.024,-11.032 0,0" style="fill:#e7e8e9;fill-opacity:1;fill-rule:nonzero;stroke:none" id="path92" ns2:connector-curvature="0" ns1:nodetypes="cccccc" /></g><g id="g94" transform="translate(430.3333,825.7063)"><path d="m 0,0 c -4.69,0.532 -8.955,-4.087 -11.329,-8.244 -2.73,-4.783 -4.406,-22.882 2.62,-25.366 C 1.594,-37.253 11.542,-1.308 0,0" style="fill:#e7e8e9;fill-opacity:1;fill-rule:nonzero;stroke:none" id="path96" ns2:connector-curvature="0" /></g><g id="g98" transform="translate(787,443.546)"><path d="m 0,0 c 1.624,-19.119 2.21,-38.379 2.02,-57.561 -0.276,-27.91 -0.108,-61.793 -13.806,-87.024 -4.521,-8.328 -9.699,-14.196 -19.504,-9.832 -4.671,2.078 -16.34,9.15 -13.215,15.11 3.719,7.093 10.743,-1.558 16.026,0.35 10.223,3.69 14.265,26.226 15.575,35.57 1.711,12.199 1.687,24.758 2.196,37.046 0.678,16.345 1.136,32.779 2.986,49.045 C -7.501,-15.354 -5.162,6.508 0,0" style="fill:#e7e8e9;fill-opacity:1;fill-rule:nonzero;stroke:none" id="path100" ns2:connector-curvature="0" /></g></g><g id="g7978"><path style="fill:#000000;stroke:#000000;stroke-width:4.72088;stroke-linecap:round;stroke-linejoin:round;stroke-dasharray:none;stroke-opacity:1" d="m 317.72364,612.82106 c -77,-8.12893 -141.72987,-15.11208 -143.84415,-15.51813 -2.11429,-0.40605 -5.01361,-1.74419 -6.44295,-2.97365 -2.43793,-2.09702 -2.54042,-2.5378 -1.65584,-7.12105 0.80658,-4.17916 1.44906,-5.1385 4.44294,-6.63411 2.00328,-1.00075 5.63817,-1.72536 8.5,-1.69447 2.75,0.0297 59.56071,5.77985 126.24602,12.77813 l 121.24602,12.72415 0.50398,-3.27968 c 0.27719,-1.80382 0.8085,-4.96718 1.1807,-7.02968 0.37219,-2.0625 0.55727,-5.86803 0.41127,-8.45673 -0.2206,-3.91144 0.16428,-5.13645 2.27783,-7.25 2.44362,-2.44362 3.01655,-2.54327 14.62197,-2.54327 10.61753,0 12.64928,-0.28097 16.79545,-2.32267 2.59422,-1.27747 7.80392,-2.91118 11.57711,-3.63047 7.83948,-1.49445 9.10144,-0.79328 8.01466,4.45314 -0.53831,2.59875 -4.98966,12.47294 -5.64186,12.51506 -0.12823,0.008 -2.03315,0.64775 -4.23315,1.42105 -2.31315,0.81308 -3.36743,1.58727 -2.5,1.83583 0.825,0.23641 3.525,1.06347 6,1.83791 l 4.5,1.40809 v 9.49103 c 0,5.22007 0.49975,10.39103 1.11056,11.49103 0.6108,1.1 0.89448,3.72685 0.63038,5.83744 -0.73055,5.83843 -4.45685,7.68386 -15.24094,7.548 -4.675,-0.0589 -71.5,-6.75803 -148.5,-14.88695 z" id="path5834" /><rect id="rect4865" ry="6.6648998" style="color:#000000;fill:#08d63e;fill-opacity:1" rx="14.004" transform="matrix(0.99458,0.10401,-0.20323,0.97913,0,0)" height="18.674" width="316.23999" y="560.10999" x="283.48001" /><path id="rect4865-9" ns1:nodetypes="sssssssss" style="color:#000000;fill:#b3b3b3;fill-opacity:0.48525" ns2:connector-curvature="0" d="m 180.56,587.23 284.95,29.936 c 7.6697,0.80576 14.734,2.0766 14.848,4.3677 0,0 1.1318,1.8483 -2.6513,4.0125 -4.1944,2.3994 -8.7168,2.5356 -16.386,1.7215 l -285.08,-30.26 c -7.6688,-0.81412 -9.5842,-2.7871 -9.4783,-4.8273 l 0.29269,-5.6413 c 0.10587,-2.0402 5.8357,-0.11044 13.505,0.69533 z" /><rect id="rect4873" style="color:#000000;fill:#e6e6e6" transform="matrix(0.99738,0.072371,-0.10319,0.99466,0,0)" rx="12.884" ry="4.3422999" height="30.344" width="51.692001" y="555.48999" x="487.37" /><rect id="rect4875" ry="3.6087" style="color:#000000;fill:#d7d2d2;fill-opacity:1" rx="12.873" transform="matrix(0.9982,0.06005,-0.12417,0.99226,0,0)" height="25.218" width="51.648998" y="567.81" x="500.17001" /><path id="path4877" style="fill:none;stroke:#000000;stroke-width:0.42754px" d="m 428.48852,616.10792 c 0,-0.14818 -0.0191,-0.29743 0,-0.44443 0.0613,-0.47108 0.20806,-0.95247 0.27803,-1.42224 0.11219,-0.75319 -0.0286,-1.55509 0.0927,-2.31116 0.0341,-0.21316 0.15563,-0.40838 0.18536,-0.6222 0.17774,-1.2786 0,-2.70948 0,-4 0,-1.00017 -0.16228,-2.13303 0.0927,-3.11114 0.27207,-1.04375 0.63137,-2.07226 0.92677,-3.1111 0.0875,-0.30788 0.29001,-0.57933 0.37071,-0.88891 0.18309,-0.70243 -0.042,-1.51207 0.0927,-2.22221 0.16722,-0.88212 0.64874,-1.79155 0.64874,-2.66671" ns2:connector-curvature="0" ns2:original-d="m 428.48852,616.10792 c 0,-0.14818 -0.0191,-0.29743 0,-0.44443 0.0613,-0.47108 0.20806,-0.95247 0.27803,-1.42224 0.11219,-0.75319 -0.0286,-1.55509 0.0927,-2.31116 0.0341,-0.21316 0.15563,-0.40838 0.18536,-0.6222 0.17774,-1.2786 0,-2.70948 0,-4 0,-1.00017 -0.16228,-2.13303 0.0927,-3.11114 0.27207,-1.04375 0.63137,-2.07226 0.92677,-3.1111 0.0875,-0.30788 0.29001,-0.57933 0.37071,-0.88891 0.18309,-0.70243 -0.042,-1.51207 0.0927,-2.22221 0.16722,-0.88212 0.64874,-1.79155 0.64874,-2.66671" /><path id="path4877-4" style="fill:none;stroke:#000000;stroke-width:0.43529px" d="m 431.03839,616.65848 c 0,-0.15401 -0.0191,-0.30923 0,-0.46202 0.0612,-0.48971 0.20746,-0.99021 0.27722,-1.47856 0.11187,-0.78306 -0.0285,-1.61673 0.0924,-2.4027 0.0341,-0.22164 0.15518,-0.42459 0.18483,-0.64684 0.17723,-1.3293 0,-2.81684 0,-4.15849 0,-1.03979 -0.16181,-2.21749 0.0924,-3.23433 0.27127,-1.08515 0.62956,-2.15441 0.92409,-3.23438 0.0873,-0.32007 0.28919,-0.60227 0.36965,-0.92413 0.18257,-0.73024 -0.0418,-1.57197 0.0924,-2.31023 0.16674,-0.91708 0.64687,-1.86254 0.64687,-2.7723" ns2:connector-curvature="0" ns2:original-d="m 431.03839,616.65848 c 0,-0.15401 -0.0191,-0.30923 0,-0.46202 0.0612,-0.48971 0.20746,-0.99021 0.27722,-1.47856 0.11187,-0.78306 -0.0285,-1.61673 0.0924,-2.4027 0.0341,-0.22164 0.15518,-0.42459 0.18483,-0.64684 0.17723,-1.3293 0,-2.81684 0,-4.15849 0,-1.03979 -0.16181,-2.21749 0.0924,-3.23433 0.27127,-1.08515 0.62956,-2.15441 0.92409,-3.23438 0.0873,-0.32007 0.28919,-0.60227 0.36965,-0.92413 0.18257,-0.73024 -0.0418,-1.57197 0.0924,-2.31023 0.16674,-0.91708 0.64687,-1.86254 0.64687,-2.7723" /><path id="path4877-5" style="fill:none;stroke:#000000;stroke-width:0.4576px" d="m 433.63695,618.21832 c 0,-0.17165 -0.019,-0.34459 0,-0.51487 0.0607,-0.54573 0.20574,-1.10342 0.27493,-1.64768 0.11093,-0.87254 -0.0283,-1.80154 0.0917,-2.6774 0.0338,-0.24698 0.15389,-0.47313 0.18328,-0.72085 0.17575,-1.48126 0,-3.13891 0,-4.63402 0,-1.1587 -0.16046,-2.47107 0.0917,-3.60419 0.26902,-1.20919 0.62434,-2.40073 0.91644,-3.60424 0.0865,-0.35667 0.28679,-0.67108 0.36658,-1.02976 0.18105,-0.81375 -0.0414,-1.75176 0.0917,-2.57442 0.16535,-1.02194 0.6415,-2.07553 0.6415,-3.08933" ns2:connector-curvature="0" ns2:original-d="m 433.63695,618.21832 c 0,-0.17165 -0.019,-0.34459 0,-0.51487 0.0607,-0.54573 0.20574,-1.10342 0.27493,-1.64768 0.11093,-0.87254 -0.0283,-1.80154 0.0917,-2.6774 0.0338,-0.24698 0.15389,-0.47313 0.18328,-0.72085 0.17575,-1.48126 0,-3.13891 0,-4.63402 0,-1.1587 -0.16046,-2.47107 0.0917,-3.60419 0.26902,-1.20919 0.62434,-2.40073 0.91644,-3.60424 0.0865,-0.35667 0.28679,-0.67108 0.36658,-1.02976 0.18105,-0.81375 -0.0414,-1.75176 0.0917,-2.57442 0.16535,-1.02194 0.6415,-2.07553 0.6415,-3.08933" /><path id="path4877-6" style="fill:none;stroke:#000000;stroke-width:0.37792px" d="m 426.38775,614.97759 c 0,-0.13663 -0.0161,-0.27436 0,-0.40996 0.052,-0.43451 0.17625,-0.87855 0.23552,-1.31189 0.0951,-0.69473 -0.0242,-1.43442 0.0785,-2.13181 0.0289,-0.19666 0.13182,-0.3767 0.15701,-0.57393 0.15056,-1.17943 0,-2.49928 0,-3.68969 0,-0.92261 -0.13747,-1.96752 0.0785,-2.86976 0.23046,-0.96279 0.53484,-1.9115 0.78505,-2.86973 0.0741,-0.28398 0.24566,-0.53436 0.31402,-0.81991 0.15508,-0.64794 -0.0356,-1.39481 0.0785,-2.04985 0.14164,-0.81369 0.54953,-1.65255 0.54953,-2.45975" ns2:connector-curvature="0" ns2:original-d="m 426.38775,614.97759 c 0,-0.13663 -0.0161,-0.27436 0,-0.40996 0.052,-0.43451 0.17625,-0.87855 0.23552,-1.31189 0.0951,-0.69473 -0.0242,-1.43442 0.0785,-2.13181 0.0289,-0.19666 0.13182,-0.3767 0.15701,-0.57393 0.15056,-1.17943 0,-2.49928 0,-3.68969 0,-0.92261 -0.13747,-1.96752 0.0785,-2.86976 0.23046,-0.96279 0.53484,-1.9115 0.78505,-2.86973 0.0741,-0.28398 0.24566,-0.53436 0.31402,-0.81991 0.15508,-0.64794 -0.0356,-1.39481 0.0785,-2.04985 0.14164,-0.81369 0.54953,-1.65255 0.54953,-2.45975" /><path id="path4877-5-2" style="fill:none;stroke:#000000;stroke-width:0.4576px" d="m 437.24097,618.44933 c 0,-0.17164 -0.019,-0.34458 0,-0.51488 0.0607,-0.54567 0.20575,-1.10343 0.27493,-1.64762 0.11092,-0.87256 -0.0283,-1.80159 0.0916,-2.67745 0.0338,-0.24698 0.15389,-0.47313 0.18329,-0.72085 0.17575,-1.48127 0,-3.13891 0,-4.63396 0,-1.15876 -0.16047,-2.47108 0.0917,-3.60424 0.26902,-1.20921 0.62434,-2.40074 0.91644,-3.60421 0.0865,-0.35667 0.28679,-0.67113 0.36657,-1.02976 0.18106,-0.81379 -0.0414,-1.75176 0.0917,-2.57447 0.16536,-1.02194 0.64151,-2.07548 0.64151,-3.08931" ns2:connector-curvature="0" ns2:original-d="m 437.24097,618.44933 c 0,-0.17164 -0.019,-0.34458 0,-0.51488 0.0607,-0.54567 0.20575,-1.10343 0.27493,-1.64762 0.11092,-0.87256 -0.0283,-1.80159 0.0916,-2.67745 0.0338,-0.24698 0.15389,-0.47313 0.18329,-0.72085 0.17575,-1.48127 0,-3.13891 0,-4.63396 0,-1.15876 -0.16047,-2.47108 0.0917,-3.60424 0.26902,-1.20921 0.62434,-2.40074 0.91644,-3.60421 0.0865,-0.35667 0.28679,-0.67113 0.36657,-1.02976 0.18106,-0.81379 -0.0414,-1.75176 0.0917,-2.57447 0.16536,-1.02194 0.64151,-2.07548 0.64151,-3.08931" /><path id="path4877-5-9" style="fill:none;stroke:#000000;stroke-width:0.4576px" d="m 440.75256,618.63415 c 0,-0.17163 -0.019,-0.34457 0,-0.51487 0.0607,-0.54572 0.20574,-1.10342 0.27493,-1.64767 0.11093,-0.87255 -0.0283,-1.80155 0.0917,-2.67741 0.0338,-0.24698 0.1539,-0.47312 0.18329,-0.72085 0.17576,-1.48126 0,-3.1389 0,-4.63396 0,-1.15876 -0.16046,-2.47112 0.0917,-3.60424 0.26901,-1.20921 0.62432,-2.40074 0.91642,-3.60423 0.0866,-0.35669 0.2868,-0.6711 0.36658,-1.02978 0.18105,-0.81374 -0.0415,-1.75172 0.0916,-2.57442 0.16537,-1.02193 0.64151,-2.07548 0.64151,-3.08932" ns2:connector-curvature="0" ns2:original-d="m 440.75256,618.63415 c 0,-0.17163 -0.019,-0.34457 0,-0.51487 0.0607,-0.54572 0.20574,-1.10342 0.27493,-1.64767 0.11093,-0.87255 -0.0283,-1.80155 0.0917,-2.67741 0.0338,-0.24698 0.1539,-0.47312 0.18329,-0.72085 0.17576,-1.48126 0,-3.1389 0,-4.63396 0,-1.15876 -0.16046,-2.47112 0.0917,-3.60424 0.26901,-1.20921 0.62432,-2.40074 0.91642,-3.60423 0.0866,-0.35669 0.2868,-0.6711 0.36658,-1.02978 0.18105,-0.81374 -0.0415,-1.75172 0.0916,-2.57442 0.16537,-1.02193 0.64151,-2.07548 0.64151,-3.08932" /><path id="path4877-5-7" style="fill:none;stroke:#000000;stroke-width:0.4576px" d="m 444.44898,618.9114 c 0,-0.17165 -0.019,-0.3446 0,-0.51488 0.0607,-0.54572 0.20573,-1.10342 0.27492,-1.64767 0.11093,-0.87255 -0.0283,-1.80155 0.0916,-2.67741 0.0338,-0.24698 0.15388,-0.47312 0.18328,-0.72084 0.17576,-1.48127 0,-3.13891 0,-4.63402 0,-1.15871 -0.16045,-2.47107 0.0915,-3.60419 0.26904,-1.2092 0.62435,-2.40073 0.91645,-3.60424 0.0865,-0.35667 0.28678,-0.67109 0.36657,-1.02977 0.18106,-0.81375 -0.0414,-1.75175 0.0917,-2.57442 0.16535,-1.02195 0.6415,-2.07553 0.6415,-3.08932" ns2:connector-curvature="0" ns2:original-d="m 444.44898,618.9114 c 0,-0.17165 -0.019,-0.3446 0,-0.51488 0.0607,-0.54572 0.20573,-1.10342 0.27492,-1.64767 0.11093,-0.87255 -0.0283,-1.80155 0.0916,-2.67741 0.0338,-0.24698 0.15388,-0.47312 0.18328,-0.72084 0.17576,-1.48127 0,-3.13891 0,-4.63402 0,-1.15871 -0.16045,-2.47107 0.0915,-3.60419 0.26904,-1.2092 0.62435,-2.40073 0.91645,-3.60424 0.0865,-0.35667 0.28678,-0.67109 0.36657,-1.02977 0.18106,-0.81375 -0.0414,-1.75175 0.0917,-2.57442 0.16535,-1.02195 0.6415,-2.07553 0.6415,-3.08932" /><path id="path4877-5-0" style="fill:none;stroke:#000000;stroke-width:0.4576px" d="m 447.96056,618.9114 c 0,-0.17165 -0.019,-0.3446 0,-0.51488 0.0607,-0.54572 0.20573,-1.10342 0.27492,-1.64767 0.11094,-0.87255 -0.0283,-1.80155 0.0917,-2.67741 0.0338,-0.24698 0.1539,-0.47312 0.18328,-0.72084 0.17577,-1.48127 0,-3.13891 0,-4.63402 0,-1.15871 -0.16046,-2.47107 0.0917,-3.60419 0.26903,-1.2092 0.62434,-2.40073 0.91644,-3.60424 0.0865,-0.35667 0.28678,-0.67109 0.36658,-1.02977 0.18104,-0.81375 -0.0414,-1.75175 0.0915,-2.57442 0.16536,-1.02195 0.64152,-2.07553 0.64152,-3.08932" ns2:connector-curvature="0" ns2:original-d="m 447.96056,618.9114 c 0,-0.17165 -0.019,-0.3446 0,-0.51488 0.0607,-0.54572 0.20573,-1.10342 0.27492,-1.64767 0.11094,-0.87255 -0.0283,-1.80155 0.0917,-2.67741 0.0338,-0.24698 0.1539,-0.47312 0.18328,-0.72084 0.17577,-1.48127 0,-3.13891 0,-4.63402 0,-1.15871 -0.16046,-2.47107 0.0917,-3.60419 0.26903,-1.2092 0.62434,-2.40073 0.91644,-3.60424 0.0865,-0.35667 0.28678,-0.67109 0.36658,-1.02977 0.18104,-0.81375 -0.0414,-1.75175 0.0915,-2.57442 0.16536,-1.02195 0.64152,-2.07553 0.64152,-3.08932" /><path id="path4877-5-26" style="fill:none;stroke:#000000;stroke-width:0.4576px" d="m 451.28734,619.18862 c 0,-0.17163 -0.019,-0.34457 0,-0.5149 0.0607,-0.54569 0.20573,-1.10342 0.27492,-1.64764 0.11093,-0.87253 -0.0283,-1.80154 0.0917,-2.6774 0.0339,-0.24699 0.1539,-0.47317 0.18329,-0.72085 0.17577,-1.48126 0,-3.13895 0,-4.63401 0,-1.15871 -0.16046,-2.47108 0.0917,-3.60419 0.26902,-1.20922 0.62433,-2.40078 0.91643,-3.60424 0.0866,-0.35668 0.28679,-0.67109 0.36659,-1.02977 0.18104,-0.81378 -0.0415,-1.75176 0.0916,-2.57446 0.16537,-1.02194 0.64151,-2.07548 0.64151,-3.08933" ns2:connector-curvature="0" ns2:original-d="m 451.28734,619.18862 c 0,-0.17163 -0.019,-0.34457 0,-0.5149 0.0607,-0.54569 0.20573,-1.10342 0.27492,-1.64764 0.11093,-0.87253 -0.0283,-1.80154 0.0917,-2.6774 0.0339,-0.24699 0.1539,-0.47317 0.18329,-0.72085 0.17577,-1.48126 0,-3.13895 0,-4.63401 0,-1.15871 -0.16046,-2.47108 0.0917,-3.60419 0.26902,-1.20922 0.62433,-2.40078 0.91643,-3.60424 0.0866,-0.35668 0.28679,-0.67109 0.36659,-1.02977 0.18104,-0.81378 -0.0415,-1.75176 0.0916,-2.57446 0.16537,-1.02194 0.64151,-2.07548 0.64151,-3.08933" /><path id="path4877-5-3" style="fill:none;stroke:#000000;stroke-width:0.4576px" d="m 454.42928,619.37346 c 0,-0.17165 -0.019,-0.34463 0,-0.51492 0.0607,-0.54567 0.20575,-1.10342 0.27493,-1.64763 0.11094,-0.87254 -0.0283,-1.80159 0.0917,-2.6774 0.0338,-0.24698 0.15389,-0.47318 0.18329,-0.72085 0.17575,-1.48131 0,-3.13895 0,-4.63402 0,-1.1587 -0.16047,-2.47107 0.0916,-3.60423 0.26903,-1.2092 0.62435,-2.40073 0.91645,-3.6042 0.0865,-0.35667 0.28678,-0.67113 0.36656,-1.02976 0.18106,-0.81379 -0.0414,-1.75176 0.0917,-2.57446 0.16536,-1.02195 0.6415,-2.07549 0.6415,-3.08934" ns2:connector-curvature="0" ns2:original-d="m 454.42928,619.37346 c 0,-0.17165 -0.019,-0.34463 0,-0.51492 0.0607,-0.54567 0.20575,-1.10342 0.27493,-1.64763 0.11094,-0.87254 -0.0283,-1.80159 0.0917,-2.6774 0.0338,-0.24698 0.15389,-0.47318 0.18329,-0.72085 0.17575,-1.48131 0,-3.13895 0,-4.63402 0,-1.1587 -0.16047,-2.47107 0.0916,-3.60423 0.26903,-1.2092 0.62435,-2.40073 0.91645,-3.6042 0.0865,-0.35667 0.28678,-0.67113 0.36656,-1.02976 0.18106,-0.81379 -0.0414,-1.75176 0.0917,-2.57446 0.16536,-1.02195 0.6415,-2.07549 0.6415,-3.08934" /><path id="path4877-5-94" style="fill:none;stroke:#000000;stroke-width:0.4576px" d="m 457.75605,619.74306 c 0,-0.17159 -0.019,-0.34457 0,-0.51486 0.0607,-0.54568 0.20574,-1.10343 0.27493,-1.64763 0.11093,-0.87255 -0.0283,-1.8016 0.0917,-2.67746 0.0338,-0.24698 0.15389,-0.47311 0.18329,-0.72085 0.17576,-1.48126 0,-3.1389 0,-4.63396 0,-1.15871 -0.16046,-2.47107 0.0915,-3.60423 0.26904,-1.2092 0.62435,-2.40074 0.91645,-3.60421 0.0865,-0.35666 0.28678,-0.67113 0.36657,-1.02977 0.18105,-0.81378 -0.0415,-1.75175 0.0916,-2.57446 0.16536,-1.02194 0.64151,-2.07548 0.64151,-3.08932" ns2:connector-curvature="0" ns2:original-d="m 457.75605,619.74306 c 0,-0.17159 -0.019,-0.34457 0,-0.51486 0.0607,-0.54568 0.20574,-1.10343 0.27493,-1.64763 0.11093,-0.87255 -0.0283,-1.8016 0.0917,-2.67746 0.0338,-0.24698 0.15389,-0.47311 0.18329,-0.72085 0.17576,-1.48126 0,-3.1389 0,-4.63396 0,-1.15871 -0.16046,-2.47107 0.0915,-3.60423 0.26904,-1.2092 0.62435,-2.40074 0.91645,-3.60421 0.0865,-0.35666 0.28678,-0.67113 0.36657,-1.02977 0.18105,-0.81378 -0.0415,-1.75175 0.0916,-2.57446 0.16536,-1.02194 0.64151,-2.07548 0.64151,-3.08932" /><path id="path4877-5-02" style="fill:none;stroke:#000000;stroke-width:0.4576px" d="m 460.80559,620.20513 c 0,-0.17164 -0.019,-0.34458 0,-0.51487 0.0607,-0.54573 0.20573,-1.10343 0.27492,-1.64767 0.11094,-0.87255 -0.0283,-1.80156 0.0917,-2.67741 0.0338,-0.24699 0.1539,-0.47312 0.18329,-0.72085 0.17576,-1.48126 0,-3.1389 0,-4.63402 0,-1.15869 -0.16045,-2.47108 0.0917,-3.60418 0.26902,-1.2092 0.62433,-2.40073 0.91643,-3.60424 0.0865,-0.35668 0.28679,-0.67109 0.36659,-1.02978 0.18103,-0.81373 -0.0415,-1.75175 0.0916,-2.57441 0.16536,-1.02195 0.64151,-2.07552 0.64151,-3.08934" ns2:connector-curvature="0" ns2:original-d="m 460.80559,620.20513 c 0,-0.17164 -0.019,-0.34458 0,-0.51487 0.0607,-0.54573 0.20573,-1.10343 0.27492,-1.64767 0.11094,-0.87255 -0.0283,-1.80156 0.0917,-2.67741 0.0338,-0.24699 0.1539,-0.47312 0.18329,-0.72085 0.17576,-1.48126 0,-3.1389 0,-4.63402 0,-1.15869 -0.16045,-2.47108 0.0917,-3.60418 0.26902,-1.2092 0.62433,-2.40073 0.91643,-3.60424 0.0865,-0.35668 0.28679,-0.67109 0.36659,-1.02978 0.18103,-0.81373 -0.0415,-1.75175 0.0916,-2.57441 0.16536,-1.02195 0.64151,-2.07552 0.64151,-3.08934" /><path id="path4877-5-90" style="fill:none;stroke:#000000;stroke-width:0.4576px" d="m 463.94754,620.11271 c 0,-0.17163 -0.019,-0.34457 0,-0.51485 0.0607,-0.54574 0.20575,-1.10344 0.27493,-1.64769 0.11093,-0.87254 -0.0283,-1.80155 0.0916,-2.67741 0.0338,-0.24698 0.15389,-0.47311 0.1833,-0.72085 0.17574,-1.48125 0,-3.1389 0,-4.63396 0,-1.15876 -0.16048,-2.47112 0.0915,-3.60424 0.26903,-1.2092 0.62434,-2.40074 0.91644,-3.60423 0.0865,-0.35669 0.28679,-0.6711 0.36658,-1.02978 0.18106,-0.81373 -0.0415,-1.75172 0.0917,-2.57442 0.16536,-1.02193 0.64151,-2.07548 0.64151,-3.08932" ns2:connector-curvature="0" ns2:original-d="m 463.94754,620.11271 c 0,-0.17163 -0.019,-0.34457 0,-0.51485 0.0607,-0.54574 0.20575,-1.10344 0.27493,-1.64769 0.11093,-0.87254 -0.0283,-1.80155 0.0916,-2.67741 0.0338,-0.24698 0.15389,-0.47311 0.1833,-0.72085 0.17574,-1.48125 0,-3.1389 0,-4.63396 0,-1.15876 -0.16048,-2.47112 0.0915,-3.60424 0.26903,-1.2092 0.62434,-2.40074 0.91644,-3.60423 0.0865,-0.35669 0.28679,-0.6711 0.36658,-1.02978 0.18106,-0.81373 -0.0415,-1.75172 0.0917,-2.57442 0.16536,-1.02193 0.64151,-2.07548 0.64151,-3.08932" /><path id="path4877-5-01" style="fill:none;stroke:#000000;stroke-width:0.4576px" d="m 466.90467,620.29753 c 0,-0.17163 -0.019,-0.34457 0,-0.51485 0.0607,-0.54573 0.20574,-1.10343 0.27492,-1.64768 0.11093,-0.87255 -0.0283,-1.80156 0.0917,-2.67741 0.0338,-0.24699 0.15387,-0.47312 0.18328,-0.72085 0.17575,-1.48125 0,-3.13891 0,-4.63401 0,-1.1587 -0.16046,-2.47107 0.0916,-3.60419 0.26904,-1.2092 0.62435,-2.40073 0.91645,-3.60423 0.0865,-0.35668 0.28678,-0.67111 0.36658,-1.02978 0.18105,-0.81374 -0.0415,-1.75175 0.0916,-2.57441 0.16536,-1.02195 0.64151,-2.07554 0.64151,-3.08933" ns2:connector-curvature="0" ns2:original-d="m 466.90467,620.29753 c 0,-0.17163 -0.019,-0.34457 0,-0.51485 0.0607,-0.54573 0.20574,-1.10343 0.27492,-1.64768 0.11093,-0.87255 -0.0283,-1.80156 0.0917,-2.67741 0.0338,-0.24699 0.15387,-0.47312 0.18328,-0.72085 0.17575,-1.48125 0,-3.13891 0,-4.63401 0,-1.1587 -0.16046,-2.47107 0.0916,-3.60419 0.26904,-1.2092 0.62435,-2.40073 0.91645,-3.60423 0.0865,-0.35668 0.28678,-0.67111 0.36658,-1.02978 0.18105,-0.81374 -0.0415,-1.75175 0.0916,-2.57441 0.16536,-1.02195 0.64151,-2.07554 0.64151,-3.08933" /><path id="path4877-5-09" style="fill:none;stroke:#000000;stroke-width:0.4576px" d="m 469.76939,620.29753 c 0,-0.17163 -0.019,-0.34457 0,-0.51485 0.0607,-0.54573 0.20574,-1.10343 0.27493,-1.64768 0.11092,-0.87255 -0.0283,-1.80156 0.0917,-2.67741 0.0338,-0.24699 0.15389,-0.47312 0.18328,-0.72085 0.17576,-1.48125 0,-3.13891 0,-4.63401 0,-1.1587 -0.16046,-2.47107 0.0917,-3.60419 0.26902,-1.2092 0.62434,-2.40073 0.91644,-3.60423 0.0866,-0.35668 0.28679,-0.67111 0.36657,-1.02978 0.18106,-0.81374 -0.0414,-1.75175 0.0916,-2.57441 0.16537,-1.02195 0.64151,-2.07554 0.64151,-3.08933" ns2:connector-curvature="0" ns2:original-d="m 469.76939,620.29753 c 0,-0.17163 -0.019,-0.34457 0,-0.51485 0.0607,-0.54573 0.20574,-1.10343 0.27493,-1.64768 0.11092,-0.87255 -0.0283,-1.80156 0.0917,-2.67741 0.0338,-0.24699 0.15389,-0.47312 0.18328,-0.72085 0.17576,-1.48125 0,-3.13891 0,-4.63401 0,-1.1587 -0.16046,-2.47107 0.0917,-3.60419 0.26902,-1.2092 0.62434,-2.40073 0.91644,-3.60423 0.0866,-0.35668 0.28679,-0.67111 0.36657,-1.02978 0.18106,-0.81374 -0.0414,-1.75175 0.0916,-2.57441 0.16537,-1.02195 0.64151,-2.07554 0.64151,-3.08933" /><path id="path4877-5-31" style="fill:none;stroke:#000000;stroke-width:0.44455px" d="m 472.72003,619.84201 c 0,-0.16119 -0.0191,-0.3236 0,-0.48358 0.061,-0.51252 0.20676,-1.03629 0.27628,-1.54742 0.11147,-0.81948 -0.0284,-1.69199 0.0921,-2.51461 0.034,-0.23192 0.15465,-0.44435 0.18419,-0.67697 0.17661,-1.3912 0,-2.94803 0,-4.35221 0,-1.08822 -0.16125,-2.32076 0.0921,-3.38496 0.27035,-1.13569 0.62739,-2.25475 0.92092,-3.38503 0.0869,-0.335 0.28819,-0.63031 0.36838,-0.96713 0.18193,-0.76429 -0.0417,-1.64525 0.0922,-2.41789 0.16617,-0.95979 0.64465,-1.94929 0.64465,-2.90146" ns2:connector-curvature="0" ns2:original-d="m 472.72003,619.84201 c 0,-0.16119 -0.0191,-0.3236 0,-0.48358 0.061,-0.51252 0.20676,-1.03629 0.27628,-1.54742 0.11147,-0.81948 -0.0284,-1.69199 0.0921,-2.51461 0.034,-0.23192 0.15465,-0.44435 0.18419,-0.67697 0.17661,-1.3912 0,-2.94803 0,-4.35221 0,-1.08822 -0.16125,-2.32076 0.0921,-3.38496 0.27035,-1.13569 0.62739,-2.25475 0.92092,-3.38503 0.0869,-0.335 0.28819,-0.63031 0.36838,-0.96713 0.18193,-0.76429 -0.0417,-1.64525 0.0922,-2.41789 0.16617,-0.95979 0.64465,-1.94929 0.64465,-2.90146" /><path id="path4877-5-5" style="fill:none;stroke:#000000;stroke-width:0.43784px" d="m 474.56492,619.56812 c 0,-0.15597 -0.0191,-0.31316 0,-0.46789 0.0611,-0.49594 0.20725,-1.00279 0.27696,-1.49738 0.11175,-0.79293 -0.0285,-1.63723 0.0924,-2.43316 0.034,-0.22448 0.15504,-0.42999 0.18465,-0.65512 0.17706,-1.34614 0,-2.85257 0,-4.21125 0,-1.05302 -0.16165,-2.24569 0.0924,-3.27547 0.27102,-1.0989 0.62896,-2.18173 0.92322,-3.27544 0.0871,-0.32414 0.28892,-0.6099 0.3693,-0.93585 0.18239,-0.73953 -0.0418,-1.59196 0.0924,-2.33958 0.16659,-0.92874 0.64626,-1.88617 0.64626,-2.80751" ns2:connector-curvature="0" ns2:original-d="m 474.56492,619.56812 c 0,-0.15597 -0.0191,-0.31316 0,-0.46789 0.0611,-0.49594 0.20725,-1.00279 0.27696,-1.49738 0.11175,-0.79293 -0.0285,-1.63723 0.0924,-2.43316 0.034,-0.22448 0.15504,-0.42999 0.18465,-0.65512 0.17706,-1.34614 0,-2.85257 0,-4.21125 0,-1.05302 -0.16165,-2.24569 0.0924,-3.27547 0.27102,-1.0989 0.62896,-2.18173 0.92322,-3.27544 0.0871,-0.32414 0.28892,-0.6099 0.3693,-0.93585 0.18239,-0.73953 -0.0418,-1.59196 0.0924,-2.33958 0.16659,-0.92874 0.64626,-1.88617 0.64626,-2.80751" /><path id="path4877-5-92" style="fill:none;stroke:#000000;stroke-width:0.38614px" d="m 476.57063,618.85471 c 0,-0.14317 -0.0161,-0.28746 0,-0.42954 0.0518,-0.45524 0.17561,-0.92052 0.23467,-1.37448 0.0946,-0.72791 -0.0242,-1.50296 0.0782,-2.23359 0.0288,-0.20607 0.13137,-0.39472 0.15645,-0.60135 0.15002,-1.23572 0,-2.61857 0,-3.86582 0,-0.96661 -0.13696,-2.06146 0.0782,-3.00674 0.22963,-1.00875 0.53291,-2.00275 0.78223,-3.00672 0.0739,-0.29756 0.24478,-0.55987 0.3129,-0.85909 0.15453,-0.67884 -0.0354,-1.46133 0.0782,-2.14765 0.14113,-0.85253 0.54756,-1.73143 0.54756,-2.5772" ns2:connector-curvature="0" ns2:original-d="m 476.57063,618.85471 c 0,-0.14317 -0.0161,-0.28746 0,-0.42954 0.0518,-0.45524 0.17561,-0.92052 0.23467,-1.37448 0.0946,-0.72791 -0.0242,-1.50296 0.0782,-2.23359 0.0288,-0.20607 0.13137,-0.39472 0.15645,-0.60135 0.15002,-1.23572 0,-2.61857 0,-3.86582 0,-0.96661 -0.13696,-2.06146 0.0782,-3.00674 0.22963,-1.00875 0.53291,-2.00275 0.78223,-3.00672 0.0739,-0.29756 0.24478,-0.55987 0.3129,-0.85909 0.15453,-0.67884 -0.0354,-1.46133 0.0782,-2.14765 0.14113,-0.85253 0.54756,-1.73143 0.54756,-2.5772" /><path id="path4877-8" style="fill:none;stroke:#ffffff;stroke-width:0.42754px" d="m 429.04299,616.31582 c 0,-0.14813 -0.0191,-0.29744 0,-0.44444 0.0613,-0.47102 0.20806,-0.95246 0.27803,-1.42223 0.11218,-0.75315 -0.0286,-1.5551 0.0927,-2.31111 0.0342,-0.2132 0.15564,-0.40839 0.18537,-0.62221 0.17773,-1.27863 0,-2.7095 0,-4 0,-1.00023 -0.16228,-2.13303 0.0927,-3.11115 0.27207,-1.04378 0.6314,-2.0723 0.92678,-3.11112 0.0875,-0.30788 0.29002,-0.5793 0.3707,-0.88888 0.1831,-0.70243 -0.0419,-1.51208 0.0927,-2.22222 0.16722,-0.88217 0.64874,-1.79153 0.64874,-2.6667" ns2:connector-curvature="0" ns2:original-d="m 429.04299,616.31582 c 0,-0.14813 -0.0191,-0.29744 0,-0.44444 0.0613,-0.47102 0.20806,-0.95246 0.27803,-1.42223 0.11218,-0.75315 -0.0286,-1.5551 0.0927,-2.31111 0.0342,-0.2132 0.15564,-0.40839 0.18537,-0.62221 0.17773,-1.27863 0,-2.7095 0,-4 0,-1.00023 -0.16228,-2.13303 0.0927,-3.11115 0.27207,-1.04378 0.6314,-2.0723 0.92678,-3.11112 0.0875,-0.30788 0.29002,-0.5793 0.3707,-0.88888 0.1831,-0.70243 -0.0419,-1.51208 0.0927,-2.22222 0.16722,-0.88217 0.64874,-1.79153 0.64874,-2.6667" /><path id="path4877-4-0" style="fill:none;stroke:#ffffff;stroke-width:0.43529px" d="m 431.59285,616.86642 c 0,-0.154 -0.0191,-0.30923 0,-0.46207 0.0612,-0.4897 0.20746,-0.99016 0.27722,-1.47856 0.11187,-0.78301 -0.0285,-1.61668 0.0925,-2.40264 0.034,-0.22166 0.15519,-0.42459 0.18481,-0.6469 0.17724,-1.32925 0,-2.81678 0,-4.15845 0,-1.03984 -0.1618,-2.21753 0.0924,-3.23436 0.27128,-1.08511 0.62958,-2.15437 0.92412,-3.23437 0.0873,-0.32008 0.28918,-0.60223 0.36964,-0.92409 0.18256,-0.73024 -0.0418,-1.57198 0.0924,-2.31024 0.16674,-0.91708 0.64688,-1.86253 0.64688,-2.77235" ns2:connector-curvature="0" ns2:original-d="m 431.59285,616.86642 c 0,-0.154 -0.0191,-0.30923 0,-0.46207 0.0612,-0.4897 0.20746,-0.99016 0.27722,-1.47856 0.11187,-0.78301 -0.0285,-1.61668 0.0925,-2.40264 0.034,-0.22166 0.15519,-0.42459 0.18481,-0.6469 0.17724,-1.32925 0,-2.81678 0,-4.15845 0,-1.03984 -0.1618,-2.21753 0.0924,-3.23436 0.27128,-1.08511 0.62958,-2.15437 0.92412,-3.23437 0.0873,-0.32008 0.28918,-0.60223 0.36964,-0.92409 0.18256,-0.73024 -0.0418,-1.57198 0.0924,-2.31024 0.16674,-0.91708 0.64688,-1.86253 0.64688,-2.77235" /><path id="path4877-5-927" style="fill:none;stroke:#ffffff;stroke-width:0.4576px" d="m 434.19142,618.42625 c 0,-0.17163 -0.019,-0.34457 0,-0.5149 0.0607,-0.54569 0.20573,-1.10343 0.27493,-1.64763 0.11092,-0.87256 -0.0283,-1.80161 0.0917,-2.6774 0.0338,-0.24701 0.1539,-0.47318 0.18328,-0.72086 0.17577,-1.48126 0,-3.13895 0,-4.63402 0,-1.1587 -0.16046,-2.47108 0.0917,-3.60418 0.26902,-1.20926 0.62433,-2.40077 0.91643,-3.60424 0.0866,-0.35668 0.28679,-0.67114 0.36658,-1.02978 0.18106,-0.81378 -0.0414,-1.75175 0.0916,-2.57446 0.16537,-1.02194 0.64152,-2.07548 0.64152,-3.08933" ns2:connector-curvature="0" ns2:original-d="m 434.19142,618.42625 c 0,-0.17163 -0.019,-0.34457 0,-0.5149 0.0607,-0.54569 0.20573,-1.10343 0.27493,-1.64763 0.11092,-0.87256 -0.0283,-1.80161 0.0917,-2.6774 0.0338,-0.24701 0.1539,-0.47318 0.18328,-0.72086 0.17577,-1.48126 0,-3.13895 0,-4.63402 0,-1.1587 -0.16046,-2.47108 0.0917,-3.60418 0.26902,-1.20926 0.62433,-2.40077 0.91643,-3.60424 0.0866,-0.35668 0.28679,-0.67114 0.36658,-1.02978 0.18106,-0.81378 -0.0414,-1.75175 0.0916,-2.57446 0.16537,-1.02194 0.64152,-2.07548 0.64152,-3.08933" /><path id="path4877-6-2" style="fill:none;stroke:#ffffff;stroke-width:0.37792px" d="m 426.94222,615.18553 c 0,-0.13668 -0.0162,-0.27437 0,-0.40995 0.0519,-0.43451 0.17625,-0.87861 0.23551,-1.31189 0.0951,-0.69478 -0.0242,-1.43448 0.0785,-2.13182 0.0289,-0.19666 0.13183,-0.37675 0.15702,-0.57397 0.15055,-1.17939 0,-2.49924 0,-3.68964 0,-0.92261 -0.13746,-1.96753 0.0785,-2.86977 0.23047,-0.96278 0.53484,-1.9115 0.78505,-2.86976 0.0741,-0.28399 0.24568,-0.53433 0.31402,-0.81992 0.1551,-0.64794 -0.0356,-1.39478 0.0785,-2.0498 0.14165,-0.8137 0.54953,-1.65255 0.54953,-2.45981" ns2:connector-curvature="0" ns2:original-d="m 426.94222,615.18553 c 0,-0.13668 -0.0162,-0.27437 0,-0.40995 0.0519,-0.43451 0.17625,-0.87861 0.23551,-1.31189 0.0951,-0.69478 -0.0242,-1.43448 0.0785,-2.13182 0.0289,-0.19666 0.13183,-0.37675 0.15702,-0.57397 0.15055,-1.17939 0,-2.49924 0,-3.68964 0,-0.92261 -0.13746,-1.96753 0.0785,-2.86977 0.23047,-0.96278 0.53484,-1.9115 0.78505,-2.86976 0.0741,-0.28399 0.24568,-0.53433 0.31402,-0.81992 0.1551,-0.64794 -0.0356,-1.39478 0.0785,-2.0498 0.14165,-0.8137 0.54953,-1.65255 0.54953,-2.45981" /><path id="path4877-5-2-7" style="fill:none;stroke:#ffffff;stroke-width:0.4576px" d="m 437.79543,618.65727 c 0,-0.17165 -0.019,-0.34459 0,-0.51487 0.0607,-0.54573 0.20575,-1.10343 0.27493,-1.64767 0.11093,-0.87255 -0.0283,-1.80156 0.0917,-2.67742 0.0338,-0.24698 0.15389,-0.47311 0.18329,-0.72083 0.17575,-1.48127 0,-3.13892 0,-4.63402 0,-1.15871 -0.16046,-2.47108 0.0916,-3.6042 0.26902,-1.20919 0.62434,-2.40073 0.91644,-3.60423 0.0866,-0.35668 0.28679,-0.6711 0.36657,-1.02978 0.18106,-0.81374 -0.0414,-1.75176 0.0917,-2.57441 0.16536,-1.02195 0.6415,-2.07553 0.6415,-3.08933" ns2:connector-curvature="0" ns2:original-d="m 437.79543,618.65727 c 0,-0.17165 -0.019,-0.34459 0,-0.51487 0.0607,-0.54573 0.20575,-1.10343 0.27493,-1.64767 0.11093,-0.87255 -0.0283,-1.80156 0.0917,-2.67742 0.0338,-0.24698 0.15389,-0.47311 0.18329,-0.72083 0.17575,-1.48127 0,-3.13892 0,-4.63402 0,-1.15871 -0.16046,-2.47108 0.0916,-3.6042 0.26902,-1.20919 0.62434,-2.40073 0.91644,-3.60423 0.0866,-0.35668 0.28679,-0.6711 0.36657,-1.02978 0.18106,-0.81374 -0.0414,-1.75176 0.0917,-2.57441 0.16536,-1.02195 0.6415,-2.07553 0.6415,-3.08933" /><path id="path4877-5-9-6" style="fill:none;stroke:#ffffff;stroke-width:0.4576px" d="m 441.30703,618.8421 c 0,-0.17164 -0.019,-0.34459 0,-0.51492 0.0607,-0.54568 0.20573,-1.10338 0.27493,-1.64763 0.11093,-0.87255 -0.0283,-1.80155 0.0916,-2.67741 0.0338,-0.24698 0.1539,-0.47316 0.18329,-0.72084 0.17577,-1.48127 0,-3.13892 0,-4.63401 0,-1.15872 -0.16046,-2.47108 0.0916,-3.6042 0.26903,-1.2092 0.62434,-2.40074 0.91644,-3.60424 0.0865,-0.35667 0.28678,-0.67108 0.36658,-1.02977 0.18105,-0.81375 -0.0415,-1.75176 0.0915,-2.57442 0.16536,-1.02199 0.64152,-2.07553 0.64152,-3.08932" ns2:connector-curvature="0" ns2:original-d="m 441.30703,618.8421 c 0,-0.17164 -0.019,-0.34459 0,-0.51492 0.0607,-0.54568 0.20573,-1.10338 0.27493,-1.64763 0.11093,-0.87255 -0.0283,-1.80155 0.0916,-2.67741 0.0338,-0.24698 0.1539,-0.47316 0.18329,-0.72084 0.17577,-1.48127 0,-3.13892 0,-4.63401 0,-1.15872 -0.16046,-2.47108 0.0916,-3.6042 0.26903,-1.2092 0.62434,-2.40074 0.91644,-3.60424 0.0865,-0.35667 0.28678,-0.67108 0.36658,-1.02977 0.18105,-0.81375 -0.0415,-1.75176 0.0915,-2.57442 0.16536,-1.02199 0.64152,-2.07553 0.64152,-3.08932" /><path id="path4877-5-7-0" style="fill:none;stroke:#ffffff;stroke-width:0.4576px" d="m 445.00344,619.11933 c 0,-0.17164 -0.019,-0.34458 0,-0.51491 0.0607,-0.54569 0.20574,-1.10343 0.27493,-1.64763 0.11092,-0.87255 -0.0283,-1.8016 0.0917,-2.6774 0.0338,-0.24699 0.1539,-0.47318 0.18329,-0.72085 0.17575,-1.48127 0,-3.13895 0,-4.63402 0,-1.1587 -0.16046,-2.47108 0.0917,-3.60419 0.26902,-1.20925 0.62433,-2.40078 0.91643,-3.60424 0.0865,-0.35667 0.28679,-0.67113 0.36658,-1.02977 0.18105,-0.81378 -0.0415,-1.75176 0.0916,-2.57447 0.16536,-1.02193 0.64151,-2.07547 0.64151,-3.08933" ns2:connector-curvature="0" ns2:original-d="m 445.00344,619.11933 c 0,-0.17164 -0.019,-0.34458 0,-0.51491 0.0607,-0.54569 0.20574,-1.10343 0.27493,-1.64763 0.11092,-0.87255 -0.0283,-1.8016 0.0917,-2.6774 0.0338,-0.24699 0.1539,-0.47318 0.18329,-0.72085 0.17575,-1.48127 0,-3.13895 0,-4.63402 0,-1.1587 -0.16046,-2.47108 0.0917,-3.60419 0.26902,-1.20925 0.62433,-2.40078 0.91643,-3.60424 0.0865,-0.35667 0.28679,-0.67113 0.36658,-1.02977 0.18105,-0.81378 -0.0415,-1.75176 0.0916,-2.57447 0.16536,-1.02193 0.64151,-2.07547 0.64151,-3.08933" /><path id="path4877-5-0-2" style="fill:none;stroke:#ffffff;stroke-width:0.4576px" d="m 448.51503,619.11933 c 0,-0.17164 -0.019,-0.34458 0,-0.51491 0.0607,-0.54569 0.20574,-1.10343 0.27492,-1.64763 0.11094,-0.87255 -0.0283,-1.8016 0.0916,-2.6774 0.0338,-0.24699 0.15389,-0.47318 0.18329,-0.72085 0.17576,-1.48127 0,-3.13895 0,-4.63402 0,-1.1587 -0.16046,-2.47108 0.0917,-3.60419 0.26902,-1.20925 0.62435,-2.40078 0.91643,-3.60424 0.0865,-0.35667 0.28679,-0.67113 0.36659,-1.02977 0.18106,-0.81378 -0.0414,-1.75176 0.0917,-2.57447 0.16536,-1.02193 0.64152,-2.07547 0.64152,-3.08933" ns2:connector-curvature="0" ns2:original-d="m 448.51503,619.11933 c 0,-0.17164 -0.019,-0.34458 0,-0.51491 0.0607,-0.54569 0.20574,-1.10343 0.27492,-1.64763 0.11094,-0.87255 -0.0283,-1.8016 0.0916,-2.6774 0.0338,-0.24699 0.15389,-0.47318 0.18329,-0.72085 0.17576,-1.48127 0,-3.13895 0,-4.63402 0,-1.1587 -0.16046,-2.47108 0.0917,-3.60419 0.26902,-1.20925 0.62435,-2.40078 0.91643,-3.60424 0.0865,-0.35667 0.28679,-0.67113 0.36659,-1.02977 0.18106,-0.81378 -0.0414,-1.75176 0.0917,-2.57447 0.16536,-1.02193 0.64152,-2.07547 0.64152,-3.08933" /><path id="path4877-5-26-5" style="fill:none;stroke:#ffffff;stroke-width:0.4576px" d="m 451.8418,619.39657 c 0,-0.17164 -0.019,-0.34463 0,-0.5149 0.0607,-0.5457 0.20573,-1.10343 0.27493,-1.64765 0.11093,-0.87254 -0.0283,-1.80159 0.0915,-2.67745 0.0338,-0.24698 0.1539,-0.47311 0.18329,-0.72084 0.17577,-1.48126 0,-3.13891 0,-4.63397 0,-1.15871 -0.16046,-2.47108 0.0917,-3.60424 0.26903,-1.2092 0.62435,-2.40073 0.91644,-3.60418 0.0865,-0.35669 0.28678,-0.67114 0.36658,-1.02978 0.18105,-0.81379 -0.0415,-1.75175 0.0917,-2.57446 0.16536,-1.02194 0.64151,-2.07549 0.64151,-3.08933" ns2:connector-curvature="0" ns2:original-d="m 451.8418,619.39657 c 0,-0.17164 -0.019,-0.34463 0,-0.5149 0.0607,-0.5457 0.20573,-1.10343 0.27493,-1.64765 0.11093,-0.87254 -0.0283,-1.80159 0.0915,-2.67745 0.0338,-0.24698 0.1539,-0.47311 0.18329,-0.72084 0.17577,-1.48126 0,-3.13891 0,-4.63397 0,-1.15871 -0.16046,-2.47108 0.0917,-3.60424 0.26903,-1.2092 0.62435,-2.40073 0.91644,-3.60418 0.0865,-0.35669 0.28678,-0.67114 0.36658,-1.02978 0.18105,-0.81379 -0.0415,-1.75175 0.0917,-2.57446 0.16536,-1.02194 0.64151,-2.07549 0.64151,-3.08933" /><path id="path4877-5-3-5" style="fill:none;stroke:#ffffff;stroke-width:0.4576px" d="m 454.98374,619.58135 c 0,-0.17164 -0.019,-0.34458 0,-0.51486 0.0607,-0.5457 0.20575,-1.10343 0.27494,-1.64763 0.11093,-0.87255 -0.0283,-1.8016 0.0916,-2.67746 0.0338,-0.24699 0.15389,-0.47312 0.18329,-0.72084 0.17575,-1.48126 0,-3.13891 0,-4.63398 0,-1.15875 -0.16046,-2.47108 0.0916,-3.60422 0.26904,-1.20922 0.62435,-2.40074 0.91645,-3.6042 0.0865,-0.35669 0.28678,-0.67113 0.36656,-1.02978 0.18106,-0.81378 -0.0414,-1.75175 0.0917,-2.57446 0.16535,-1.02194 0.6415,-2.07548 0.6415,-3.08933" ns2:connector-curvature="0" ns2:original-d="m 454.98374,619.58135 c 0,-0.17164 -0.019,-0.34458 0,-0.51486 0.0607,-0.5457 0.20575,-1.10343 0.27494,-1.64763 0.11093,-0.87255 -0.0283,-1.8016 0.0916,-2.67746 0.0338,-0.24699 0.15389,-0.47312 0.18329,-0.72084 0.17575,-1.48126 0,-3.13891 0,-4.63398 0,-1.15875 -0.16046,-2.47108 0.0916,-3.60422 0.26904,-1.20922 0.62435,-2.40074 0.91645,-3.6042 0.0865,-0.35669 0.28678,-0.67113 0.36656,-1.02978 0.18106,-0.81378 -0.0414,-1.75175 0.0917,-2.57446 0.16535,-1.02194 0.6415,-2.07548 0.6415,-3.08933" /><path id="path4877-5-94-5" style="fill:none;stroke:#ffffff;stroke-width:0.4576px" d="m 458.31051,619.95101 c 0,-0.17165 -0.019,-0.34458 0,-0.51487 0.0607,-0.54573 0.20574,-1.10343 0.27493,-1.64769 0.11093,-0.87253 -0.0283,-1.80154 0.0917,-2.6774 0.0338,-0.24698 0.15388,-0.47311 0.18328,-0.72084 0.17576,-1.48126 0,-3.1389 0,-4.63402 0,-1.15871 -0.16046,-2.47108 0.0915,-3.60419 0.26904,-1.2092 0.62435,-2.40073 0.91645,-3.60423 0.0865,-0.35668 0.28678,-0.67109 0.36658,-1.02978 0.18104,-0.81373 -0.0415,-1.75175 0.0917,-2.57442 0.16536,-1.02194 0.64151,-2.07552 0.64151,-3.08933" ns2:connector-curvature="0" ns2:original-d="m 458.31051,619.95101 c 0,-0.17165 -0.019,-0.34458 0,-0.51487 0.0607,-0.54573 0.20574,-1.10343 0.27493,-1.64769 0.11093,-0.87253 -0.0283,-1.80154 0.0917,-2.6774 0.0338,-0.24698 0.15388,-0.47311 0.18328,-0.72084 0.17576,-1.48126 0,-3.1389 0,-4.63402 0,-1.15871 -0.16046,-2.47108 0.0915,-3.60419 0.26904,-1.2092 0.62435,-2.40073 0.91645,-3.60423 0.0865,-0.35668 0.28678,-0.67109 0.36658,-1.02978 0.18104,-0.81373 -0.0415,-1.75175 0.0917,-2.57442 0.16536,-1.02194 0.64151,-2.07552 0.64151,-3.08933" /><path id="path4877-5-02-0" style="fill:none;stroke:#ffffff;stroke-width:0.4576px" d="m 461.36006,620.41306 c 0,-0.17163 -0.019,-0.34457 0,-0.51489 0.0607,-0.5457 0.20573,-1.10343 0.27492,-1.64765 0.11093,-0.87253 -0.0283,-1.80154 0.0916,-2.6774 0.0338,-0.24699 0.15389,-0.47316 0.18329,-0.72085 0.17576,-1.48125 0,-3.13895 0,-4.63401 0,-1.15871 -0.16046,-2.47108 0.0916,-3.6042 0.26903,-1.2092 0.62435,-2.40077 0.91644,-3.60423 0.0865,-0.35669 0.28678,-0.67109 0.36659,-1.02977 0.18105,-0.81379 -0.0415,-1.75176 0.0916,-2.57446 0.16536,-1.02194 0.64152,-2.07548 0.64152,-3.08933" ns2:connector-curvature="0" ns2:original-d="m 461.36006,620.41306 c 0,-0.17163 -0.019,-0.34457 0,-0.51489 0.0607,-0.5457 0.20573,-1.10343 0.27492,-1.64765 0.11093,-0.87253 -0.0283,-1.80154 0.0916,-2.6774 0.0338,-0.24699 0.15389,-0.47316 0.18329,-0.72085 0.17576,-1.48125 0,-3.13895 0,-4.63401 0,-1.15871 -0.16046,-2.47108 0.0916,-3.6042 0.26903,-1.2092 0.62435,-2.40077 0.91644,-3.60423 0.0865,-0.35669 0.28678,-0.67109 0.36659,-1.02977 0.18105,-0.81379 -0.0415,-1.75176 0.0916,-2.57446 0.16536,-1.02194 0.64152,-2.07548 0.64152,-3.08933" /><path id="path4877-5-90-1" style="fill:none;stroke:#ffffff;stroke-width:0.4576px" d="m 464.50201,620.32066 c 0,-0.17163 -0.019,-0.34458 0,-0.51492 0.0607,-0.54568 0.20574,-1.10338 0.27493,-1.64762 0.11092,-0.87255 -0.0283,-1.80156 0.0916,-2.67741 0.0338,-0.24699 0.15389,-0.47317 0.18329,-0.72085 0.17576,-1.48127 0,-3.1389 0,-4.63401 0,-1.15872 -0.16046,-2.47108 0.0916,-3.60419 0.26903,-1.20921 0.62434,-2.40074 0.91644,-3.60424 0.0865,-0.35668 0.28679,-0.67109 0.36657,-1.02978 0.18106,-0.81374 -0.0414,-1.75175 0.0917,-2.57442 0.16536,-1.02198 0.6415,-2.07553 0.6415,-3.08932" ns2:connector-curvature="0" ns2:original-d="m 464.50201,620.32066 c 0,-0.17163 -0.019,-0.34458 0,-0.51492 0.0607,-0.54568 0.20574,-1.10338 0.27493,-1.64762 0.11092,-0.87255 -0.0283,-1.80156 0.0916,-2.67741 0.0338,-0.24699 0.15389,-0.47317 0.18329,-0.72085 0.17576,-1.48127 0,-3.1389 0,-4.63401 0,-1.15872 -0.16046,-2.47108 0.0916,-3.60419 0.26903,-1.20921 0.62434,-2.40074 0.91644,-3.60424 0.0865,-0.35668 0.28679,-0.67109 0.36657,-1.02978 0.18106,-0.81374 -0.0414,-1.75175 0.0917,-2.57442 0.16536,-1.02198 0.6415,-2.07553 0.6415,-3.08932" /><path id="path4877-5-01-2" style="fill:none;stroke:#ffffff;stroke-width:0.4576px" d="m 467.45914,620.50548 c 0,-0.17163 -0.019,-0.34457 0,-0.51491 0.0607,-0.54569 0.20573,-1.10343 0.27492,-1.64763 0.11093,-0.87255 -0.0283,-1.8016 0.0917,-2.67741 0.0338,-0.24699 0.1539,-0.47316 0.18328,-0.72085 0.17576,-1.48126 0,-3.13894 0,-4.63401 0,-1.15872 -0.16046,-2.47108 0.0917,-3.60418 0.26901,-1.20926 0.62433,-2.40079 0.91643,-3.60424 0.0865,-0.35669 0.28679,-0.67114 0.36658,-1.02979 0.18105,-0.81377 -0.0414,-1.75175 0.0917,-2.57446 0.16535,-1.02194 0.6415,-2.07548 0.6415,-3.08932" ns2:connector-curvature="0" ns2:original-d="m 467.45914,620.50548 c 0,-0.17163 -0.019,-0.34457 0,-0.51491 0.0607,-0.54569 0.20573,-1.10343 0.27492,-1.64763 0.11093,-0.87255 -0.0283,-1.8016 0.0917,-2.67741 0.0338,-0.24699 0.1539,-0.47316 0.18328,-0.72085 0.17576,-1.48126 0,-3.13894 0,-4.63401 0,-1.15872 -0.16046,-2.47108 0.0917,-3.60418 0.26901,-1.20926 0.62433,-2.40079 0.91643,-3.60424 0.0865,-0.35669 0.28679,-0.67114 0.36658,-1.02979 0.18105,-0.81377 -0.0414,-1.75175 0.0917,-2.57446 0.16535,-1.02194 0.6415,-2.07548 0.6415,-3.08932" /><path id="path4877-5-09-6" style="fill:none;stroke:#ffffff;stroke-width:0.4576px" d="m 470.32386,620.50548 c 0,-0.17163 -0.019,-0.34457 0,-0.51491 0.0607,-0.54569 0.20573,-1.10343 0.27492,-1.64763 0.11094,-0.87255 -0.0283,-1.8016 0.0917,-2.67741 0.0338,-0.24699 0.1539,-0.47316 0.18328,-0.72085 0.17577,-1.48126 0,-3.13894 0,-4.63401 0,-1.15872 -0.16046,-2.47108 0.0917,-3.60418 0.26903,-1.20926 0.62434,-2.40079 0.91644,-3.60424 0.0865,-0.35669 0.28678,-0.67114 0.36657,-1.02979 0.18105,-0.81377 -0.0414,-1.75175 0.0916,-2.57446 0.16536,-1.02194 0.64151,-2.07548 0.64151,-3.08932" ns2:connector-curvature="0" ns2:original-d="m 470.32386,620.50548 c 0,-0.17163 -0.019,-0.34457 0,-0.51491 0.0607,-0.54569 0.20573,-1.10343 0.27492,-1.64763 0.11094,-0.87255 -0.0283,-1.8016 0.0917,-2.67741 0.0338,-0.24699 0.1539,-0.47316 0.18328,-0.72085 0.17577,-1.48126 0,-3.13894 0,-4.63401 0,-1.15872 -0.16046,-2.47108 0.0917,-3.60418 0.26903,-1.20926 0.62434,-2.40079 0.91644,-3.60424 0.0865,-0.35669 0.28678,-0.67114 0.36657,-1.02979 0.18105,-0.81377 -0.0414,-1.75175 0.0916,-2.57446 0.16536,-1.02194 0.64151,-2.07548 0.64151,-3.08932" /><path id="path4877-5-31-4" style="fill:none;stroke:#ffffff;stroke-width:0.44455px" d="m 473.27451,620.04996 c 0,-0.16121 -0.0191,-0.32366 0,-0.48358 0.061,-0.51252 0.20674,-1.0363 0.27627,-1.54742 0.11146,-0.81949 -0.0284,-1.69204 0.0921,-2.51462 0.034,-0.23197 0.15466,-0.44435 0.18419,-0.67701 0.17661,-1.39116 0,-2.94798 0,-4.35216 0,-1.08824 -0.16125,-2.32077 0.0922,-3.38502 0.27033,-1.13564 0.62739,-2.25473 0.92091,-3.38502 0.0869,-0.33496 0.28818,-0.63026 0.36838,-0.96714 0.18194,-0.76424 -0.0417,-1.6452 0.0922,-2.41784 0.16616,-0.95983 0.64464,-1.9493 0.64464,-2.90145" ns2:connector-curvature="0" ns2:original-d="m 473.27451,620.04996 c 0,-0.16121 -0.0191,-0.32366 0,-0.48358 0.061,-0.51252 0.20674,-1.0363 0.27627,-1.54742 0.11146,-0.81949 -0.0284,-1.69204 0.0921,-2.51462 0.034,-0.23197 0.15466,-0.44435 0.18419,-0.67701 0.17661,-1.39116 0,-2.94798 0,-4.35216 0,-1.08824 -0.16125,-2.32077 0.0922,-3.38502 0.27033,-1.13564 0.62739,-2.25473 0.92091,-3.38502 0.0869,-0.33496 0.28818,-0.63026 0.36838,-0.96714 0.18194,-0.76424 -0.0417,-1.6452 0.0922,-2.41784 0.16616,-0.95983 0.64464,-1.9493 0.64464,-2.90145" /><path id="path4877-5-5-0" style="fill:none;stroke:#ffffff;stroke-width:0.43784px" d="m 475.11939,619.77605 c 0,-0.15595 -0.0191,-0.31314 0,-0.4679 0.0611,-0.49592 0.20725,-1.00278 0.27695,-1.49735 0.11175,-0.79294 -0.0285,-1.63724 0.0924,-2.43318 0.034,-0.22447 0.15503,-0.42998 0.18464,-0.6551 0.17706,-1.34617 0,-2.85258 0,-4.21131 0,-1.05301 -0.16165,-2.24564 0.0924,-3.27541 0.27102,-1.0989 0.62897,-2.18174 0.92323,-3.27547 0.0871,-0.32411 0.28891,-0.60987 0.36929,-0.93583 0.18239,-0.73952 -0.0418,-1.59196 0.0924,-2.33957 0.16659,-0.92875 0.64626,-1.88617 0.64626,-2.80757" ns2:connector-curvature="0" ns2:original-d="m 475.11939,619.77605 c 0,-0.15595 -0.0191,-0.31314 0,-0.4679 0.0611,-0.49592 0.20725,-1.00278 0.27695,-1.49735 0.11175,-0.79294 -0.0285,-1.63724 0.0924,-2.43318 0.034,-0.22447 0.15503,-0.42998 0.18464,-0.6551 0.17706,-1.34617 0,-2.85258 0,-4.21131 0,-1.05301 -0.16165,-2.24564 0.0924,-3.27541 0.27102,-1.0989 0.62897,-2.18174 0.92323,-3.27547 0.0871,-0.32411 0.28891,-0.60987 0.36929,-0.93583 0.18239,-0.73952 -0.0418,-1.59196 0.0924,-2.33957 0.16659,-0.92875 0.64626,-1.88617 0.64626,-2.80757" /><path id="path4877-5-92-2" style="fill:none;stroke:#ffffff;stroke-width:0.38614px" d="m 477.12511,619.06265 c 0,-0.14321 -0.0163,-0.28746 0,-0.42955 0.0518,-0.45522 0.17559,-0.92051 0.23466,-1.37452 0.0946,-0.72789 -0.0242,-1.5029 0.0782,-2.23358 0.0288,-0.20602 0.13136,-0.39469 0.15644,-0.60132 0.15003,-1.23572 0,-2.61859 0,-3.86581 0,-0.96664 -0.13696,-2.06145 0.0782,-3.00673 0.22963,-1.00877 0.53292,-2.00275 0.78223,-3.00676 0.0739,-0.29753 0.24478,-0.55983 0.31289,-0.85906 0.15455,-0.67884 -0.0354,-1.46137 0.0782,-2.14766 0.14115,-0.85256 0.54756,-1.73142 0.54756,-2.5772" ns2:connector-curvature="0" ns2:original-d="m 477.12511,619.06265 c 0,-0.14321 -0.0163,-0.28746 0,-0.42955 0.0518,-0.45522 0.17559,-0.92051 0.23466,-1.37452 0.0946,-0.72789 -0.0242,-1.5029 0.0782,-2.23358 0.0288,-0.20602 0.13136,-0.39469 0.15644,-0.60132 0.15003,-1.23572 0,-2.61859 0,-3.86581 0,-0.96664 -0.13696,-2.06145 0.0782,-3.00673 0.22963,-1.00877 0.53292,-2.00275 0.78223,-3.00676 0.0739,-0.29753 0.24478,-0.55983 0.31289,-0.85906 0.15455,-0.67884 -0.0354,-1.46137 0.0782,-2.14766 0.14115,-0.85256 0.54756,-1.73142 0.54756,-2.5772" /><ellipse id="path5212" style="color:#000000;fill:#1a1a1a;fill-opacity:0.48525" transform="matrix(0.43529,0,0,0.26496,222.34,494.15)" cx="558.98724" cy="375.30771" rx="3.619993" ry="3.4691598" /><ellipse id="path5214" style="color:#000000;fill:#ffffff;fill-opacity:0.48525" transform="matrix(0.28389,0,0,0.26496,305.59,489.76)" cx="566.37805" cy="392.05017" rx="3.4691598" ry="3.0166607" /><ellipse id="path5212-7" style="color:#000000;fill:#1a1a1a;fill-opacity:0.48525" transform="matrix(0.31341,0,0,0.26496,255.56,494.29)" cx="558.98724" cy="375.30771" rx="3.619993" ry="3.4691598" /><ellipse id="path5214-4" style="color:#000000;fill:#ffffff;fill-opacity:0.48525" transform="matrix(0.2044,0,0,0.26496,315.5,489.89)" cx="566.37805" cy="392.05017" rx="3.4691598" ry="3.0166607" /><ellipse id="path5212-6" style="color:#000000;fill:#1a1a1a;fill-opacity:0.48525" transform="matrix(0.43529,0,0,0.26496,191.81,491.27)" cx="558.98724" cy="375.30771" rx="3.619993" ry="3.4691598" /><ellipse id="path5214-6" style="color:#000000;fill:#ffffff;fill-opacity:0.48525" transform="matrix(0.28389,0,0,0.26496,275.06,486.87)" cx="566.37805" cy="392.05017" rx="3.4691598" ry="3.0166607" /><ellipse id="path5212-60" style="color:#000000;fill:#1a1a1a;fill-opacity:0.48525" transform="matrix(0.43529,0,0,0.26496,193.25,494.02)" cx="558.98724" cy="375.30771" rx="3.619993" ry="3.4691598" /><ellipse id="path5214-68" style="color:#000000;fill:#ffffff;fill-opacity:0.48525" transform="matrix(0.28389,0,0,0.26496,276.51,489.63)" cx="566.37805" cy="392.05017" rx="3.4691598" ry="3.0166607" /><ellipse id="path5212-4" style="color:#000000;fill:#1a1a1a;fill-opacity:0.48525" transform="matrix(0.43529,0,0,0.26496,196.27,491)" cx="558.98724" cy="375.30771" rx="3.619993" ry="3.4691598" /><ellipse id="path5214-0" style="color:#000000;fill:#ffffff;fill-opacity:0.48525" transform="matrix(0.28389,0,0,0.26496,279.53,486.61)" cx="566.37805" cy="392.05017" rx="3.4691598" ry="3.0166607" /><ellipse id="path5212-2" style="color:#000000;fill:#1a1a1a;fill-opacity:0.48525" transform="matrix(0.43529,0,0,0.26496,198.76,493.24)" cx="558.98724" cy="375.30771" rx="3.619993" ry="3.4691598" /><ellipse id="path5214-1" style="color:#000000;fill:#ffffff;fill-opacity:0.48525" transform="matrix(0.28389,0,0,0.26496,282.02,488.84)" cx="566.37805" cy="392.05017" rx="3.4691598" ry="3.0166607" /><ellipse id="path5212-22" style="color:#000000;fill:#1a1a1a;fill-opacity:0.48525" transform="matrix(0.43529,0,0,0.26496,200.87,491.13)" cx="558.98724" cy="375.30771" rx="3.619993" ry="3.4691598" /><ellipse id="path5214-9" style="color:#000000;fill:#ffffff;fill-opacity:0.48525" transform="matrix(0.28389,0,0,0.26496,284.12,486.74)" cx="566.37805" cy="392.05017" rx="3.4691598" ry="3.0166607" /><ellipse id="path5212-0" style="color:#000000;fill:#1a1a1a;fill-opacity:0.48525" transform="matrix(0.43529,0,0,0.26496,204.02,493.76)" cx="558.98724" cy="375.30771" rx="3.619993" ry="3.4691598" /><ellipse id="path5214-66" style="color:#000000;fill:#ffffff;fill-opacity:0.48525" transform="matrix(0.28389,0,0,0.26496,287.28,489.36)" cx="566.37805" cy="392.05017" rx="3.4691598" ry="3.0166607" /><ellipse id="path5212-5" style="color:#000000;fill:#1a1a1a;fill-opacity:0.48525" transform="matrix(0.43529,0,0,0.26496,206.78,491.66)" cx="558.98724" cy="375.30771" rx="3.619993" ry="3.4691598" /><ellipse id="path5214-7" style="color:#000000;fill:#ffffff;fill-opacity:0.48525" transform="matrix(0.28389,0,0,0.26496,290.03,487.26)" cx="566.37805" cy="392.05017" rx="3.4691598" ry="3.0166607" /><ellipse id="path5212-59" style="color:#000000;fill:#1a1a1a;fill-opacity:0.48525" transform="matrix(0.43529,0,0,0.26496,208.88,494.02)" cx="558.98724" cy="375.30771" rx="3.619993" ry="3.4691598" /><ellipse id="path5214-5" style="color:#000000;fill:#ffffff;fill-opacity:0.48525" transform="matrix(0.28389,0,0,0.26496,292.13,489.63)" cx="566.37805" cy="392.05017" rx="3.4691598" ry="3.0166607" /><ellipse id="path5212-608" style="color:#000000;fill:#1a1a1a;fill-opacity:0.48525" transform="matrix(0.43529,0,0,0.26496,212.42,491.53)" cx="558.98724" cy="375.30771" rx="3.619993" ry="3.4691598" /><ellipse id="path5214-2" style="color:#000000;fill:#ffffff;fill-opacity:0.48525" transform="matrix(0.28389,0,0,0.26496,295.68,487.13)" cx="566.37805" cy="392.05017" rx="3.4691598" ry="3.0166607" /><ellipse id="path5212-62" style="color:#000000;fill:#1a1a1a;fill-opacity:0.48525" transform="matrix(0.43529,0,0,0.26496,214.52,494.42)" cx="558.98724" cy="375.30771" rx="3.619993" ry="3.4691598" /><ellipse id="path5214-8" style="color:#000000;fill:#ffffff;fill-opacity:0.48525" transform="matrix(0.28389,0,0,0.26496,297.78,490.02)" cx="566.37805" cy="392.05017" rx="3.4691598" ry="3.0166607" /><ellipse id="path5212-27" style="color:#000000;fill:#1a1a1a;fill-opacity:0.48525" transform="matrix(0.43529,0,0,0.26496,218.2,492.05)" cx="558.98724" cy="375.30771" rx="3.619993" ry="3.4691598" /><ellipse id="path5214-29" style="color:#000000;fill:#ffffff;fill-opacity:0.48525" transform="matrix(0.28389,0,0,0.26496,301.46,487.66)" cx="566.37805" cy="392.05017" rx="3.4691598" ry="3.0166607" /><ellipse id="path5212-277" style="color:#000000;fill:#1a1a1a;fill-opacity:0.48525" transform="matrix(0.43529,0,0,0.26496,218.46,494.94)" cx="558.98724" cy="375.30771" rx="3.619993" ry="3.4691598" /><ellipse id="path5214-18" style="color:#000000;fill:#ffffff;fill-opacity:0.48525" transform="matrix(0.28389,0,0,0.26496,301.72,490.55)" cx="566.37805" cy="392.05017" rx="3.4691598" ry="3.0166607" /><ellipse id="path5212-72" style="color:#000000;fill:#1a1a1a;fill-opacity:0.48525" transform="matrix(0.43529,0,0,0.26496,223.98,492.32)" cx="558.98724" cy="375.30771" rx="3.619993" ry="3.4691598" /><ellipse id="path5214-13" style="color:#000000;fill:#ffffff;fill-opacity:0.48525" transform="matrix(0.28389,0,0,0.26496,307.24,487.92)" cx="566.37805" cy="392.05017" rx="3.4691598" ry="3.0166607" /><ellipse id="path5212-52" style="color:#000000;fill:#1a1a1a;fill-opacity:0.48525" transform="matrix(0.43529,0,0,0.26496,225.16,495.86)" cx="558.98724" cy="375.30771" rx="3.619993" ry="3.4691598" /><ellipse id="path5214-11" style="color:#000000;fill:#ffffff;fill-opacity:0.48525" transform="matrix(0.28389,0,0,0.26496,308.42,491.47)" cx="566.37805" cy="392.05017" rx="3.4691598" ry="3.0166607" /><ellipse id="path5212-9" style="color:#000000;fill:#1a1a1a;fill-opacity:0.48525" transform="matrix(0.43529,0,0,0.26496,228.7,493.1)" cx="558.98724" cy="375.30771" rx="3.619993" ry="3.4691598" /><ellipse id="path5214-93" style="color:#000000;fill:#ffffff;fill-opacity:0.48525" transform="matrix(0.28389,0,0,0.26496,311.96,488.71)" cx="566.37805" cy="392.05017" rx="3.4691598" ry="3.0166607" /><ellipse id="path5212-04" style="color:#000000;fill:#1a1a1a;fill-opacity:0.48525" transform="matrix(0.43529,0,0,0.26496,230.67,495.99)" cx="558.98724" cy="375.30771" rx="3.619993" ry="3.4691598" /><ellipse id="path5214-26" style="color:#000000;fill:#ffffff;fill-opacity:0.48525" transform="matrix(0.28389,0,0,0.26496,313.93,491.6)" cx="566.37805" cy="392.05017" rx="3.4691598" ry="3.0166607" /><ellipse id="path5212-273" style="color:#000000;fill:#1a1a1a;fill-opacity:0.48525" transform="matrix(0.31341,0,0,0.26496,302.43,494.55)" cx="558.98724" cy="375.30771" rx="3.619993" ry="3.4691598" /><ellipse id="path5214-930" style="color:#000000;fill:#ffffff;fill-opacity:0.48525" transform="matrix(0.2044,0,0,0.26496,362.38,490.15)" cx="566.37805" cy="392.05017" rx="3.4691598" ry="3.0166607" /><g id="g5216-66" transform="matrix(0.34824,0,0,0.26496,280.99,475.3)"><ellipse id="path5212-042" style="color:#000000;fill:#1a1a1a;fill-opacity:0.48525" transform="translate(7.5417,83.562)" cx="558.98724" cy="375.30771" rx="3.619993" ry="3.4691598" /><ellipse id="path5214-88" style="color:#000000;fill:#ffffff;fill-opacity:0.48525" transform="matrix(0.65217,0,0,1,198.81,66.97)" cx="566.37805" cy="392.05017" rx="3.4691598" ry="3.0166607" /></g><ellipse id="path5212-1" style="color:#000000;fill:#1a1a1a;fill-opacity:0.48525" transform="matrix(0.31341,0,0,0.26496,255.42,491.53)" cx="558.98724" cy="375.30771" rx="3.619993" ry="3.4691598" /><ellipse id="path5214-50" style="color:#000000;fill:#ffffff;fill-opacity:0.48525" transform="matrix(0.2044,0,0,0.26496,315.37,487.13)" cx="566.37805" cy="392.05017" rx="3.4691598" ry="3.0166607" /><path id="path5473" ns1:nodetypes="sssssss" style="color:#000000;fill:#00b0ff;fill-opacity:0.98361" ns2:connector-curvature="0" d="m 479.35,579.62 c -2.128,5.2116 -4.3576,7.7946 -9.0004,8.5663 -4.6428,0.77179 -9.5973,5.8163 -16.548,5.8163 -13.901,0 -24.876,1.7709 -25.17,-8.7053 -0.34727,-12.396 11.269,-8.7053 25.17,-8.7053 6.9504,0 11.559,-6.2133 16.029,-5.3931 4.4698,0.82018 16.371,-8.3582 9.5194,8.421 z" /><path id="path5473-9-5" ns1:nodetypes="sssssss" style="color:#000000;fill:#ffffff;fill-opacity:0.98361" ns2:connector-curvature="0" d="m 479.01,575.41 c -2.128,3.0005 -4.0745,9.8675 -8.7173,10.312 -4.6428,0.44433 -9.5973,3.3487 -16.548,3.3487 -13.901,0 -24.876,1.0196 -25.17,-5.0121 -0.34726,-7.1368 10.703,-1.6142 24.603,-1.6142 6.9504,0 12.125,-6.9751 16.595,-6.5029 4.4698,0.47221 16.088,-10.192 9.2362,-0.53149 z" /></g></g></g><ellipse id="path5623" style="color:#000000;fill-opacity:0" transform="translate(0,-308.27)" cx="-442.41467" cy="729.3916" rx="102.94196" ry="123.37319" /></g></g></g></g></svg>