<?xml version="1.0" encoding="UTF-8"?>
<svg xmlns="http://www.w3.org/2000/svg" xmlns:ns1="http://www.inkscape.org/namespaces/inkscape" xmlns:ns2="http://sodipodi.sourceforge.net/DTD/sodipodi-0.dtd" width="95.042221mm" height="293.54428mm" viewBox="0 0 336.76378 1040.1175" id="svg2" version="1.1" ns1:version="0.91 r13725" ns2:docname="50 ties toy robot.svg">
  <title id="title3351">50 ties toy robot</title>
  <defs id="defs4" />
  <ns2:namedview id="base" pagecolor="#ffffff" bordercolor="#666666" borderopacity="1.0" ns1:pageopacity="0.0" ns1:pageshadow="2" ns1:zoom="1.4" ns1:cx="149.45581" ns1:cy="913.66525" ns1:document-units="px" ns1:current-layer="layer1" showgrid="false" fit-margin-top="0" fit-margin-left="0" fit-margin-right="0" fit-margin-bottom="0" ns1:window-width="1366" ns1:window-height="744" ns1:window-x="0" ns1:window-y="24" ns1:window-maximized="1" />
  <g ns1:label="Layer 1" ns1:groupmode="layer" id="layer1" transform="translate(-159.53274,-8.3876484)">
    <path style="fill:#000000" d="m 353.42822,1047.6244 c -2.38918,-0.473 -4.24635,-0.5533 -5.11967,-0.2212 -4.107,1.5615 -11.45161,-1.0006 -16.31616,-5.6916 -1.80038,-1.7361 -4.23575,-3.6583 -5.41194,-4.2714 -1.1762,-0.6133 -2.30482,-1.384 -2.50805,-1.7129 -0.20323,-0.3289 -1.20103,-0.9841 -2.21734,-1.4562 -1.01631,-0.472 -3.28527,-2.034 -5.04214,-3.4712 -5.24412,-4.2896 -13.39548,-10.4115 -17.42351,-13.0853 -2.0763,-1.3783 -4.98744,-3.5082 -6.46922,-4.7332 -1.48176,-1.225 -2.89398,-2.2272 -3.13826,-2.2272 -0.43872,0 -6.12816,-2.4966 -7.81601,-3.4298 -0.96644,-0.5343 -0.99018,-2.0655 -0.19288,-12.44369 0.39219,-5.10481 0.68687,-6.4391 1.56358,-7.08015 1.33743,-0.97775 5.12682,-1.80271 10.82276,-2.35615 2.3941,-0.23257 5.20364,-0.77838 6.24343,-1.2128 1.88198,-0.78631 1.89052,-0.80851 1.89052,-4.91614 0,-3.74991 -0.15775,-4.30582 -1.73,-6.09664 -1.00966,-1.14988 -2.27796,-3.74892 -3.04605,-6.24192 l -1.31605,-4.27173 -6.82575,-5.39763 c -3.75416,-2.96865 -7.61186,-5.87566 -8.57264,-6.46002 -1.01739,-0.61865 -2.39552,-2.38479 -3.30006,-4.22922 -1.44202,-2.94021 -1.49872,-3.33173 -0.79223,-5.47245 0.46652,-1.41358 0.58671,-2.94358 0.31065,-3.95443 -0.34643,-1.2685 -1.03935,-34.57004 -0.84397,-40.56124 0.3442,-10.55516 0.323,-15.25914 -0.085,-18.87547 -0.27032,-2.39579 -0.78942,-8.79892 -1.15355,-14.22926 -1.10026,-16.40824 -1.57174,-22.40241 -2.19276,-27.87754 -0.32608,-2.87491 -0.74248,-9.80076 -0.92531,-15.39074 -0.18285,-5.59007 -0.62899,-12.30963 -0.99142,-14.93239 -0.74829,-5.41505 -0.46219,-6.17095 2.5889,-6.84024 1.02787,-0.22552 3.48001,-0.44992 5.4492,-0.49877 1.96919,-0.0488 3.78954,-0.29748 4.04523,-0.55256 1.00592,-1.00337 2.12008,-6.09887 2.03609,-9.3117 -0.0993,-3.79524 -0.43328,-4.62855 -2.92442,-7.29533 -1.35968,-1.45558 -1.74364,-2.40068 -1.74815,-4.30327 -0.0104,-4.34118 -1.11607,-21.15893 -2.66151,-40.47938 -0.83042,-10.38151 -1.75633,-23.71049 -2.05759,-29.61996 -0.30126,-5.90947 -0.68987,-12.83531 -0.86356,-15.39075 -0.66904,-9.84289 -0.69607,-35.17266 -0.0458,-42.97798 0.59076,-7.09148 0.89969,-8.57643 2.41649,-11.61537 1.98572,-3.97849 2.91958,-4.57368 8.67702,-5.53034 4.7139,-0.7833 5.91259,-0.83 14.5196,-0.56603 7.184,0.22035 11.67931,-0.19858 18.87545,-1.75908 2.71517,-0.58874 6.55903,-1.25089 8.54192,-1.47136 2.18439,-0.24288 3.93004,-0.77297 4.42938,-1.34504 0.47321,-0.5421 0.94428,-2.723 1.10632,-5.12181 l 0.28217,-4.17769 -2.26558,-1.82064 -2.26557,-1.8207 -6.38936,1.52776 c -7.49041,1.79108 -15.53349,2.12955 -18.27164,0.76907 -0.94598,-0.47003 -3.28808,-1.29922 -5.20466,-1.84259 -1.91658,-0.54338 -4.2246,-1.37019 -5.12892,-1.83731 -0.90433,-0.46719 -2.08428,-0.84941 -2.62214,-0.84941 -0.53783,0 -1.9789,-0.53652 -3.20236,-1.19222 -2.08878,-1.11952 -2.313,-1.13421 -3.676,-0.24114 -2.11784,1.38761 -3.80939,0.68688 -6.70366,-2.77702 -2.52733,-3.02479 -11.48122,-16.21606 -11.48122,-16.91468 0,-0.44453 -0.67283,-1.20431 -5.98847,-6.76207 -4.72151,-4.93654 -7.0654,-6.95987 -8.0625,-6.95987 -0.37627,0 -1.29616,0.57498 -2.04418,1.27773 l -1.36006,1.27766 -1.5813,-1.58037 -1.5813,-1.5803 0,-9.1351 c 0,-8.37658 0.28837,-13.38223 2.03184,-35.27033 0.33077,-4.15261 0.59083,-10.42507 0.57789,-13.9388 -0.013,-3.51375 -0.0426,-10.83162 -0.066,-16.26195 -0.052,-12.07355 -1.02733,-25.40052 -1.90137,-25.98115 -1.22336,-0.8127 -6.17447,-0.50113 -6.52432,0.41055 -0.18046,0.47027 0.0911,9.4216 0.60364,19.89184 0.51246,10.47023 0.93716,28.44548 0.94377,39.94499 0.009,15.55054 0.26695,23.36381 1.00687,30.49113 1.24858,12.02704 1.4691,53.49288 0.29536,55.5405 -0.56869,0.99214 -0.52723,2.08536 0.20923,5.51744 0.80649,3.75842 0.83355,5.80249 0.22204,16.76704 -0.6688,11.99132 -1.55115,17.31547 -3.14253,18.96206 -0.48565,0.50249 -3.29932,0.47426 -11.38948,-0.11425 -5.90948,-0.42984 -12.71871,-0.79549 -15.13163,-0.8125 -4.18719,-0.0297 -4.46669,-0.11704 -6.13242,-1.91857 -2.68035,-2.89881 -4.91326,-6.0521 -7.77512,-10.97977 -1.43745,-2.47506 -4.18164,-6.79953 -6.09823,-9.60999 l -3.4847,-5.10991 -0.39894,-9.00214 c -0.21943,-4.95118 -0.54378,-20.63232 -0.72078,-34.847 -0.177,-14.21468 -0.62156,-29.1134 -0.98789,-33.10826 -0.36633,-3.99481 -0.53491,-8.30712 -0.37461,-9.58293 0.16031,-1.27575 0.0664,-4.80946 -0.2086,-7.85265 -0.27504,-3.04325 -0.63149,-8.79301 -0.79212,-12.77725 -0.16062,-3.98429 -0.63375,-12.99386 -1.05139,-20.02134 -0.41764,-7.02748 -0.68569,-18.00428 -0.59566,-24.3929 0.0901,-6.38863 0.23571,-18.87386 0.3237,-27.74497 l 0.16002,-16.1293 2.90392,-1.33748 c 1.59716,-0.73562 6.56285,-2.59067 11.03488,-4.12234 9.57814,-3.28049 11.01557,-3.94929 13.44948,-6.25759 l 1.8338,-1.73916 3.39324,1.25556 c 4.80899,1.77943 14.82537,6.43604 15.98685,7.43229 0.53786,0.46133 1.97531,1.18011 3.1943,1.59724 2.1348,0.73053 2.22709,0.87281 2.50678,3.86507 l 0.29039,3.10661 2.32313,0 2.32314,0 0.34898,-8.13095 c 0.48354,-11.2664 0.99088,-14.90272 2.31317,-16.57954 0.61794,-0.78361 1.90684,-2.5355 2.86424,-3.89308 1.42084,-2.01478 2.07748,-2.46834 3.57356,-2.46834 1.00809,0 2.974,-0.66873 4.3687,-1.48608 2.60017,-1.5238 8.99805,-3.46696 20.79758,-6.31663 4.39743,-1.06201 12.97246,-4.60167 19.74663,-8.15115 2.87487,-1.50634 5.3154,-2.82473 5.42339,-2.92975 0.10799,-0.105 -0.38496,-0.97717 -1.09544,-1.93813 -1.16537,-1.57627 -1.25157,-2.15523 -0.88088,-5.91712 0.226,-2.29343 0.69047,-4.78349 1.03217,-5.53344 0.53248,-1.16864 0.3617,-1.65918 -1.19461,-3.43173 -0.99874,-1.13751 -1.98041,-2.72367 -2.18148,-3.52481 -0.47055,-1.87485 -1.64354,-2.39678 -4.87824,-2.17066 -5.84649,0.40873 -15.98779,2.04269 -19.16586,3.088 -1.118,0.36774 -2.94747,0.89015 -4.06547,1.16093 -1.11802,0.2708 -3.56025,1.04202 -5.4272,1.71387 -3.75268,1.35043 -4.41338,1.1499 -5.59276,-1.69739 -0.37995,-0.91728 -1.15951,-1.79035 -1.73235,-1.94015 -1.02495,-0.26803 -4.92586,-5.12816 -6.39636,-7.9692 -0.41333,-0.79859 -1.68421,-2.60543 -2.82415,-4.01521 -1.85626,-2.29567 -2.08606,-2.96257 -2.20145,-6.38862 -0.0709,-2.10395 -0.28015,-6.96161 -0.46512,-10.79478 -1.19369,-24.73684 -1.60539,-31.88072 -2.07513,-36.00858 -0.29081,-2.55543 -0.80495,-8.30519 -1.14251,-12.77722 -0.33757,-4.47204 -0.8666,-9.04571 -1.1756,-10.16371 -0.30902,-1.11802 -0.8219,-4.38492 -1.13976,-7.25979 -0.31785,-2.87489 -0.99672,-7.57923 -1.50859,-10.4541 -0.72257,-4.05821 -0.97822,-10.48686 -1.14317,-28.74878 -0.11687,-12.93695 -0.49698,-29.66352 -0.8447,-37.17015 -0.34772,-7.50662 -0.60392,-18.74478 -0.56934,-24.97368 0.0346,-6.2289 -0.24253,-15.89895 -0.6158,-21.48899 -0.37327,-5.59004 -0.51504,-11.40781 -0.31505,-12.92836 0.38007,-2.88984 -0.491,-7.39906 -1.42931,-7.39906 -0.29977,0 -0.9976,0.69072 -1.55076,1.53495 -1.08952,1.66281 -1.89515,8.97698 -3.31736,30.11774 -0.92866,13.80472 -2.41757,22.57678 -4.75971,28.04252 -0.44951,1.04898 -0.81729,2.26186 -0.81729,2.69528 0,1.18975 -1.80135,4.88601 -4.14448,8.50418 -5.69315,8.79113 -16.11208,17.591 -27.23561,23.00327 -2.42691,1.18083 -18.99295,8.30046 -24.02131,10.3237 -1.24286,0.50008 -3.60401,1.06723 -5.247,1.26033 -2.39341,0.28129 -3.14978,0.15526 -3.80482,-0.63401 -1.16393,-1.40246 -0.2669,-2.49663 3.18057,-3.87954 1.59716,-0.64069 4.31538,-1.81421 6.04049,-2.60782 1.72513,-0.79362 4.33865,-1.83434 5.80784,-2.31269 1.46919,-0.47836 3.94811,-1.51318 5.5087,-2.29959 1.56061,-0.78641 4.56616,-2.10934 6.67902,-2.93988 12.86321,-5.0563 25.82038,-15.74112 29.91712,-24.67044 2.09095,-4.55745 5.57714,-18.98136 5.57714,-23.0751 0,-0.86286 0.4039,-2.14548 0.89756,-2.85028 1.06591,-1.52181 1.75012,-11.65705 1.46983,-21.77275 -0.0628,-2.26557 -0.95062,-1.98251 -2.73263,0.87118 -0.84775,1.35759 -2.54981,3.57324 -3.78237,4.92369 -1.23255,1.35043 -2.24101,2.67534 -2.24101,2.94421 0,0.45903 -2.99894,4.72579 -5.94666,8.46066 -0.72223,0.91508 -1.93186,2.74455 -2.68808,4.06549 -0.75622,1.32093 -1.541,2.53237 -1.74398,2.69209 -0.20297,0.15971 -1.12989,1.4117 -2.05982,2.78218 -3.74977,5.52629 -7.33937,7.14457 -11.30222,5.0953 -2.43103,-1.25714 -5.67968,-5.56419 -7.77857,-10.31279 -1.85057,-4.18679 -1.87572,-4.3644 -1.87572,-13.24585 0,-9.22484 1.09226,-15.80056 2.9982,-18.05001 0.42729,-0.50431 0.7769,-1.27538 0.7769,-1.71351 0,-2.11697 4.45146,-11.94381 6.88008,-15.18812 2.24784,-3.00283 3.25033,-3.82187 5.95512,-4.86544 1.78876,-0.69014 4.09614,-1.87868 5.1275,-2.64119 2.45775,-1.8171 10.24505,-2.35963 12.51554,-0.87193 0.7832,0.51317 1.84799,0.93302 2.36626,0.93302 1.51221,0 7.57501,6.3101 9.01335,9.38104 1.49254,3.18661 2.45916,3.54379 3.29689,1.21826 2.63558,-7.31635 3.03831,-9.29157 2.90111,-14.22826 l -0.14122,-5.08092 -11.10081,-9.8e-4 c -13.02946,-9.9e-4 -16.85009,0.53718 -18.54097,2.61227 -1.3728,1.68473 -2.15319,1.80781 -3.42139,0.53961 -1.32743,-1.32742 -1.13395,-3.91547 0.39409,-5.27199 2.65313,-2.35529 5.27339,-2.72308 20.73477,-2.91038 13.40455,-0.16237 14.8372,-0.27462 15.37717,-1.20465 0.72517,-1.24904 3.11784,-7.86085 3.7924,-10.47979 0.26973,-1.047201 0.74288,-2.2233 1.05143,-2.613529 0.30856,-0.39023 0.6991,-2.314919 0.86789,-4.277095 0.39469,-4.588295 4.21449,-13.414502 7.94135,-18.349672 1.5107,-2.000473 3.80335,-5.989387 5.09479,-8.864275 1.29146,-2.874877 4.05442,-9.016655 6.1399,-13.648404 3.45677,-7.677266 4.54077,-10.384744 7.16116,-17.886316 l 0.87172,-2.495556 -1.77462,-1.657749 c -0.97603,-0.911543 -1.77462,-2.060555 -1.77462,-2.55315 0,-1.250176 2.26499,-2.703831 4.21293,-2.703831 0.89725,0 1.71816,-0.326693 1.82426,-0.725981 0.1061,-0.399288 0.50391,-2.032739 0.88401,-3.629892 0.38012,-1.597163 1.04705,-3.2644936 1.48207,-3.7052031 1.33449,-1.3519053 3.53983,-0.3020468 5.33526,2.5398311 0.90872,1.438385 1.99515,2.615718 2.41428,2.616293 1.43516,0.002 6.78734,1.916184 7.80451,2.791311 0.55899,0.480951 1.01636,1.329996 1.01636,1.886764 0,0.556778 3.30167,4.109872 7.33706,7.895758 4.03538,3.785895 7.70723,7.27548 8.15965,7.754617 4.63491,4.908628 13.31368,13.655254 15.8656,15.989643 1.75687,1.607112 6.06919,6.007854 9.58293,9.77943 3.51375,3.771563 7.95673,8.507108 9.87332,10.523406 1.91657,2.016309 5.64954,5.978844 8.29548,8.805649 2.64587,2.826805 5.81027,6.185055 7.03195,7.462771 1.22167,1.277727 3.36779,3.722542 4.76904,5.432937 3.85165,4.701159 5.84541,5.499773 12.48731,5.001808 6.38705,-0.478852 12.5785,0.461342 14.28664,2.169458 2.06334,2.063337 1.06974,2.473237 -7.10339,2.930537 -4.26986,0.23889 -7.98496,0.65589 -8.25573,0.92666 -0.27075,0.27077 0.761,1.8031 2.29288,3.40518 1.53181,1.60208 4.35326,4.81979 6.26985,7.15047 1.91659,2.33068 4.0074,4.80115 4.64627,5.48993 5.52406,5.95563 12.89832,14.9814 13.72809,16.80255 0.37814,0.82996 1.0134,1.50902 1.41165,1.50902 0.96271,0 7.22042,9.35147 7.22042,10.79015 0,0.61979 0.52671,1.45583 1.17045,1.85786 0.64381,0.40203 1.56283,1.71155 2.04238,2.91004 0.47956,1.19849 1.4519,2.43521 2.16087,2.74825 0.7089,0.31304 1.52507,1.35323 1.81372,2.31152 1.17847,3.91228 2.71476,5.90677 9.4838,12.31213 8.59617,8.13439 8.72383,8.22644 12.03883,8.68081 3.05084,0.41816 3.18664,0.12391 1.78108,-3.85984 -1.88203,-5.33435 -0.26873,-20.8828 2.71836,-26.19754 1.62097,-2.88417 3.62101,-4.00318 7.15495,-4.00318 4.27347,0 5.90559,1.21601 8.24562,6.14356 1.99552,4.20197 2.0461,4.48011 1.81437,9.97913 -0.224,5.31716 -0.40411,6.00527 -3.00004,11.46451 -1.51897,3.19432 -3.69419,6.76503 -4.83386,7.93494 l -2.07212,2.12709 1.85334,2.30623 c 1.01933,1.26843 3.07554,3.17776 4.56932,4.24296 1.49378,1.0652 4.05032,3.01683 5.68122,4.33694 1.6309,1.3201 4.42835,3.37133 6.21653,4.55826 3.30158,2.19146 4.19796,3.49541 3.55492,5.17118 -0.65205,1.69926 -2.453,1.69826 -5.41761,-0.003 -5.24406,-3.00936 -13.0872,-9.11842 -17.21778,-13.41113 -3.00156,-3.11932 -4.35536,-4.14989 -5.08413,-3.87021 -1.06631,0.40917 -9.62613,-1.6987 -12.02367,-2.96084 -3.81551,-2.00864 -27.61317,-28.8359 -31.92282,-35.9869 -5.38746,-8.93942 -9.40944,-14.93861 -12.9125,-19.26035 -3.86082,-4.76317 -6.8195,-7.44248 -7.46748,-6.76243 -0.56382,0.59166 -1.15878,5.83859 -1.46908,12.95514 -0.13231,3.0346 -0.39744,7.0539 -0.58921,8.93178 -0.2239,2.19206 -0.0988,3.88135 0.34945,4.71888 0.52764,0.98589 0.53635,1.60682 0.036,2.54218 -0.36432,0.68071 -0.78778,3.52292 -0.94104,6.31602 -0.15322,2.79309 -0.53977,6.85659 -0.85897,9.02999 -0.48496,3.30219 -0.43553,4.09649 0.30095,4.83295 1.12255,1.12256 1.12028,2.20011 -0.006,3.1353 -0.79029,0.65583 -0.87432,10.09712 -0.7649,85.88187 0.0675,46.82976 -0.006,87.7117 -0.16076,90.84874 -0.30132,6.05894 -0.64886,6.75707 -3.37232,6.77424 -0.77593,0.005 -2.25727,-0.29721 -3.29188,-0.67133 -1.6816,-0.60807 -2.2711,-0.48958 -5.55868,1.11737 -4.78833,2.34053 -13.25418,5.54893 -17.25176,6.5381 -2.94435,0.72857 -3.46008,1.55757 -1.46933,2.3618 3.66538,1.48072 4.28089,1.9385 5.1943,3.86328 1.07624,2.26813 0.61684,4.08761 -1.66082,6.57714 -2.44783,2.67557 -3.88067,5.08541 -3.88067,6.52671 0,1.15459 0.37577,1.52371 1.88754,1.85412 6.68859,1.46183 17.02811,0.70245 19.28335,-1.41625 0.69526,-0.65317 1.61633,-1.18758 2.0468,-1.18758 1.98959,0 7.38024,-2.1516 8.32384,-3.32234 l 1.05041,-1.30329 12.96796,6.61049 c 11.47413,5.84903 21.7353,11.9456 22.29495,13.24634 0.10645,0.24748 0.57678,0.44995 1.04517,0.44995 0.46835,0 1.77197,0.89393 2.89695,1.9865 1.94766,1.89154 2.20309,1.97252 5.34349,1.6942 5.0972,-0.45177 4.93719,-0.29208 4.48871,-4.48007 -0.53323,-4.97923 -0.0969,-5.35804 6.45755,-5.60615 8.97712,-0.33981 13.68163,0.0265 19.93899,1.55304 4.51165,1.10058 6.99699,1.40807 9.55285,1.18193 4.63697,-0.41028 5.81138,0.263 12.71729,7.29077 5.37582,5.47067 5.69341,5.92726 5.31002,7.63308 -0.22425,0.99788 -0.48635,5.47327 -0.58238,9.94531 -0.0961,4.47202 -0.34454,10.72678 -0.55244,13.89945 -1.24164,18.95381 -1.35214,32.30769 -0.93317,112.71134 0.10495,20.12413 0.0228,37.24273 -0.18342,38.0413 -0.47277,1.83523 -2.1429,33.72273 -1.79567,34.28464 0.1416,0.22911 0.40499,7.07185 0.58544,15.20607 0.26874,12.11607 0.18411,14.90895 -0.46802,15.45011 -0.57078,0.47369 -4.24652,0.5571 -12.9919,0.2947 l -12.19599,-0.36596 -8.66907,-8.09618 c -5.0887,-4.75249 -10.30169,-9.05174 -12.62216,-10.40984 -2.17428,-1.2725 -4.16631,-2.8815 -4.42679,-3.57559 -1.57043,-4.18414 -1.74571,-5.47685 -1.19705,-8.82757 0.31246,-1.90809 0.56957,-3.86127 0.57138,-4.34042 0,-0.75822 -2.99,-0.88361 -23.08277,-0.96688 -12.69732,-0.0529 -25.30753,-0.36056 -28.0227,-0.68424 -2.71516,-0.32366 -5.12175,-0.40915 -5.3479,-0.18996 -0.95226,0.92275 0.0892,14.81904 1.19339,15.92321 0.85317,0.85313 12.78868,1.45974 25.73243,1.30782 l 12.57581,-0.14765 3.18967,2.10698 c 1.7543,1.15883 5.11182,3.38601 7.4612,4.94932 2.34938,1.56323 5.31702,3.49963 6.59473,4.30296 2.72528,1.71349 13.52414,9.39476 16.77229,11.93016 1.23898,0.96713 2.61241,2.6194 3.05212,3.67172 0.43972,1.05232 1.41438,2.31622 2.16592,2.80867 2.79201,1.82935 3.49562,4.76177 3.03082,12.63158 -0.23109,3.9125 -0.55326,8.02839 -0.71594,9.1464 -0.49813,3.42389 -0.56677,24.72535 -0.11127,34.55662 0.68828,14.85627 1.07985,27.36187 1.37181,43.81093 0.23016,12.96738 0.13764,15.55837 -0.59537,16.67707 -0.47734,0.72854 -0.86786,1.68527 -0.86786,2.12614 0,0.44088 -1.01539,2.37257 -2.2564,4.29263 -2.16283,3.34629 -2.37819,3.50723 -5.1933,3.88068 -1.61528,0.21426 -3.8851,0.78575 -5.04412,1.27 -1.84079,0.76913 -2.0685,1.07927 -1.80129,2.45282 0.16825,0.86478 0.47793,3.59069 0.68822,6.05751 0.32851,3.85368 0.22147,4.75784 -0.76018,6.42167 -1.49476,2.53338 -1.40102,7.22657 0.18097,9.06236 3.32086,3.85371 9.76175,9.80756 13.46878,12.45039 4.48818,3.19984 5.5527,4.96994 4.01246,6.67188 -1.46533,1.6191 -1.88093,10.42436 -1.417,30.02173 0.71321,30.12845 0.84121,47.92796 0.3864,53.72246 -0.45104,5.74546 -1.23005,19.18207 -1.22905,21.19863 2.8e-4,0.63886 -0.24417,3.25235 -0.54333,5.80778 -0.2991,2.55553 -0.79939,7.52122 -1.11179,11.03498 -0.31235,3.51367 -0.88877,8.4741 -1.28092,11.02308 l -0.71298,4.63442 -4.06547,1.4759 -4.06549,1.4758 -0.2904,4.34378 c -0.1597,2.38914 -0.49499,4.65938 -0.74496,5.04506 -0.29545,0.45563 0.18167,1.03027 1.36246,1.64089 2.17382,1.12412 10.61828,7.18419 12.93184,9.28032 2.44672,2.21672 5.65695,4.11952 8.68411,5.14732 5.50041,1.86737 25.95036,18.74139 28.58506,23.58659 0.81098,1.4912 4.28481,5.2352 4.85757,5.2352 1.59075,0 2.5375,8.6115 1.21777,11.0776 -0.70466,1.3166 -6.48321,4.0545 -12.05069,5.7097 -10.69686,3.1802 -10.32191,3.1235 -17.74652,2.687 -4.30587,-0.253 -7.39948,-0.7034 -7.93078,-1.1549 -0.47914,-0.407 -1.56823,-0.9052 -2.42012,-1.1073 -0.85189,-0.202 -3.07339,-1.6723 -4.93666,-3.2672 -1.86327,-1.5948 -3.66067,-2.902 -3.99423,-2.9049 -0.9656,-0.01 -10.14663,-4.6215 -13.33228,-6.6991 -1.59715,-1.0417 -5.51744,-3.3752 -8.71176,-5.1859 -3.1943,-1.8106 -7.37594,-4.2304 -9.29253,-5.377 -1.91658,-1.1468 -6.37509,-3.0517 -9.90776,-4.233 -6.04178,-2.0203 -9.29102,-3.8468 -15.51539,-8.722 -2.94807,-2.309 -3.41327,-4.045 -3.87296,-14.45192 -0.62277,-14.10054 -0.24382,-14.90954 6.83367,-14.5858 8.38558,0.38349 10.05192,0.1973 11.53825,-1.28911 1.94575,-1.9457 2.88504,-7.89312 1.62992,-10.32021 -0.49461,-0.95646 -1.11343,-1.7391 -1.37513,-1.7391 -0.26175,0 -2.41118,-1.70194 -4.77659,-3.78211 -2.98971,-2.62925 -4.44254,-4.35536 -4.76608,-5.66261 -0.25596,-1.03425 -0.57794,-5.93155 -0.71542,-10.88267 -0.34306,-12.35223 -2.91728,-40.54171 -4.296,-47.04345 -0.30479,-1.43745 -0.71749,-4.83498 -0.91717,-7.55015 -0.19967,-2.71516 -0.76268,-7.28884 -1.25123,-10.16374 -0.48856,-2.87492 -1.00023,-6.66445 -1.137,-8.42138 -0.26815,-3.44311 -0.38931,-4.62897 -1.78063,-17.42345 -0.50365,-4.63175 -0.9145,-9.07481 -0.91305,-9.8734 0,-0.7985 -0.34655,-4.72787 -0.77348,-8.73184 -0.42688,-4.00388 -0.95534,-10.84938 -1.17429,-15.21227 l -0.39813,-7.93238 1.44777,-1.28958 c 1.76263,-1.57003 6.11583,-2.78229 10.11505,-2.81685 5.19139,-0.0447 8.35725,-0.67394 8.35725,-1.66075 0,-1.18131 -2.0572,-7.60525 -3.89329,-12.15749 l -1.46364,-3.62884 -7.63045,0.32275 c -4.19673,0.17753 -8.67585,0.554 -9.95357,0.83661 -1.27773,0.28261 -4.02193,0.65379 -6.09824,0.82483 -2.07629,0.17103 -5.99658,0.56191 -8.71175,0.86855 -2.71515,0.30665 -10.16364,0.72942 -16.55215,0.93943 -6.38848,0.21006 -11.81154,0.50313 -12.05124,0.65129 -0.23968,0.14809 -0.44031,1.23398 -0.44584,2.41298 -0.007,1.5195 -0.42986,2.54191 -1.45194,3.51142 -0.79306,0.75222 -1.46528,1.92831 -1.49379,2.61351 -0.4242,10.18874 -0.47447,9.77216 1.6139,13.3779 l 1.98099,3.42043 -0.68242,4.23031 c -0.37534,2.32662 -0.54564,5.09985 -0.37846,6.16254 0.16719,1.06268 0.0261,4.86054 -0.31343,8.43961 -0.50213,5.2922 -0.42918,8.60005 0.39063,17.71389 0.55442,6.16353 1.24598,11.99054 1.53677,12.94887 0.29081,0.95824 1.07561,4.87858 1.74399,8.71173 1.16926,6.70547 1.72885,10.64733 2.84454,20.03704 0.28466,2.39569 0.81784,6.57735 1.18484,9.29252 1.7886,13.23257 1.81722,13.58574 2.89534,35.71813 0.3786,7.77261 0.36996,13.34515 -0.0261,16.84276 -0.53953,4.76383 -0.67211,9.15725 -0.36806,12.19646 0.0998,0.99698 -0.2836,1.18704 -2.7067,1.34123 -1.55259,0.0991 -3.60734,-0.0942 -4.56611,-0.42809 -1.00131,-0.34901 -2.11894,-0.39746 -2.62604,-0.11366 -1.38703,0.7762 -2.487,4.60241 -1.82426,6.34547 0.3091,0.81296 0.40351,2.19988 0.20979,3.08181 -0.38684,1.76129 -0.2355,1.95462 4.95117,6.32554 3.42344,2.88502 3.46101,2.91198 10.80802,7.76896 2.83957,1.87713 5.29355,3.59497 5.45327,3.81751 0.15971,0.22234 0.70949,0.55837 1.22168,0.74657 1.6863,0.62 10.82499,7.4054 15.73621,11.684 2.6518,2.3103 7.43502,6.323 10.62932,8.9172 3.19432,2.5942 7.04601,5.9863 8.5593,7.5381 3.06944,3.1472 3.88039,5.5406 4.33567,12.7957 0.24398,3.8874 0.15623,4.2987 -1.20769,5.6627 l -1.47078,1.4708 -17.30472,-0.07 c -11.43133,-0.046 -18.57718,-0.3212 -21.05387,-0.8115 z m 26.50311,-3.7656 c 8.63161,0 10.14746,-0.1321 10.44604,-0.9102 0.75455,-1.9663 -0.6017,-2.3062 -14.90535,-3.7364 -3.35403,-0.3353 -7.40499,-0.7067 -9.00214,-0.8252 -1.59715,-0.1185 -5.38677,-0.501 -8.42136,-0.8504 -4.62211,-0.532 -8.86258,-0.5696 -15.24554,-0.1356 -0.78706,0.054 -1.01637,0.5934 -1.01637,2.3923 0,2.2634 0.33863,2.6161 2.2552,2.3487 0.66104,-0.093 9.33843,0.894 17.20102,1.955 0.9583,0.1294 3.28345,0.1287 5.16706,0 1.88359,-0.1302 7.96822,-0.2367 13.52144,-0.2367 z m 100.08343,-4.5867 c 2.39479,-0.6565 5.02306,-1.3229 5.84058,-1.481 0.81762,-0.1582 2.38568,-0.8934 3.48473,-1.6341 1.63267,-1.1003 1.99822,-1.7143 1.99822,-3.3563 0,-2.5484 0.54859,-2.5791 -15.68113,0.8778 -9.10888,1.9402 -13.10421,3.04 -13.91621,3.8309 -1.50933,1.4703 -0.7783,2.1169 3.18681,2.8189 4.31954,0.7647 9.85898,0.3769 15.087,-1.0562 z m -141.13207,-0.8597 c 0,-1.0788 -0.34473,-2.2476 -0.76609,-2.5974 -0.42134,-0.3497 -3.6229,-2.0469 -7.11459,-3.7717 -3.49168,-1.7248 -7.7186,-4.1496 -9.39314,-5.3883 -1.67456,-1.239 -4.1323,-2.9059 -5.46167,-3.7043 -1.32937,-0.7987 -5.46365,-4.4576 -9.18727,-8.1311 -9.16142,-9.038 -20.05919,-18.50906 -20.61638,-17.91738 -0.1054,0.11188 -0.2841,1.62184 -0.39709,3.35548 l -0.20545,3.1521 4.76882,2.9462 c 7.43627,4.5942 15.27463,10.0903 20.78564,14.5746 1.59717,1.2996 3.94933,3.0579 5.22706,3.9073 1.27772,0.8494 3.76057,2.5986 5.51744,3.887 1.75687,1.2884 4.17587,2.8747 5.37556,3.5247 1.19969,0.6502 3.9049,2.7441 6.01159,4.6532 4.4449,4.0282 5.45557,4.3079 5.45557,1.5096 z m 117.31823,-2.2813 c 0,-1.4467 -2.14843,-4.6961 -4.22718,-6.3935 -1.5774,-1.288 -9.1104,-5.0447 -10.11567,-5.0447 -0.39999,0 -2.75953,-0.8048 -5.24344,-1.7885 -7.33784,-2.9061 -13.19481,-6.942 -22.23778,-15.3233 -2.08055,-1.9283 -4.82475,-4.2382 -6.09823,-5.1332 -4.97749,-3.4979 -12.54504,-9.08708 -14.6243,-10.80091 -3.21551,-2.65047 -3.66271,-2.41838 -3.66271,1.90081 0,4.98094 1.81373,8.2975 5.69231,10.4084 1.5367,0.8364 3.27905,2.0567 3.87192,2.7117 0.59286,0.6552 3.12716,1.8385 5.63184,2.6297 4.96379,1.5681 9.04774,3.4867 13.5527,6.3669 4.88469,3.123 5.99084,3.7814 14.2375,8.4726 4.38545,2.4948 10.60389,5.8558 13.81876,7.4691 3.21487,1.6133 6.31933,3.5845 6.89877,4.3804 1.32698,1.8226 2.50551,1.8906 2.50551,0.1445 z m -65.83912,-0.1113 c 0.45777,-1.193 -2.71893,-4.7187 -6.81974,-7.5689 -3.7234,-2.5879 -7.36613,-5.6844 -15.27751,-12.9868 -2.90361,-2.6803 -5.9302,-5.2938 -6.72575,-5.8079 -0.79551,-0.5142 -2.26883,-1.7189 -3.27405,-2.6772 -1.00522,-0.9582 -2.90264,-2.5264 -4.21656,-3.4847 -1.3139,-0.9583 -3.23815,-2.4569 -4.27612,-3.3302 -1.03799,-0.87336 -2.1093,-1.59208 -2.38064,-1.59718 -0.4918,-0.0104 -4.86242,-2.72866 -11.91613,-7.41431 -2.0437,-1.35759 -3.91701,-2.46833 -4.16289,-2.46833 -0.62427,0 -1.72225,3.33778 -1.72225,5.23542 0,0.86757 -0.50723,2.22228 -1.12717,3.01037 -0.96786,1.23046 -1.90697,1.52875 -6.64508,2.11097 -3.03484,0.37299 -7.47328,0.67814 -9.86316,0.67814 -3.80111,0 -4.56387,-0.18394 -6.09117,-1.46907 -1.0147,-0.8538 -2.14828,-2.6805 -2.7066,-4.36143 -0.52838,-1.59074 -1.44437,-3.15117 -2.03555,-3.46748 -1.48386,-0.79423 -9.48148,-0.72418 -11.28761,0.0991 -2.06987,0.94307 -1.85151,1.82927 0.89934,3.64963 3.81736,2.52629 9.21171,7.35267 18.21145,16.29417 3.21509,3.1942 6.7581,6.5148 7.87335,7.3788 4.77098,3.6965 12.73414,8.591 19.45121,11.9556 4.38824,2.198 5.09779,2.3654 12.77721,3.0157 4.47203,0.3785 10.87517,1.057 14.22919,1.5077 3.35403,0.4507 8.18905,0.9865 10.74449,1.1907 2.55545,0.2044 5.0383,0.5898 5.51744,0.8566 0.47916,0.2668 3.03559,0.4932 5.68088,0.5028 3.74727,0.014 4.8834,-0.1743 5.14342,-0.8518 z m 86.74733,-7.6134 c 5.59007,-1.1023 10.51424,-2.1284 10.94272,-2.2802 1.14523,-0.4057 -11.66759,-13.8731 -15.87939,-16.6906 -1.91658,-1.2821 -4.26875,-3.0628 -5.22705,-3.9574 -3.49457,-3.2619 -5.86562,-5.0757 -8.28173,-6.33499 -1.35771,-0.70759 -2.61337,-1.52087 -2.79032,-1.80735 -0.17696,-0.28628 -0.81995,-0.52054 -1.42885,-0.52054 -0.60889,0 -1.96554,-0.73161 -3.01485,-1.62573 -1.04924,-0.89423 -3.62553,-2.45584 -5.72506,-3.47046 -2.09954,-1.01452 -4.29623,-2.3738 -4.88149,-3.02048 -1.90701,-2.10723 -2.62648,-1.49948 -2.62648,2.21881 0,4.81447 -0.4537,5.0952 -9.56754,5.91907 -11.23977,1.016 -16.32912,0.15339 -19.54586,-3.3132 -2.35402,-2.5368 -2.82968,-3.87507 -2.82968,-7.9608 0,-2.07848 -0.19602,-3.89002 -0.43558,-4.02558 -0.92903,-0.52579 -14.86825,0.48685 -15.06908,1.09479 -0.24456,0.74043 4.58029,4.80416 11.35733,9.56562 2.67015,1.87604 5.41436,3.96285 6.09824,4.63729 0.68387,0.67452 3.59557,3.0691 6.47045,5.32145 2.87488,2.2521 6.0341,4.9121 7.02045,5.9109 4.77502,4.8352 12.56902,9.6431 18.53401,11.433 8.14113,2.443 12.52384,4.6943 16.10048,8.2701 l 3.36831,3.3677 3.62362,-0.3636 c 1.99303,-0.2 8.19731,-1.2656 13.78735,-2.3678 z M 321.1688,994.13553 c 2.56305,-0.38141 4.23024,-2.31681 5.54037,-6.43168 0.38767,-1.21767 1.0638,-3.26791 1.50252,-4.55633 1.57731,-4.63224 1.15342,-4.9638 -4.42937,-3.4653 -4.01918,1.07873 -9.46617,1.07149 -12.48685,-0.0169 -1.27772,-0.46039 -2.91117,-0.84091 -3.62989,-0.84567 -1.25036,-0.0104 -1.30676,0.19819 -1.30676,4.78652 0,5.60297 0.62825,8.20547 2.45445,10.16761 1.24269,1.33519 1.57776,1.39802 5.67652,1.06318 2.39573,-0.1958 5.40128,-0.51152 6.67901,-0.70158 z m 108.59752,-2.94349 c 3.50887,-0.93495 3.68113,-1.06594 4.00922,-3.04911 0.5069,-3.06358 0.4285,-5.15287 -0.2081,-5.54627 -0.31003,-0.19165 -1.41014,0.0892 -2.44463,0.62419 -2.93876,1.5197 -12.05561,0.86301 -16.03846,-1.15524 -1.6414,-0.83179 -3.25435,-1.51226 -3.58441,-1.51226 -0.34041,0 -0.60013,1.38602 -0.60013,3.20241 0,3.89686 1.73979,7.00761 4.35588,7.78847 2.93273,0.87539 10.60261,0.68919 14.51063,-0.35219 z m 1.88593,-13.97815 c 2.30838,-1.20607 3.05731,-1.91717 3.05835,-2.90394 5.8e-4,-0.71873 0.006,-1.50275 0.008,-1.74237 0.006,-0.23961 -2.54459,-0.59703 -5.66264,-0.79433 -3.11811,-0.1974 -8.24835,-0.92871 -11.40066,-1.62524 -3.15227,-0.69643 -5.83932,-1.1585 -5.97115,-1.02661 -0.13185,0.1319 0.13624,0.99391 0.59582,1.91558 0.45958,0.92167 1.17725,2.4168 1.59478,3.32251 1.27458,2.76472 5.18621,4.25163 11.53551,4.38471 2.43529,0.0515 3.90477,-0.30918 6.24203,-1.53031 z m -108.86583,-2.11555 c 1.84799,-0.43483 3.82871,-1.21479 4.40161,-1.73325 0.57289,-0.51846 1.34775,-0.94268 1.72187,-0.94268 0.37414,0 0.68026,-0.37111 0.68026,-0.82466 0,-0.55057 -1.39926,-1.13502 -4.21069,-1.75871 -2.31587,-0.51371 -5.51744,-1.29556 -7.11458,-1.73751 -1.59717,-0.44196 -4.60272,-1.24591 -6.67903,-1.78647 -2.0763,-0.54065 -4.7411,-1.38116 -5.92179,-1.86781 -2.35909,-0.9724 -3.95152,-0.68682 -3.95152,0.70862 0,1.19695 2.75606,5.52417 3.51839,5.52417 0.32994,0 1.28067,0.68078 2.11273,1.51287 3.45268,3.45262 8.82309,4.46308 15.44275,2.90543 z m 18.07952,-7.46741 c -0.22998,-0.71872 -0.48752,-7.97129 -0.57229,-16.11669 -0.0848,-8.14551 -0.45414,-18.86101 -0.82082,-23.81213 -0.36665,-4.95121 -0.75232,-10.17831 -0.85704,-11.61576 -0.18773,-2.57713 -2.3132,-19.78109 -2.89121,-23.40207 -0.16346,-1.02404 -0.70854,-4.47547 -1.21127,-7.66976 -0.50273,-3.19439 -1.15411,-6.59191 -1.44748,-7.55024 -0.29339,-0.95825 -0.65254,-3.4988 -0.79815,-5.64557 -0.14559,-2.14676 -0.40514,-4.13042 -0.57677,-4.40809 -0.17163,-0.27766 -0.47032,-5.96979 -0.66376,-12.64911 -0.19343,-6.67931 -0.60829,-13.65194 -0.92188,-15.49459 -0.3136,-1.84274 -0.42639,-3.58313 -0.25064,-3.86753 0.50212,-0.81237 -1.00756,-5.88943 -2.56317,-8.61986 -1.04978,-1.84266 -2.16709,-2.82774 -4.34851,-3.83374 -7.37177,-3.3999 -16.51223,-4.73172 -24.06224,-3.50614 -2.75481,0.44721 -6.12868,0.81407 -7.49749,0.81525 -2.90295,0 -5.51375,1.45499 -5.10083,2.83754 0.15439,0.51688 0.32275,4.07603 0.37414,7.90918 0.11989,8.94488 2.46458,31.38604 3.9908,38.19635 0.30435,1.35808 0.84537,4.94974 1.20226,7.98131 0.3569,3.03167 0.89334,6.45754 1.1921,7.61308 0.56744,2.19462 2.52697,18.28239 3.56414,29.26128 0.33194,3.51376 0.63667,14.82868 0.67718,25.14423 0.0717,18.26734 0.10394,18.76132 1.23523,18.97081 1.02144,0.18906 4.34969,0.99628 13.56668,3.2906 1.39248,0.34653 3.46049,1.26037 4.59559,2.03062 1.25639,0.85271 2.49215,1.26464 3.15872,1.05307 0.6022,-0.19114 1.51357,0 2.02526,0.4265 0.98187,0.81674 7.19663,2.09643 10.62959,2.18879 1.118,0.0298 3.07815,0.43115 4.35586,0.89154 3.51104,1.26483 4.52107,1.1595 4.016,-0.41887 z m 97.37048,-1.33578 c 6.59584,-1.88239 6.50686,-1.80718 6.09317,-5.14614 -0.20455,-1.65099 0.0198,-5.77617 0.50795,-9.34444 0.48083,-3.51376 1.16784,-11.09294 1.52677,-16.84276 0.35892,-5.74971 0.76913,-11.36882 0.91165,-12.48679 0.44383,-3.48245 0.55959,-51.806 0.16134,-67.37085 -0.31013,-12.12065 -0.23441,-14.97652 0.41724,-15.72686 1.20955,-1.39296 1.04489,-4.60062 -0.23615,-4.60062 -0.56777,0 -1.67852,-0.45554 -2.46834,-1.01235 -1.81511,-1.27969 -13.41551,-1.8136 -16.3757,-0.7538 -1.08827,0.38974 -7.1915,0.82734 -14.25585,1.02216 -11.94358,0.32938 -12.36105,0.38101 -12.60178,1.55874 -0.6711,3.28296 -0.69346,8.56774 -0.0506,11.96249 0.39313,2.07631 0.77686,6.9001 0.8527,10.71956 0.0759,3.81937 0.34534,7.3477 0.59896,7.84059 0.25357,0.4928 0.64137,3.5096 0.86165,6.70399 0.2203,3.19429 0.76537,8.68269 1.21123,12.19645 2.21767,17.47538 3.7295,39.78356 4.09249,60.38692 l 0.29644,16.82819 4.19,1.69233 c 2.30455,0.93079 5.75812,2.01695 7.6747,2.41362 5.03377,1.04197 12.86615,1.02285 16.59212,-0.0406 z m -32.88971,-22.09086 c -0.0355,-11.99311 -0.47491,-21.89377 -1.24856,-28.11794 -0.21838,-1.75683 -0.44942,-4.10902 -0.51342,-5.227 -0.0639,-1.11797 -0.29952,-5.29963 -0.5234,-9.29251 -0.2239,-3.99289 -0.65878,-7.7302 -0.96643,-8.30504 -0.30764,-0.57484 -0.82274,-4.7565 -1.14466,-9.29252 -0.32199,-4.53611 -0.68265,-9.5994 -0.80154,-11.25209 -0.11895,-1.65258 -0.4709,-5.05021 -0.78221,-7.55015 -0.91275,-7.33036 -1.15495,-24.11841 -0.43837,-30.39035 0.29318,-2.56643 0.24597,-2.65531 -2.62444,-4.93665 -1.60761,-1.27772 -4.40419,-3.69155 -6.21468,-5.36395 -1.81042,-1.6725 -3.52506,-3.04465 -3.81029,-3.04911 -0.69293,-0.0109 -0.0956,6.99314 1.98036,23.22311 0.30643,2.39568 0.80456,6.90574 1.10692,10.02213 0.30235,3.1165 0.68747,6.12211 0.85584,6.67903 0.16837,0.55699 0.58549,3.23421 0.92687,5.94938 0.34145,2.71516 1.03147,8.20358 1.5335,12.19645 0.50204,3.99288 1.124,9.08928 1.38215,11.32523 0.25822,2.23604 0.75125,6.02569 1.0957,8.42138 0.68388,4.75639 2.03897,19.27809 3.03495,32.52384 0.34829,4.63175 0.48327,11.18371 0.30004,14.55984 l -0.33326,6.13846 3.02953,2.06729 c 1.66622,1.137 3.29085,2.01111 3.61027,1.94244 0.36613,-0.0782 0.5676,-4.6149 0.54513,-12.27127 z m -112.30872,9.48782 c 0.30626,-15.54086 -1.41188,-51.98059 -2.59461,-55.02921 -0.1859,-0.47912 -0.45794,-2.30859 -0.60454,-4.06552 -0.14661,-1.75683 -0.53432,-4.23972 -0.86157,-5.51744 -0.32727,-1.27772 -0.60436,-3.36849 -0.61574,-4.6462 -0.0114,-1.27772 -0.53556,-4.41404 -1.16482,-6.96946 -0.62926,-2.55543 -0.98873,-5.14098 -0.7988,-5.74576 0.18992,-0.60476 0.0741,-2.04221 -0.2573,-3.19428 -1.5096,-5.24771 -2.13256,-10.91369 -2.68875,-24.45495 -0.16401,-3.99287 -0.42164,-7.78252 -0.57252,-8.42137 -0.15089,-0.63885 -0.32521,-4.79009 -0.38742,-9.22493 -0.10279,-7.33284 -0.2199,-8.14838 -1.2923,-9.00207 -2.78622,-2.21831 -3.92477,-3.6312 -4.25452,-5.27988 -0.206,-1.03008 -0.71641,-1.75722 -1.2334,-1.75722 -0.74556,0 -0.81829,0.65135 -0.47018,4.21065 0.2265,2.31591 0.52769,6.69358 0.66931,9.72813 0.14162,3.03464 0.64408,8.39234 1.11658,11.90611 2.17398,16.16684 3.26679,36.97959 3.82712,72.88827 l 0.55734,35.71824 5.34742,5.37217 c 2.94106,2.95477 5.54857,5.37226 5.79445,5.37226 0.24588,0 0.4638,-0.84933 0.48425,-1.88754 z M 429.48488,828.24334 c 5.32515,-0.8311 10.44522,-0.88927 14.37439,-0.16301 2.0799,0.38449 2.46833,0.30739 2.46833,-0.48922 0,-0.51995 -0.19602,-0.94714 -0.43558,-0.94922 -1.24178,-0.0109 -8.58184,-5.41329 -9.61261,-7.0746 l -1.19351,-1.92371 -0.37652,1.74236 c -0.52393,2.42453 -1.52584,4.14024 -3.03507,5.19728 -1.78625,1.25115 -6.3303,1.16593 -8.06411,-0.15122 -0.76181,-0.57881 -2.60801,-1.75505 -4.10271,-2.614 -1.49477,-0.85894 -3.06287,-1.90369 -3.4847,-2.32176 -1.55244,-1.53824 -6.67031,-3.83691 -9.99971,-4.49142 -2.18484,-0.42958 -3.92916,-1.17763 -4.81788,-2.06637 -1.2053,-1.20535 -1.94186,-1.39306 -5.46534,-1.39306 -4.641,0 -9.23295,0.97896 -9.23295,1.96838 0,1.08249 9.5759,10.75967 12.60688,12.74026 4.65412,3.04129 5.94595,3.28219 16.1419,3.00899 5.1109,-0.13696 11.51403,-0.59576 14.22919,-1.01968 z m -97.74318,-7.7531 c 0.11537,-0.35098 -0.29659,-1.26344 -0.9155,-2.02765 -1.11067,-1.37165 -1.14106,-1.37532 -2.34692,-0.2841 -1.15538,1.04564 -1.168,1.16494 -0.23263,2.19849 1.03411,1.14265 3.13422,1.21073 3.49505,0.11326 z m 97.55181,-1.24947 c 0.95179,-0.88034 1.07131,-1.69668 0.89284,-6.09824 -0.19008,-4.68877 -0.29916,-5.08185 -1.41048,-5.08185 -0.66245,0 -2.74283,-0.56092 -4.62305,-1.24648 -3.27434,-1.19385 -3.70958,-1.21494 -10.31633,-0.49941 -6.59213,0.71397 -6.90982,0.80984 -7.16862,2.16341 -0.18502,0.96823 0.0279,1.50621 0.67383,1.70025 2.64925,0.79626 10.49511,4.79981 12.76934,6.51591 4.65463,3.51228 7.33465,4.25558 9.18247,2.54641 z m -133.88927,-4.15044 c 3.90276,-0.49834 5.14674,-0.92008 5.14674,-1.74492 0,-0.67982 -4.54566,-1.91026 -5.7016,-1.54337 -1.67204,0.53071 -4.85468,-0.70862 -6.89278,-2.68403 -1.05886,-1.02625 -1.9252,-2.12423 -1.9252,-2.43982 0,-0.31565 -0.54602,-1.70181 -1.21339,-3.08042 -1.11823,-2.30996 -1.38851,-2.50648 -3.44689,-2.50648 -7.60008,0 -7.40165,3.72085 0.5948,11.15237 4.32459,4.01905 4.37463,4.04561 6.96939,3.69353 1.43744,-0.19502 4.34846,-0.57613 6.46893,-0.84686 z m 30.03294,-0.83823 c 0.85851,-0.9139 1.51703,-2.76828 2.0109,-5.66268 1.06818,-6.26038 1.03535,-6.31956 -3.56315,-6.42804 -2.13274,-0.0506 -4.26973,-0.0584 -4.74888,-0.018 -1.33993,0.11338 -10.42616,-2.77986 -13.35802,-4.25349 -3.69808,-1.85879 -6.65045,-2.69453 -11.32527,-3.20591 -2.23602,-0.24462 -4.5882,-0.53653 -5.22706,-0.64874 -1.08266,-0.1901 -1.15939,0.10681 -1.12957,4.37103 0.0313,4.47814 0.0754,4.61485 2.0835,6.45513 1.62159,1.48605 2.76687,1.96943 5.46475,2.30651 4.15615,0.51929 9.67568,2.16801 14.95341,4.46664 3.45888,1.50649 11.15588,3.85296 12.93809,3.94413 0.34361,0.0178 1.1992,-0.5795 1.9013,-1.32686 z M 430.916,800.22012 c 0.41612,-1.42003 0.55249,-4.11743 0.35084,-6.93852 l -0.33001,-4.61531 -14.51783,0.16094 c -7.98479,0.0884 -14.63075,0.27384 -14.7688,0.41189 -0.48978,0.48978 3.16899,10.7935 4.24383,11.95154 0.83605,0.90068 1.51771,1.091 2.90393,0.81088 0.99634,-0.2013 4.55566,-0.51445 7.90968,-0.69584 4.65736,-0.25189 6.64713,-0.12335 8.42136,0.54391 3.76192,1.41473 4.99684,1.06702 5.787,-1.62949 z m -101.31202,-2.91248 c 1.52127,-0.94022 0.0423,-4.92811 -1.82756,-4.92811 -0.65564,0 -4.25935,-1.30757 -8.00826,-2.90571 -6.3757,-2.71789 -7.03869,-2.88244 -10.25968,-2.54575 -2.58672,0.27034 -4.02109,0.11278 -5.76491,-0.63329 -2.44303,-1.04518 -8.27689,-2.12539 -12.19473,-2.25797 -2.21471,-0.075 -2.31758,0 -2.20414,1.58902 0.19793,2.77406 1.5216,3.66103 6.14282,4.11642 2.34269,0.23085 5.45975,1.00411 7.09033,1.75902 9.19548,4.25697 13.91024,5.86057 18.59095,6.32322 2.76896,0.27367 7.63888,-0.025 8.43518,-0.51685 z m 29.60611,-9.28543 c 6.86777,-0.4784 14.31632,-1.11842 16.55232,-1.42234 5.7055,-0.77546 24.10966,-1.68137 41.23564,-2.02979 9.59139,-0.19514 15.99807,-0.59531 18.87545,-1.17893 2.39573,-0.486 5.04358,-0.88389 5.88409,-0.88424 1.96171,0 4.27038,-2.94272 5.1969,-6.62209 0.65426,-2.59831 0.52115,-15.22605 -0.37402,-35.48541 -0.16936,-3.83317 -0.54308,-12.32712 -0.83052,-18.87546 -0.51776,-11.79739 -0.38216,-31.43972 0.30347,-43.95212 0.334,-6.09532 0.2847,-6.52958 -0.8084,-7.11459 -2.45149,-1.31194 -17.98466,-0.35985 -27.6662,1.69582 -18.50701,3.92959 -54.06449,4.3344 -77.24418,0.87938 -11.30881,-1.68563 -22.55084,-3.20077 -22.66949,-3.05528 -0.51715,0.6341 -1.1531,22.96075 -0.74045,25.99564 0.79121,5.81927 1.08172,35.35281 0.49412,50.23446 -0.2901,7.34689 -0.71194,18.49701 -0.93743,24.77795 l -0.40998,11.42 3.12947,1.63856 c 3.4548,1.80892 4.3072,2.13068 9.80849,3.70251 4.80194,1.37204 13.34333,1.45009 30.20072,0.27593 z m -46.15814,-19.57717 c 0.8589,-21.70649 1.22929,-59.37912 0.60989,-62.03435 -0.18463,-0.79148 -0.41275,-10.46002 -0.50691,-21.48561 -0.0942,-11.0256 -0.40022,-20.43429 -0.68012,-20.90822 -0.2799,-0.47391 -2.29036,-2.85327 -4.4677,-5.28744 -3.0135,-3.36901 -4.96576,-4.94794 -8.17579,-6.61228 -2.31935,-1.20252 -5.12763,-2.86983 -6.24064,-3.70511 -1.113,-0.83534 -2.44773,-1.7801 -2.96606,-2.09953 -3.14883,-1.94051 -6.08596,-4.07733 -8.07724,-5.87631 -1.25403,-1.13293 -2.51437,-1.91508 -2.80077,-1.73806 -0.611,0.37763 -1.30046,13.90879 -1.32012,25.90905 -0.008,4.63175 -0.2746,9.41915 -0.59333,10.63867 -0.38837,1.48605 -0.38378,3.21005 0.0138,5.22705 0.32637,1.65536 0.73085,5.62326 0.89883,8.81757 1.21465,23.09724 1.51474,27.8869 2.03766,32.52388 1.59742,14.16478 2.91835,35.77747 2.92201,47.80858 0.003,8.66332 0.0334,8.88633 1.17698,8.52334 0.64586,-0.20496 2.27931,0.0261 3.6299,0.51411 3.32053,1.19921 14.17504,2.30054 18.28588,1.85543 1.83456,-0.19862 3.71512,-0.11064 4.17902,0.1955 0.4639,0.30618 1.01037,0.45352 1.2144,0.32744 0.20401,-0.12608 0.5911,-5.79326 0.86018,-12.59371 z m 90.58807,-98.88448 c 4.47203,-0.44871 10.7445,-1.36239 13.9388,-2.0303 7.63045,-1.59558 13.01036,-2.28556 18.06428,-2.31681 6.81514,-0.0418 11.26529,-0.66638 11.26529,-1.5803 0,-1.07248 -7.08265,-7.90761 -10.7445,-10.36885 -1.59716,-1.07351 -4.47203,-3.03819 -6.38862,-4.36592 -1.91657,-1.32767 -4.13808,-2.78457 -4.93666,-3.23752 -0.79857,-0.45289 -2.62804,-1.72225 -4.06548,-2.82081 -1.43744,-1.09855 -3.93556,-2.78265 -5.55137,-3.7425 -1.61585,-0.95981 -4.70063,-3.06283 -6.85514,-4.67339 -3.20809,-2.39806 -4.20088,-2.86055 -5.48354,-2.55447 -0.86142,0.2056 -1.82755,0.57481 -2.14698,0.82041 -0.31943,0.24568 -3.71702,0.50012 -7.55018,0.56546 -3.83317,0.0653 -8.27617,0.15496 -9.87332,0.19921 -1.59715,0.0441 -5.19928,-0.12987 -8.00482,-0.38692 l -5.10091,-0.46747 0.40574,1.62903 c 0.22313,0.89593 1.14647,3.42906 2.05179,5.62913 2.40148,5.83595 2.26158,6.676 -1.78411,10.70907 -4.09186,4.07919 -5.08098,4.33136 -14.98984,3.82143 -8.56773,-0.44087 -10.72167,-0.9796 -13.41078,-3.3542 -1.17976,-1.0418 -3.79666,-3.14777 -5.81533,-4.68006 -2.08199,-1.58031 -3.99967,-3.57461 -4.4314,-4.6084 -1.3959,-3.34258 -2.062,-5.95047 -2.062,-8.0729 0,-1.15633 -0.24681,-2.25493 -0.54846,-2.44137 -0.30166,-0.18644 -2.32714,0.0337 -4.50107,0.48907 -8.95666,1.87646 -12.53447,2.28818 -21.66651,2.49337 -5.27061,0.11841 -10.36699,0.35497 -11.32528,0.5256 -3.66507,0.6527 -6.67901,1.57916 -6.67901,2.05308 0,0.27145 1.11003,1.05981 2.46673,1.75194 2.35058,1.19918 6.38327,4.1502 10.9619,8.0216 1.15685,0.97816 2.35742,1.77848 2.66795,1.77848 0.31054,0 2.10823,1.03681 3.99488,2.30396 3.52291,2.36622 8.10314,7.16262 10.92713,11.44277 1.31756,1.99703 2.07314,2.52878 4.31019,3.03367 6.65341,1.50155 11.87841,2.37127 17.81291,2.96506 3.51374,0.35155 8.21806,0.91723 10.45408,1.25699 11.25477,1.71024 38.60897,1.81687 54.59364,0.21286 z M 236.43858,657.77409 c 0.35471,-0.2347 1.09841,-1.31142 1.65265,-2.39278 0.91801,-1.79101 1.03004,-5.34041 1.25837,-39.87171 0.17175,-25.97147 0.0534,-38.70073 -0.37572,-40.43111 -0.85613,-3.45184 -1.70835,-24.95086 -1.99945,-50.44012 -0.13315,-11.65923 -0.3741,-22.37468 -0.53547,-23.81212 -0.51828,-4.617 -0.66284,-54.81544 -0.16349,-56.77207 0.63869,-2.50267 -0.53698,-2.95698 -4.48246,-1.73214 -1.63283,0.50689 -4.79824,1.47799 -7.03427,2.15796 -4.52362,1.37565 -13.60687,5.611 -17.89364,8.34348 l -2.79327,1.7805 0.38458,6.704 c 0.21152,3.6872 0.60368,7.74942 0.87144,9.02715 0.26777,1.27772 0.54085,7.61103 0.60684,14.07403 0.12715,12.45284 1.27384,37.80554 2.27924,50.39292 0.92373,11.5649 1.00175,12.65539 1.66202,23.23134 0.57262,9.17184 0.92036,16.15397 1.53308,30.78152 0.40503,9.6697 0.90978,32.71495 1.10029,50.23776 0.099,9.10379 0.38196,17.02684 0.62882,17.60681 0.37798,0.88801 0.82633,0.98448 2.8404,0.6111 3.16664,-0.58701 15.01973,-0.34998 16.72661,0.33452 1.66895,0.66924 2.89346,0.72465 3.73343,0.16896 z m -28.49359,-31.64381 c -0.56173,-36.49684 -0.84628,-43.24183 -3.5098,-83.19723 -1.65701,-24.8569 -2.11078,-35.66331 -2.38993,-56.91678 -0.3064,-23.3289 -0.88318,-32.80248 -2.18706,-35.9231 -0.87497,-2.09411 -4.31039,-4.51753 -8.40401,-5.92839 -3.35088,-1.15487 -3.78291,-0.41705 -3.23645,5.52717 0.2509,2.72912 0.35143,8.8823 0.22342,13.67376 -0.21263,7.95863 -0.20874,17.64638 0.0136,33.97584 0.0457,3.35403 0.44584,9.36512 0.88927,13.35802 0.44341,3.99288 0.96704,11.31075 1.16361,16.26194 0.19657,4.95117 0.70509,15.7973 1.13005,24.1025 0.42496,8.30521 0.79838,24.24771 0.8298,35.42779 0.0314,11.18009 0.34887,24.58572 0.70545,29.79031 0.60544,8.83713 0.5789,9.53965 -0.4014,10.62287 -1.01263,1.11894 -1.01214,1.2258 0.0136,3.02391 0.58489,1.0252 1.78614,2.64808 2.66947,3.60637 1.91623,2.07886 7.5246,11.49191 7.5246,12.6292 0,0.89476 4.07506,5.63743 4.85852,5.6545 0.28145,0.006 0.32858,-11.29954 0.10711,-25.68868 z m 159.54126,20.98649 c 2.20367,-2.43401 2.7284,-4.37737 1.5108,-5.59504 -0.50239,-0.50238 -1.10076,-0.44296 -2.42252,0.24057 -1.84165,0.95236 -4.47173,0.90659 -17.39388,-0.30283 -7.19329,-0.67318 -12.16092,-2.46171 -14.1762,-5.10392 -0.81768,-1.07202 -1.71701,-1.94911 -1.99853,-1.94911 -1.76594,0 1.3539,7.68242 3.26768,8.04646 0.63643,0.1211 1.87476,0.72936 2.75188,1.35173 0.87711,0.62236 3.4166,2.04301 5.64331,3.15701 3.65253,1.82725 4.66113,2.05713 10.31134,2.35003 3.44451,0.17853 6.39157,0.4461 6.54908,0.5946 0.87344,0.82367 4.01972,-0.64966 5.95704,-2.7895 z m 106.5212,-3.97111 c -1.44598,-7.22988 -1.80119,-32.38663 -0.66465,-47.07093 0.52636,-6.80063 1.57433,-25.27702 1.61411,-28.45839 0.0261,-2.0763 -0.16088,-12.66107 -0.41526,-23.52172 -0.25438,-10.86065 -0.46264,-20.13867 -0.46288,-20.61782 -2.3e-4,-0.47915 0.15025,-17.7284 0.33436,-38.3317 0.33221,-37.16947 0.43036,-40.55375 1.54969,-53.43208 0.94376,-10.85948 1.21201,-19.63748 0.6114,-20.00867 -0.80989,-0.50057 -5.63836,0.666 -9.62881,2.32636 -1.91659,0.79747 -4.66079,1.6451 -6.09822,1.88364 l -2.61353,0.43371 -0.4188,4.63337 c -1.57202,17.39126 -1.43348,22.50744 1.54837,57.19426 0.50801,5.90948 1.02491,12.4433 1.14861,14.51959 0.12371,2.0763 0.35515,4.68983 0.51429,5.80784 2.2852,16.0561 2.3959,32.24974 0.40632,59.45155 -0.37578,5.13725 -0.56669,21.48196 -0.47148,40.36444 0.10523,20.88032 -0.0638,33.61825 -0.49425,37.24889 -0.54245,4.57501 -0.5133,5.791 0.17057,7.11873 0.73359,1.42419 1.06377,1.56609 2.98569,1.28277 1.18846,-0.17516 3.72899,-0.0781 5.64557,0.21542 5.36853,0.82263 5.1221,0.87669 4.7389,-1.03926 z m -18.29886,-3.80256 c 0.20838,-2.55545 0.59728,-6.86776 0.86421,-9.58293 0.47031,-4.78409 0.50725,-9.16098 0.27929,-33.10466 -0.21192,-22.25928 0.61564,-48.76988 1.72545,-55.27467 0.97107,-5.69155 0.76454,-33.10441 -0.2941,-39.03352 -0.5065,-2.83686 -0.92612,-6.75715 -0.93246,-8.71175 -0.006,-1.9546 -0.28161,-5.38329 -0.61179,-7.6193 -0.33012,-2.23601 -0.71872,-5.6336 -0.86351,-7.55018 -0.14479,-1.91659 -0.5104,-6.62093 -0.8124,-10.4541 -1.01463,-12.87711 -1.28382,-30.11133 -0.64711,-41.42762 l 0.63171,-11.22689 -2.34073,-3.33694 c -1.7234,-2.45694 -3.84164,-4.362 -8.03229,-7.22401 -5.68529,-3.88277 -8.24886,-5.0266 -11.26586,-5.0266 -1.43285,0 -1.60099,0.2069 -1.60099,1.97061 0,2.16154 0.69114,2.667 3.67741,2.68956 2.46972,0.0186 11.34658,4.5285 12.786,6.49583 1.64427,2.24734 1.95898,7.32839 0.6639,10.7195 -0.56284,1.47377 -2.29456,4.0833 -3.84827,5.79895 -1.55371,1.71566 -2.84345,3.18194 -2.86617,3.25842 -0.0227,0.0765 -0.27907,2.49122 -0.56964,5.36609 -1.81332,17.93998 -2.13455,32.12711 -1.3347,58.94952 0.27152,9.10378 0.44274,29.3586 0.3806,45.01072 -0.12278,30.89448 -0.0987,30.59625 -4.24059,52.5609 -1.21744,6.45628 -1.2326,7.55216 -0.20194,14.59683 0.34841,2.38115 0.0872,2.65569 -3.83781,4.03313 -2.9832,1.04699 -3.37006,1.85666 -3.44684,7.21491 -0.0636,4.43387 0.35852,5.97027 1.76268,6.41597 1.78527,0.56661 9.50319,7.00674 16.15373,13.47928 7.68545,7.47985 8.28929,7.54915 8.82222,1.01295 z m -92.10348,-1.31565 c 1.26581,-0.87129 2.18914,-8.51278 1.64263,-13.59422 l -0.52021,-4.83676 -2.77214,0.17568 c -1.52467,0.0967 -3.84439,0.55401 -5.15486,1.01637 -4.42371,1.5608 -9.9038,0.7484 -13.83519,-2.05104 -1.72036,-1.22498 -4.9244,-1.58031 -5.52257,-0.61249 -0.54222,0.87739 -0.4336,11.14459 0.13847,13.08714 0.87216,2.96154 4.69467,4.83845 11.18549,5.49218 3.02867,0.30503 6.68278,0.7948 8.12022,1.08845 3.35385,0.68497 5.93305,0.77511 6.71816,0.23469 z m -7.58933,-21.90408 c 1.91658,-0.46276 4.43277,-0.85072 5.59155,-0.86211 2.18513,-0.0215 3.15767,-0.72319 3.50062,-2.52583 0.18683,-0.98199 -0.46766,-1.05691 -9.67295,-1.10778 -14.07334,-0.0778 -16.678,0.036 -16.26192,0.70902 0.19742,0.31943 1.2001,0.58078 2.22818,0.58078 1.02808,0 2.38476,0.35864 3.01484,0.79695 2.37729,1.65379 5.81711,3.26819 6.94481,3.25948 0.64362,-0.006 2.73828,-0.38774 4.65487,-0.85051 z m -36.00856,-5.28622 c 1.9166,-0.42136 4.53012,-1.02225 5.80784,-1.33529 6.40037,-1.56805 38.97595,-2.88876 43.56141,-1.76611 4.63459,1.13475 49.51294,1.59629 54.81544,0.56383 1.72063,-0.33505 4.27701,-0.60918 5.68087,-0.60918 2.90358,0 3.82609,-1.13544 2.29608,-2.82608 -1.26878,-1.40197 -1.32013,-9.8576 -0.0745,-12.26633 0.47689,-0.92223 0.72673,-2.04238 0.55523,-2.48924 -0.17145,-0.44691 0.11215,-2.06126 0.63032,-3.58744 1.0288,-3.03023 1.92175,-7.42938 2.24595,-11.06438 0.11394,-1.27773 0.51835,-4.67532 0.89865,-7.5502 0.77041,-5.82398 1.03309,-39.54066 0.41625,-53.43207 -1.12562,-25.34992 -1.29521,-38.12774 -0.66279,-49.94738 0.20507,-3.83317 0.46713,-9.45224 0.58235,-12.48684 0.55819,-14.70436 0.75832,-17.47834 1.30955,-18.15032 0.73126,-0.89147 1.09158,-3.42172 0.59954,-4.20984 -0.72343,-1.15858 -21.97406,-0.0559 -25.44644,1.32035 -0.79858,0.31652 -3.54278,1.03078 -6.09823,1.58726 -7.1358,1.55391 -17.99737,4.84888 -27.00642,8.19267 -1.43745,0.53353 -3.65894,1.17424 -4.93666,1.4238 -1.27773,0.24956 -3.86645,0.99666 -5.75278,1.66022 -1.88633,0.66354 -4.1903,1.20647 -5.12001,1.20647 -0.92972,0 -2.26128,0.31222 -2.95898,0.69387 -0.6977,0.38163 -5.369,1.1224 -10.38069,1.64617 -10.21928,1.06802 -19.4122,0.73873 -24.86373,-0.89063 -1.75687,-0.52509 -4.40548,-1.32737 -5.88577,-1.78285 -1.48032,-0.45547 -3.13879,-0.82813 -3.68549,-0.82813 -0.54669,0 -1.68771,-0.36526 -2.53558,-0.81166 -0.84787,-0.44642 -2.71765,-1.12701 -4.15508,-1.51244 -1.43745,-0.38544 -3.21387,-0.93492 -3.94762,-1.22109 -2.25124,-0.87799 -8.70564,-0.6141 -10.74602,0.43937 -1.02228,0.52781 -3.29613,2.20852 -5.05301,3.7349 -1.75687,1.5264 -3.91303,3.04822 -4.79146,3.38185 l -1.59715,0.60658 -0.002,12.64641 c -0.002,11.74028 -0.0878,12.78687 -1.19727,14.60671 -1.53088,2.51107 -1.58321,3.2399 -2.06351,28.73411 -0.39209,20.81151 -0.18287,27.39527 1.57151,49.45372 0.70092,8.81268 1.44359,15.79684 2.2851,21.48899 0.33057,2.236 0.83728,6.28697 1.12602,9.00213 0.92054,8.6563 1.76774,12.9969 3.05614,15.65834 0.6902,1.42582 1.40341,3.50583 1.58489,4.62233 0.28583,1.7585 0.60241,2.08652 2.36754,2.45328 1.12066,0.23285 3.33954,0.99943 4.93083,1.70356 7.20447,3.18792 14.22798,3.78996 22.6399,1.94058 z m -35.35052,-6.33298 c 0.18214,-0.47469 -0.21853,-2.67289 -0.89041,-4.88492 -0.67188,-2.21202 -1.49269,-6.72401 -1.82401,-10.02659 -0.33132,-3.30262 -1.01947,-8.22627 -1.52923,-10.94143 -0.50975,-2.71517 -1.0078,-5.98207 -1.10676,-7.2598 -0.099,-1.27772 -0.45794,-5.45935 -0.79771,-9.29253 -0.33978,-3.83317 -0.74195,-9.7136 -0.89371,-13.06763 -0.27962,-6.17988 -0.55744,-10.33347 -1.1871,-17.74915 -0.8965,-10.55834 0.0157,-55.74636 1.19799,-59.34984 0.13102,-0.39929 0.73844,-0.72598 1.34984,-0.72598 1.06797,0 1.11056,-0.61035 1.08442,-15.53597 -0.015,-8.54477 0.14778,-16.07293 0.36169,-16.72925 0.27901,-0.85613 -0.0694,-1.67668 -1.23302,-2.90393 -0.89205,-0.94083 -2.5018,-3.18864 -3.57721,-4.99512 -1.70169,-2.85849 -2.56522,-3.61587 -6.65738,-5.83901 -2.58615,-1.40496 -6.13953,-3.15834 -7.89639,-3.89641 -1.75687,-0.73805 -4.2837,-2.22679 -5.61519,-3.30833 -1.33148,-1.08152 -2.69628,-1.96641 -3.03288,-1.96641 -0.33661,0 -1.02353,1.41555 -1.52648,3.14566 -0.50296,1.73011 -1.29433,3.4609 -1.75858,3.8462 -0.64686,0.53686 -0.83405,2.14285 -0.80106,6.87285 0.0237,3.39477 0.21991,7.34841 0.43609,8.78584 l 0.39305,2.61353 3.1938,-0.19446 c 2.48242,-0.15115 3.49516,-0.51235 4.54676,-1.62163 1.5654,-1.65126 2.66571,-1.49914 6.13337,0.84797 5.44653,3.68654 6.87338,9.01957 5.32818,19.91481 -0.5588,3.94012 -1.35708,7.82343 -1.77395,8.62954 -1.61858,3.13 -4.17006,4.53849 -9.12623,5.03798 -3.66201,0.36905 -7.19343,2.08001 -6.52511,3.16138 0.18675,0.30216 0.42534,3.35307 0.53019,6.7798 0.10487,3.42673 0.37967,11.58814 0.61069,18.13648 0.41539,11.77538 0.0854,20.63302 -1.76357,47.33386 -0.46451,6.70803 -0.96584,13.97555 -1.11405,16.15001 -0.35738,5.24308 -0.15875,5.62935 2.89481,5.62935 2.16441,0 3.00272,0.40069 5.92329,2.83121 3.29705,2.74385 4.97997,4.54933 7.40275,7.94181 0.63886,0.89457 1.56255,2.0382 2.05264,2.54133 0.49008,0.50319 1.55897,1.96027 2.37531,3.23798 0.81635,1.27772 1.98347,3.06967 2.59363,3.98209 0.61016,0.9124 1.63209,2.5059 2.27095,3.54104 3.40378,5.51512 5.8676,8.44842 7.09628,8.44842 0.42942,0 0.93118,0.39202 1.11505,0.87117 0.42797,1.11528 1.3128,1.1194 1.73925,0.008 z m -38.41029,-139.3961 c -5.8e-4,-2.23602 -0.36603,-5.55517 -0.81176,-7.37588 -0.51937,-2.12151 -0.67854,-4.57234 -0.44317,-6.82421 l 0.36728,-3.51381 -1.91284,0 c -3.84133,0 -4.14555,0.69084 -4.35793,9.89628 -0.10468,4.53753 -0.0442,8.83227 0.1344,9.54387 0.35215,1.40309 3.10036,2.60505 5.57338,2.43757 1.40125,-0.095 1.45192,-0.24032 1.45064,-4.16382 z m 15.37672,1.61517 c 1.66267,-2.05332 3.12677,-9.94338 2.65778,-14.32279 -0.46678,-4.35866 -2.56337,-7.74976 -4.31812,-6.9843 -0.5158,0.22501 -2.61331,0.60204 -4.66114,0.83784 -5.16477,0.59473 -6.03092,1.71625 -5.61739,7.27355 0.18997,2.55289 0.85947,5.35407 1.77381,7.42156 0.80777,1.82651 1.46867,3.55779 1.46867,3.84733 0,0.28953 0.26701,1.2287 0.59336,2.08706 0.56649,1.48999 0.74175,1.54833 3.87158,1.28878 2.36808,-0.19636 3.54286,-0.59867 4.23145,-1.44903 z M 213.6355,443.6842 c 4.42344,-2.11212 8.34373,-3.84043 8.71176,-3.84068 1.16015,-5.8e-4 6.42447,-2.16515 6.60839,-2.71693 0.0968,-0.29019 -1.06935,-1.14202 -2.5913,-1.89296 -7.46613,-3.68384 -12.15276,-4.45409 -14.37851,-2.36311 -0.67766,0.63664 -4.32766,2.19204 -8.11114,3.45648 -7.61409,2.54464 -8.79213,3.26817 -7.0061,4.30312 0.63196,0.36621 2.71617,2.14774 4.63158,3.95894 1.91541,1.81121 3.61986,3.21262 3.78764,3.11423 0.16779,-0.0984 3.92424,-1.90698 8.34768,-4.01909 z m 141.5091,-0.32903 c 1.11802,-0.29068 3.33951,-0.71114 4.93666,-0.93433 1.59715,-0.22319 3.81865,-0.74166 4.93666,-1.15214 1.118,-0.41047 3.60086,-1.18745 5.51745,-1.72657 1.91658,-0.53914 4.79146,-1.44369 6.38861,-2.01014 7.48025,-2.65292 19.25971,-6.40701 20.09301,-6.40357 0.50994,0.002 1.68603,-0.36715 2.61353,-0.82055 0.92752,-0.45341 4.13437,-1.11583 7.12633,-1.47207 2.99202,-0.35623 6.20816,-1.04494 7.14706,-1.53046 0.95742,-0.49508 4.81731,-1.162 8.78924,-1.51859 5.33652,-0.47912 7.48245,-0.91526 8.70628,-1.76941 l 1.62411,-1.13357 -2.49529,-2.78608 c -1.37244,-1.53233 -2.81866,-2.81267 -3.21387,-2.84516 -0.39522,-0.0325 -2.35537,-2.05797 -4.35588,-4.50101 -4.70691,-5.74811 -9.92884,-10.65845 -11.33479,-10.65845 -0.30823,0 -1.70791,-0.91219 -3.11045,-2.02711 -1.40254,-1.11491 -2.77383,-2.02964 -3.04732,-2.03274 -0.27343,-0.003 -1.44951,-0.74327 -2.61353,-1.64481 -1.16395,-0.90154 -4.86052,-2.9682 -8.21453,-4.59258 -9.25101,-4.48035 -17.35259,-8.28783 -17.63492,-8.28783 -0.13892,0 -1.6119,0.91473 -3.27329,2.03273 -1.68973,1.13711 -3.7475,2.03275 -4.67031,2.03275 -0.90736,0 -1.79758,0.23926 -1.97832,0.53169 -0.18074,0.29244 -2.06474,1.09259 -4.18676,1.77812 -4.73652,1.53022 -12.5962,1.8685 -14.90778,0.64163 -0.85352,-0.45301 -1.69577,-0.67975 -1.87169,-0.50387 -0.17586,0.17589 0.0851,2.06552 0.57992,4.1992 1.66104,7.16221 1.38778,7.72892 -5.56758,11.54739 -5.07256,2.78483 -9.63509,3.81557 -18.79679,4.24649 -12.08167,0.56826 -14.03428,-0.41306 -14.82919,-7.45278 -0.4739,-4.19687 -0.99077,-6.27612 -1.56014,-6.27612 -0.29338,0 -10.77845,4.71127 -13.52102,6.07543 -0.79858,0.39722 -3.4121,1.31984 -5.80783,2.05027 -5.33883,1.62776 -14.86451,4.80112 -19.15765,6.38213 -1.75236,0.64533 -3.61525,1.17332 -4.13976,1.17332 -0.5245,0 -1.96066,0.42076 -3.19147,0.93503 l -2.23783,0.93502 1.73132,1.38283 c 0.95223,0.76055 3.4301,2.05624 5.50641,2.87931 4.4676,1.771 10.8918,5.46334 12.3945,7.1238 0.58668,0.64828 1.26444,2.04718 1.50617,3.10869 0.42638,1.87256 6.93509,12.63596 7.6566,12.6617 0.19727,0.007 2.06142,-1.12903 4.14255,-2.52457 5.37796,-3.60631 8.65775,-3.9535 17.06723,-1.80674 1.64087,0.41889 3.73168,1.14416 4.64627,1.61173 0.91458,0.46757 2.57761,1.03609 3.69561,1.2634 1.11802,0.2273 3.60086,0.88756 5.51745,1.46724 8.57408,2.59327 10.12397,2.92626 14.2292,3.05716 7.09235,0.22614 16.98231,-0.13808 19.16582,-0.70581 z m 87.93705,-22.14081 c 2.05668,-2.44418 2.02068,-5.22693 -0.0935,-7.22783 -3.44672,-3.26205 -4.82439,-3.05016 -3.33561,0.51304 0.477,1.14167 0.86729,3.52161 0.86729,5.28873 0,1.76714 0.23812,3.21297 0.52915,3.21297 0.29102,0 1.20576,-0.80411 2.03273,-1.78691 z m -7.21082,-1.55258 c 0,-1.17674 -2.25855,-6.79443 -3.49766,-8.71177 -0.46451,-0.71871 -1.42588,-1.30676 -2.13635,-1.30676 -0.71053,0 -1.56213,-0.50501 -1.89243,-1.12224 -0.70657,-1.32018 -2.81353,-2.12542 -3.57332,-1.36561 -0.57057,0.57057 1.67916,3.78553 6.92265,9.89285 3.22469,3.75595 4.1817,4.35474 4.17711,2.61353 z m 29.25243,-10.4384 c 0.91433,-0.46151 3.07049,-0.98443 4.79146,-1.16204 1.72093,-0.17762 3.12892,-0.49008 3.12892,-0.69436 0,-0.20427 -1.45974,-1.8665 -3.24385,-3.69384 l -3.24391,-3.32242 -4.81405,0 c -2.64774,0 -5.827,-0.35239 -7.065,-0.78309 -2.86756,-0.99758 -8.49105,-1.66277 -8.24493,-0.97525 0.10238,0.28586 1.87989,1.78076 3.95003,3.32198 2.07015,1.54122 4.78391,4.1696 6.0305,5.84081 2.22732,2.98589 2.3081,3.03226 4.65749,2.67296 1.31495,-0.2011 3.13897,-0.74324 4.05334,-1.20475 z m -136.23461,-4.53542 c 2.48056,-0.49307 6.63417,-1.94037 9.31546,-3.24594 l 4.83887,-2.35611 -0.32502,-2.7071 c -0.17875,-1.48891 -0.49198,-4.21333 -0.69606,-6.05429 -0.20408,-1.84094 -0.59158,-3.48347 -0.86114,-3.65006 -0.26954,-0.1666 -1.52503,0.44681 -2.78997,1.36313 -4.72725,3.42441 -14.90697,5.92451 -24.12293,5.92451 l -3.79451,0 0.34047,1.88754 c 0.47719,2.64544 1.88788,7.56523 2.39796,8.36281 0.95517,1.49358 9.30283,1.74645 15.69687,0.47551 z m -3.29325,-16.75758 c 3.40151,-0.86523 6.85682,-2.22725 9.20205,-3.62731 4.52811,-2.70319 12.35255,-10.21813 11.89107,-11.42072 -0.39343,-1.02516 -2.42738,-1.98258 -5.83349,-2.74592 -2.54702,-0.57078 -2.62173,-0.54403 -4.76155,1.70539 -1.19566,1.25689 -2.82135,2.41447 -3.61265,2.57237 -6.57301,1.31167 -10.97717,2.41403 -12.29957,3.0786 -0.90734,0.45598 -3.41972,0.78815 -5.96122,0.78815 -4.21667,0 -4.46178,0.0757 -6.11004,1.88754 -1.77463,1.95076 -2.16505,3.80413 -1.18653,5.6325 0.74732,1.39639 1.80173,1.79515 6.98553,2.64183 6.10955,0.99789 5.67366,1.017 11.6864,-0.51243 z m -6.96587,-13.36606 c 2.03438,-0.84422 7.92961,-2.33219 11.66143,-2.94339 2.159,-0.35359 4.83754,-2.82053 4.19366,-3.86235 -0.44805,-0.72498 -4.73788,-0.63718 -6.16419,0.12615 -0.694,0.37142 -6.08546,0.76162 -12.88425,0.93248 -6.42999,0.16161 -11.92463,0.51306 -12.21032,0.78099 -1.02101,0.95755 0.84486,3.92504 3.04134,4.83698 2.70295,1.12221 9.79079,1.19625 12.36233,0.12914 z m -44.79458,-6.35702 c 9.7681,-2.78594 14.3026,-3.25946 33.97582,-3.54801 8.62465,-0.12651 16.07319,-0.37255 16.55234,-0.54678 0.47914,-0.17423 4.13807,-0.72363 8.13097,-1.2209 3.99288,-0.49728 8.69722,-1.31705 10.45409,-1.82172 3.76171,-1.08059 13.78267,-4.68228 15.25246,-5.48199 1.57961,-0.85944 5.69545,-2.15607 8.26925,-2.60508 3.26807,-0.57013 3.80849,-0.9627 4.84106,-3.51666 0.81444,-2.01439 0.92182,-11.81892 0.99867,-91.16954 0.0476,-48.90184 0.26187,-89.61286 0.47675,-90.46893 0.21483,-0.85609 0.11378,-2.07388 -0.22459,-2.70618 -0.42025,-0.78517 -0.42838,-1.4989 -0.0256,-2.25125 0.32425,-0.60587 0.73185,-3.80744 0.9058,-7.11459 0.39817,-7.5709 0.97408,-19.94961 1.1579,-24.88846 0.15316,-4.11473 0.97751,-8.76609 2.10743,-11.89079 0.62544,-1.72974 0.57363,-2.2643 -0.3936,-4.06031 -0.61261,-1.13759 -1.6406,-2.65674 -2.28445,-3.3759 -0.64386,-0.71917 -2.44527,-2.82183 -4.00323,-4.6726 l -2.83259,-3.36502 -6.16956,0.35234 c -7.44686,0.42528 -22.84958,1.68907 -38.98379,3.1986 -13.0333,1.21943 -32.47467,2.24319 -49.65698,2.61491 -6.06919,0.1313 -11.94962,0.30753 -13.06763,0.39164 -1.11801,0.0842 -3.73153,0.0304 -5.80784,-0.11927 l -3.77509,-0.27221 0.0345,4.64628 c 0.0393,5.28366 0.46479,11.12912 1.33153,18.29468 1.43046,11.82583 1.96443,16.75482 2.13925,19.74664 0.10269,1.75687 0.44135,5.4158 0.75263,8.13096 1.31331,11.4555 2.50573,25.81962 2.2531,27.14118 -0.14965,0.78279 -0.0602,3.42489 0.19858,5.8713 0.47888,4.5256 0.82028,14.02674 1.47455,41.03741 0.20118,8.30521 0.48032,15.29216 0.62032,15.52658 0.13999,0.23442 0.36947,7.42161 0.50993,15.97155 0.14048,8.54992 0.40587,17.11344 0.58977,19.03002 0.35092,3.65711 0.53227,7.79346 1.09492,24.9737 0.1883,5.74975 0.48844,10.84612 0.667,11.32527 0.17856,0.47915 0.44944,5.57551 0.60196,11.32528 0.15254,5.74975 0.39593,13.59033 0.5409,17.4235 0.14495,3.83317 0.35356,9.87059 0.46357,13.41648 0.11003,3.5459 0.37652,6.73263 0.59221,7.08163 0.27803,0.44986 1.10659,0.39728 2.84661,-0.18063 1.34994,-0.44833 4.67591,-1.44876 7.39108,-2.22313 z m 36.58935,-21.93823 c -3.71091,-1.47197 -7.38275,-6.93932 -9.51007,-14.16041 -0.56462,-1.91658 -1.39022,-4.39943 -1.83469,-5.51744 -1.08585,-2.7314 -1.82987,-5.98595 -2.29761,-10.05045 -0.30061,-2.61218 -0.79365,-3.83346 -2.18929,-5.42301 -1.75938,-2.00383 -1.78002,-2.09432 -0.88685,-3.88835 1.03221,-2.07328 0.99875,-3.20071 -0.37341,-12.58129 -0.53734,-3.67344 -1.0919,-9.9459 -1.23238,-13.93879 -0.25478,-7.24218 -1.24033,-18.01587 -1.68911,-18.46466 -0.51662,-0.51662 -1.49507,0.62703 -2.52622,2.95275 -1.44972,3.26979 -2.6968,4.30243 -3.94491,3.26657 -0.7338,-0.60899 -0.84905,-1.39007 -0.54608,-3.70102 0.44504,-3.39452 1.2062,-4.70682 5.15187,-8.88213 2.98572,-3.15952 3.8772,-3.57424 4.93731,-2.2969 0.66966,0.80689 3.13387,22.95849 2.64244,23.75366 -0.57195,0.92542 1.31888,1.07424 3.29482,0.2593 2.70084,-1.11392 13.72213,-1.72389 29.98966,-1.65978 11.55177,0.0455 13.67901,0.19129 14.9507,1.02454 2.04467,1.33973 3.23394,0.73157 3.23394,-1.65374 0,-2.29958 1.79659,-8.4858 3.97203,-13.67723 1.24642,-2.97437 1.96236,-3.90139 3.70023,-4.79147 2.97791,-1.52513 3.56259,-1.41933 6.24209,1.12963 1.70942,1.62612 2.34759,2.69973 2.34759,3.94933 0,3.49183 -2.97658,4.28871 -4.2888,1.14815 -1.18973,-2.84735 -2.06748,-3.14655 -3.4944,-1.19117 -2.19571,3.00886 -3.66242,8.60859 -5.55664,21.21431 -3.40032,22.62891 -5.29391,29.9555 -10.60084,41.01607 -1.40404,2.92625 -13.06572,15.58376 -16.05837,17.42964 -3.01648,1.86057 -10.4677,5.39014 -11.28724,5.34664 -0.3816,-0.0202 -1.34719,-0.29598 -2.14577,-0.61275 z m 9.81584,-8.52767 3.00089,-2.72882 -0.69942,-12.31746 c -0.43592,-7.67669 -0.93569,-12.40359 -1.32652,-12.54606 -0.34489,-0.12573 -2.9428,-0.10238 -5.77312,0.052 l -5.14604,0.28061 0.405,6.16721 c 0.22276,3.39198 0.90502,9.13342 1.51614,12.75876 0.61113,3.62533 1.11115,7.69808 1.11115,9.05054 0,1.35245 0.15289,2.61192 0.33977,2.79878 0.7059,0.70591 3.67829,-0.88408 6.57215,-3.51557 z m -12.39724,-2.58363 c -0.18119,-1.35758 -0.59162,-6.64997 -0.91205,-11.76087 -0.32043,-5.11088 -0.80154,-10.07659 -1.06913,-11.03488 -0.44314,-1.5869 -0.6858,-1.72979 -2.71998,-1.60157 -1.22839,0.0774 -2.42806,0.33878 -2.66594,0.58078 -0.52062,0.52968 0.8956,7.65971 2.15758,10.86237 0.49659,1.26025 1.16477,3.74311 1.48483,5.51744 0.94402,5.23339 2.73594,9.90506 3.79926,9.90506 0.14018,0 0.10663,-1.11075 -0.0746,-2.46833 z m 25.67303,-9.72812 1.77072,-2.61352 -0.37992,-6.9694 -0.37992,-6.9694 -3.77509,0.20076 c -2.0763,0.11043 -3.99662,0.41036 -4.26737,0.66651 -0.44877,0.42459 0.55469,18.99731 1.12497,20.82168 0.33882,1.08387 3.63303,-1.78091 5.90661,-5.13663 z m -28.49982,-21.14453 c 0.06,-0.0434 -0.0705,-4.77772 -0.29038,-10.52063 l -0.39965,-10.44164 -3.19432,0.20381 c -1.75687,0.11209 -3.52099,0.4708 -3.92028,0.7971 -0.85644,0.69989 -0.93698,3.93249 -0.19503,7.82745 0.29203,1.53303 0.8426,5.07946 1.22347,7.88096 l 0.69253,5.09364 2.98721,-0.38086 c 1.64296,-0.20947 3.03636,-0.4164 3.09645,-0.45983 z m 15.20409,-0.11561 c 1.29995,-0.26953 1.35703,-0.46468 1.05202,-3.59642 -0.76272,-7.83155 -2.09717,-17.69522 -2.44038,-18.03844 -0.53616,-0.53617 -7.34388,-0.0659 -8.58011,0.59272 -0.95515,0.50884 -1.02909,1.43808 -0.87118,10.94795 l 0.17257,10.3919 2.61353,0.21056 c 2.60882,0.21017 5.45492,0.0305 8.05355,-0.50827 z m 14.26294,-11.26098 -0.0437,-10.16096 -2.27945,-0.48178 c -4.12221,-0.8713 -7.31443,-1.10968 -7.83875,-0.58536 -0.40357,0.40356 1.34599,18.45951 2.07251,21.38906 0.0875,0.35268 1.71287,0.46673 4.13855,0.29039 l 3.9945,-0.29039 -0.0437,-10.16096 z m 8.37638,10.01576 c 0.29316,-0.55901 0.84113,-2.97651 1.2177,-5.37224 0.37659,-2.39573 1.07848,-5.67088 1.55978,-7.27811 0.48131,-1.60722 0.7919,-4.08782 0.69026,-5.51242 -0.21698,-3.04185 -0.97072,-3.38698 -4.87763,-2.23339 l -2.57189,0.75939 0.32726,9.3102 c 0.37283,10.60697 0.50387,11.34294 2.01952,11.34294 0.60611,0 1.34185,-0.45736 1.635,-1.01637 z m -24.31329,-43.42445 c -0.59909,-0.72186 -0.5429,-1.09107 0.30929,-2.03274 0.57274,-0.63287 1.32753,-1.15876 1.67731,-1.16862 0.94383,-0.0266 4.08754,-4.54014 5.24635,-7.53224 1.18043,-3.04797 3.37549,-8.01907 5.00082,-11.32527 2.35789,-4.79633 3.50047,-6.18303 6.0087,-7.29255 1.38673,-0.61341 2.83566,-1.49405 3.21986,-1.95696 0.90548,-1.09106 0.2635,-5.67625 -1.2022,-8.58645 -0.59687,-1.18514 -1.08525,-2.52472 -1.08525,-2.97684 0,-0.45213 -0.61879,-2.22667 -1.37511,-3.94342 -2.2456,-5.09734 -5.40321,-14.80454 -7.63294,-23.46538 -1.14897,-4.46292 -2.60025,-9.55184 -3.22508,-11.30871 -0.62483,-1.75686 -1.37469,-4.76242 -1.66634,-6.67901 -0.29166,-1.91658 -0.83052,-4.5301 -1.19748,-5.80783 -0.36695,-1.27772 -0.90986,-3.56456 -1.20648,-5.08186 -0.2966,-1.5173 -0.78196,-4.00014 -1.07855,-5.51744 -0.29662,-1.51729 -0.83319,-3.80413 -1.19239,-5.08185 -0.97675,-3.47446 -0.96847,-3.8486 0.10051,-4.54148 1.74328,-1.12993 3.05442,0.82969 3.90126,5.83086 0.42082,2.48515 1.18667,5.9559 1.7019,7.71276 0.51523,1.75687 0.9845,3.97837 1.04285,4.93666 0.15349,2.52106 1.17003,6.76697 2.16779,9.05447 0.99779,2.2875 3.22509,9.67144 5.06471,16.7904 0.70163,2.71516 1.85539,6.50476 2.56393,8.42136 0.70852,1.91657 1.83728,5.18348 2.50835,7.25979 1.90747,5.90178 2.62397,7.68784 3.96078,9.87331 1.47794,2.41619 2.53171,7.0529 2.53171,11.1399 0,2.77646 -0.16382,3.1031 -2.75873,5.50059 -5.45893,5.04362 -5.92829,5.5627 -7.38229,8.1642 -0.81106,1.45114 -1.47466,2.90089 -1.47466,3.22166 0,0.32077 -1.37209,3.31923 -3.04911,6.66325 -4.33454,8.64319 -9.05831,12.64682 -11.47951,9.72944 z m -29.87237,-69.3459 c -0.18151,-0.29368 0.005,-0.88172 0.41348,-1.30677 1.65832,-1.72369 4.38217,-6.70658 4.70844,-8.61338 0.30908,-1.80628 -0.58133,-5.78778 -1.49974,-6.70618 -0.1866,-0.1866 -1.92638,0.4619 -3.86617,1.44111 -3.91785,1.97772 -5.74599,2.23287 -6.26718,0.87469 -0.55593,-1.44873 3.28014,-13.96023 6.22185,-20.29291 1.48386,-3.1943 3.6231,-6.77561 4.75388,-7.95845 2.05463,-2.14922 4.47954,-3.23152 5.6372,-2.51605 1.41769,0.87617 0.47283,2.44069 -4.92645,8.15735 -0.6514,0.68969 -1.92777,2.93064 -2.83635,4.97988 -0.9086,2.04924 -1.84915,3.98724 -2.09011,4.30667 -0.24097,0.31943 -0.62257,1.95289 -0.84804,3.6299 -0.45574,3.38995 -0.17658,3.61531 2.66087,2.14801 0.97688,-0.50516 2.26588,-0.73499 2.93363,-0.52306 1.64319,0.52154 3.89544,5.69195 4.34248,9.96896 0.32582,3.11731 0.18866,3.83544 -1.23054,6.44299 -2.35032,4.31831 -7.00771,7.74632 -8.10725,5.96724 z m 62.66167,-4.95391 c -1.53501,-2.34269 -2.35164,-10.07626 -1.45758,-13.80309 0.56841,-2.36959 0.58682,-3.65063 0.0794,-5.53502 -0.54548,-2.02574 -0.50052,-2.76066 0.25873,-4.22887 1.01301,-1.9589 3.19117,-3.23348 4.60115,-2.69242 0.58647,0.22507 0.90817,1.07499 0.90817,2.39948 0,2.37702 0.85178,2.62829 3.04946,0.8996 2.26698,-1.7832 2.51845,-4.60324 0.72597,-8.14053 -0.82244,-1.62301 -2.41263,-4.15261 -3.53371,-5.62134 -2.15599,-2.8245 -2.32192,-4.02289 -0.69839,-5.04524 1.39689,-0.8797 3.87208,1.61435 7.14856,7.20318 3.49017,5.9533 3.69954,7.29082 1.69161,10.80653 -2.3109,4.04605 -3.05947,4.784 -6.73844,6.64271 l -3.29152,1.66302 -0.37891,3.64572 c -0.20839,2.00515 -0.29533,5.7093 -0.19312,8.23143 0.20404,5.03637 -0.47804,6.15926 -2.17137,3.57484 z m -92.41442,166.02755 c 0.33765,-7.7793 0.28474,-11.6363 -0.1812,-13.20821 -0.49229,-1.66086 -0.49061,-2.42207 0.007,-3.02125 0.36562,-0.44054 0.49953,-1.32155 0.29761,-1.95781 -0.20196,-0.63626 -0.48358,-4.2424 -0.62584,-8.01364 -0.14224,-3.77125 -0.38463,-9.33966 -0.53862,-12.37426 -0.72084,-14.20517 -1.01661,-22.06411 -0.95082,-25.26406 0.0394,-1.9166 -0.33255,-8.05838 -0.82656,-13.64842 -0.49403,-5.59003 -0.87237,-10.62108 -0.84077,-11.18008 0.21962,-3.88543 -0.43408,-23.2172 -1.27166,-37.60573 -0.28822,-4.95118 -0.63657,-13.18379 -0.77413,-18.29468 -0.13756,-5.11089 -0.39178,-11.51402 -0.56494,-14.22919 -0.30759,-4.82308 -0.74968,-12.73972 -1.2,-21.48899 -0.12332,-2.39573 -0.51012,-6.05467 -0.85958,-8.13097 -0.57358,-3.40791 -1.44066,-10.6896 -2.05743,-17.27832 -0.12708,-1.35761 -0.33651,-3.5791 -0.46536,-4.93667 -0.33301,-3.508 -1.43418,-12.25837 -2.10126,-16.6975 -0.31201,-2.07629 -0.57255,-5.52221 -0.57897,-7.65756 -0.0153,-5.07471 -0.69905,-6.86202 -2.62523,-6.86202 -1.00556,0 -1.63536,0.41932 -1.96264,1.30676 -0.63641,1.72554 -0.35292,21.61195 0.46982,32.95946 0.62559,8.62834 0.86209,22.17052 1.45042,83.05204 0.14662,15.17295 0.5421,30.20073 0.87884,33.39504 0.33675,3.19431 0.71456,6.98392 0.83958,8.42136 0.12503,1.43744 0.75261,6.01111 1.39463,10.1637 2.09749,13.56654 3.78011,32.09512 3.95567,43.55876 0.0734,4.79147 0.28798,10.54122 0.47689,12.77724 0.1889,2.23601 0.61525,7.46307 0.94744,11.61567 l 0.60395,7.55018 2.7325,4.20256 c 1.50286,2.3114 2.99385,4.11975 3.31327,4.01854 0.33742,-0.1069 0.78062,-4.78812 1.0577,-11.17195 z M 199.28946,176.6039 c 1.2688,-1.35759 3.02202,-3.77509 3.89605,-5.37225 0.87403,-1.59715 3.40929,-4.99473 5.63392,-7.55018 2.22463,-2.55545 4.37193,-5.29965 4.77179,-6.09823 1.33297,-2.66208 3.91588,-6.38861 4.42806,-6.38861 0.27817,0 0.66511,-0.45737 0.85987,-1.01637 0.33073,-0.94929 2.24882,-3.98284 4.54858,-7.19381 1.22289,-1.70744 1.30916,-4.52859 0.33801,-11.05369 -0.7082,-4.75826 -0.86872,-5.12931 -2.92349,-6.75775 -4.1528,-3.29115 -10.93514,-3.64025 -16.41093,-0.84471 -6.78399,3.46342 -14.68597,16.92151 -16.62725,28.31829 -0.71999,4.22691 -0.20238,13.40676 0.9814,17.40509 1.02007,3.44538 5.77561,8.89517 7.85599,9.00288 0.1876,0.0104 1.37921,-1.09308 2.648,-2.45066 z m 250.17024,-1.88754 c 0.35365,-0.63886 1.49239,-2.1424 2.53054,-3.34118 1.03815,-1.19879 1.90759,-2.50556 1.93197,-2.90392 0.0243,-0.39837 0.18266,-1.24702 0.35156,-1.88587 0.16888,-0.63887 0.34487,-3.55125 0.39114,-6.47198 0.0981,-6.1954 -0.71929,-7.75721 -4.0596,-7.75721 -1.65123,0 -2.0881,0.31547 -3.01584,2.17792 -1.69474,3.40213 -2.56428,8.78824 -2.33922,14.49009 0.21117,5.3514 0.98553,7.36282 2.70406,7.02382 0.47428,-0.0935 1.15169,-0.69281 1.50539,-1.33167 z M 275.86769,104.41305 c 14.90486,-0.27573 30.76441,-1.22375 40.07406,-2.39548 3.83316,-0.48245 9.84427,-1.09096 13.358,-1.35223 3.51376,-0.26128 9.65554,-0.761338 13.64842,-1.11123 3.99287,-0.349893 9.82607,-0.791207 12.9626,-0.980688 4.01756,-0.242708 5.79233,-0.577702 6.00566,-1.133608 0.17521,-0.456577 -1.37135,-2.487618 -3.6701,-4.819839 -2.18507,-2.216901 -5.01831,-5.250167 -6.29604,-6.740565 -1.27772,-1.490409 -3.90879,-4.326785 -5.84686,-6.303038 -1.93808,-1.976253 -3.76754,-4.0252 -4.06549,-4.553212 -0.50308,-0.891523 -5.30577,-5.977502 -7.648,-8.099132 -0.56359,-0.510491 -2.00043,-2.078599 -3.193,-3.484702 -1.19256,-1.406083 -2.59292,-2.948551 -3.11188,-3.427698 -0.99948,-0.92278 -1.81183,-1.742226 -23.95351,-24.162218 -13.4551,-13.624255 -14.20193,-14.279731 -15.56328,-13.659454 -0.78648,0.358343 -3.77803,0.651532 -6.64791,0.651532 -4.45828,0 -5.26535,0.147976 -5.54349,1.016374 -0.17904,0.558997 -0.9549,2.48649 -1.72412,4.283306 -0.76922,1.796806 -1.39859,3.740837 -1.39859,4.320049 0,2.316177 -14.96974,34.198868 -17.89938,38.122283 -4.424,5.92468 -5.60759,8.921686 -9.43882,23.90055 -0.31497,1.231417 -0.9348,2.939242 -1.37743,3.795163 -0.44259,0.85592 -0.98691,2.527257 -1.20957,3.714097 l -0.40481,2.15785 6.01767,0.0903 c 3.30971,0.0496 6.57093,0.0453 7.24715,-0.0104 0.67622,-0.0551 1.85231,0.15941 2.61353,0.47672 0.76121,0.3173 2.16809,0.43143 3.12639,0.25362 0.95828,-0.17782 7.23074,-0.42484 13.9388,-0.54892 z" id="path3347" ns1:connector-curvature="0" />
  </g>
</svg>